<svg version="1.1" id="Layer_1" xmlns="http://www.w3.org/2000/svg" xmlns:xlink="http://www.w3.org/1999/xlink" x="0px" y="0px"
	 width="100%" viewBox="0 0 488 160" enable-background="new 0 0 488 160" xml:space="preserve">
<path fill="#FDFEFF" opacity="1.000000" stroke="none" 
	d="
M345.000000,161.000000 
	C230.000061,161.000000 115.500122,161.000000 1.000138,161.000000 
	C1.000092,107.666756 1.000092,54.333515 1.000046,1.000203 
	C163.666489,1.000135 326.332977,1.000135 488.999634,1.000067 
	C488.999756,54.333130 488.999756,107.666260 488.999878,160.999695 
	C441.166656,161.000000 393.333344,161.000000 345.000000,161.000000 
M54.219456,54.051174 
	C53.794327,54.582859 53.369202,55.114540 52.199783,55.802681 
	C50.100697,57.520786 48.001606,59.238892 45.400444,61.412762 
	C44.312462,63.270164 42.845005,65.009514 42.222126,67.011620 
	C41.192024,70.322639 39.892212,72.760445 36.239388,74.115356 
	C34.000763,74.945717 32.440708,77.605507 29.730421,80.277229 
	C33.706482,80.872574 36.083805,81.228531 38.461128,81.584496 
	C37.279575,82.700699 36.206627,82.932686 35.126442,82.973633 
	C28.704058,83.217117 26.971659,85.805519 29.085297,91.906227 
	C31.651966,99.314537 37.047398,102.995674 44.582355,103.512619 
	C44.759151,104.374626 44.928165,104.853615 44.946426,105.338295 
	C45.378864,116.813850 51.392902,125.194511 61.272614,129.662796 
	C72.117752,134.567719 83.107780,133.035782 92.416122,124.920616 
	C94.588982,123.026283 96.188454,122.912804 98.554008,124.267326 
	C105.643654,128.326828 111.802879,128.275360 117.289558,122.880989 
	C120.892273,119.338913 124.280678,117.729561 129.326614,117.859314 
	C135.001114,118.005226 138.987885,113.769226 140.263107,107.376465 
	C140.520248,106.261909 140.777390,105.147346 141.038162,103.202316 
	C140.104950,100.078918 139.119308,96.969826 138.261368,93.825882 
	C137.852615,92.327911 137.170395,90.644760 137.491928,89.248039 
	C140.294556,77.073349 137.902878,70.615891 128.127640,63.556068 
	C126.648224,62.487621 125.414795,60.384521 125.059494,58.566193 
	C122.739662,46.693703 116.125229,38.061104 104.784355,34.335663 
	C94.241928,30.872507 84.256371,33.089527 76.058052,41.306374 
	C74.766708,42.600632 72.761925,43.183048 70.289810,44.032104 
	C68.515396,44.931305 66.740982,45.830502 64.242256,46.900166 
	C62.094666,50.616978 58.112164,51.899525 54.219456,54.051174 
M375.282257,109.308357 
	C375.282257,109.308357 375.716278,109.427773 376.041077,110.097595 
	C381.568085,113.725410 391.546143,112.292480 394.954803,107.614815 
	C398.707092,108.444664 402.459381,109.274506 407.212433,110.325676 
	C407.212433,103.206688 407.311066,97.412369 407.171234,91.623802 
	C407.100281,88.686508 408.118378,87.378044 411.168671,87.418793 
	C418.821106,87.521034 426.476654,87.509796 434.129364,87.415520 
	C436.958923,87.380653 437.969025,88.622505 437.906952,91.328438 
	C437.807709,95.652206 437.714935,99.990990 437.993896,104.299187 
	C438.073639,105.530693 439.446442,106.678459 440.286957,108.571335 
	C441.429108,109.473717 442.450134,110.639145 443.735291,111.231041 
	C448.282104,113.325134 453.668823,111.333496 453.685913,107.603821 
	C453.746155,94.448265 453.998108,81.280891 453.488251,68.144753 
	C453.367828,65.041649 450.556610,62.042988 449.004211,58.996819 
	C449.004211,58.996819 449.003082,59.017876 448.960754,58.396572 
	C448.636597,58.144321 448.312439,57.892071 447.526123,57.196316 
	C444.366608,53.237259 440.220276,51.895557 435.229340,51.996124 
	C425.943390,52.183243 416.650940,52.030022 407.361328,52.056610 
	C398.164490,52.082932 394.844696,54.920174 392.755859,63.811527 
	C391.193726,62.197681 389.631622,60.583832 388.027039,58.976837 
	C388.027039,58.976837 388.032959,58.934261 388.023041,58.382465 
	C387.739563,58.158295 387.456085,57.934128 386.727661,57.215679 
	C383.581085,53.220715 379.426819,51.901669 374.423859,51.995712 
	C364.455017,52.183098 354.480164,52.050297 344.507812,52.049870 
	C340.747162,52.049709 336.986511,52.049847 332.728302,52.049847 
	C332.728302,56.860489 332.728302,60.987385 332.080872,64.898193 
	C330.414215,62.918556 328.747528,60.938915 327.034271,58.972343 
	C327.034271,58.972343 327.044220,58.924969 327.030273,58.383205 
	C326.752869,58.161736 326.475433,57.940262 325.747375,57.225468 
	C322.939331,53.835499 319.476746,51.974274 314.932678,52.018909 
	C304.617981,52.120235 294.300995,51.980003 283.986176,52.075218 
	C276.959991,52.140072 273.566071,55.057121 271.290680,61.558411 
	C270.851624,57.986652 270.407623,54.417904 265.678833,52.422054 
	C262.266083,52.422054 258.853333,52.422054 254.873215,52.422054 
	C254.873215,59.777908 254.873215,66.852188 254.873215,73.930275 
	C244.822372,73.930275 235.348679,73.930275 225.912674,73.007256 
	C225.896927,68.719292 226.282028,64.375816 225.698990,60.166428 
	C225.400558,58.011688 223.369614,56.096912 221.912354,53.257069 
	C218.395889,52.722107 214.879425,52.187141 210.797638,51.566181 
	C210.797638,57.023193 210.797638,61.310844 210.427322,65.964165 
	C210.185486,66.468964 209.943649,66.973763 209.972702,66.913101 
	C208.306198,64.264282 206.645065,61.624004 204.987305,59.009987 
	C204.987305,59.009987 205.011444,59.020905 204.970245,58.436184 
	C204.667084,58.199814 204.363937,57.963440 203.679825,57.191185 
	C200.656921,53.354214 196.696198,51.921085 191.843750,52.005043 
	C182.187454,52.172123 172.526001,52.012589 162.867142,52.067497 
	C153.855484,52.118725 149.876877,56.163757 149.836365,65.281090 
	C149.793442,74.940079 149.989700,84.603226 149.763443,94.257111 
	C149.633728,99.791618 151.498169,103.968903 156.563766,107.433235 
	C159.938507,108.560326 163.271393,110.478722 166.696167,110.659874 
	C175.485291,111.124802 184.318924,110.660980 193.127747,110.867310 
	C200.974258,111.051102 208.146988,110.537140 209.411880,100.062706 
	C210.137390,101.286613 210.467545,101.843575 210.811020,103.287918 
	C211.156601,108.827774 215.111465,110.581772 224.241058,108.853493 
	C224.241058,103.201508 224.084534,97.406837 224.354431,91.632103 
	C224.419464,90.241020 225.861771,87.764549 226.730927,87.737709 
	C235.972992,87.452278 245.227203,87.560555 255.020874,87.560555 
	C255.020874,93.310150 254.871368,98.446938 255.115067,103.565002 
	C255.185074,105.035370 256.389984,106.451698 257.151428,108.619362 
	C262.534027,113.656708 269.285187,113.251793 272.740265,107.943825 
	C276.668884,108.615585 280.597504,109.287354 285.228363,110.079201 
	C285.228363,103.063828 285.068268,97.273865 285.346436,91.505028 
	C285.411957,90.146408 286.920715,87.739433 287.823669,87.711754 
	C297.042786,87.429237 306.273926,87.538887 316.023315,87.538887 
	C316.023315,93.322670 315.874542,98.451988 316.116974,103.562744 
	C316.186646,105.031960 317.384827,106.447639 318.145203,108.616173 
	C323.513397,113.660706 330.271210,113.264503 333.757690,107.941017 
	C337.675293,108.605621 341.592896,109.270233 346.205536,110.052757 
	C346.205536,103.246170 346.160553,97.652092 346.219543,92.059097 
	C346.267944,87.472130 349.054901,85.940849 352.900879,88.454796 
	C354.403351,89.436882 355.642792,90.833832 356.957581,92.088402 
	C362.539062,97.414299 368.103851,102.757645 373.964630,108.562180 
	C374.267944,108.747322 374.571228,108.932457 375.282257,109.308357 
z"/>
<path fill="#C8ECE5" opacity="1.000000" stroke="none" 
	d="
M139.973129,108.015030 
	C138.987885,113.769226 135.001114,118.005226 129.326614,117.859314 
	C124.280678,117.729561 120.892273,119.338913 117.289558,122.880989 
	C111.802879,128.275360 105.643654,128.326828 98.554008,124.267326 
	C96.188454,122.912804 94.588982,123.026283 92.416122,124.920616 
	C83.107780,133.035782 72.117752,134.567719 61.272614,129.662796 
	C51.392902,125.194511 45.378864,116.813850 44.946426,105.338295 
	C44.928165,104.853615 44.759151,104.374626 44.582355,103.512619 
	C37.047398,102.995674 31.651966,99.314537 29.085297,91.906227 
	C26.971659,85.805519 28.704058,83.217117 35.126442,82.973633 
	C36.206627,82.932686 37.279575,82.700699 38.461128,81.584496 
	C36.083805,81.228531 33.706482,80.872574 29.730421,80.277229 
	C32.440708,77.605507 34.000763,74.945717 36.239388,74.115356 
	C39.892212,72.760445 41.192024,70.322639 42.222126,67.011620 
	C42.845005,65.009514 44.312462,63.270164 45.666950,61.602436 
	C46.010822,68.552002 48.364502,70.919685 55.077938,70.976898 
	C56.883411,70.992287 58.704182,71.131233 60.491138,70.949707 
	C63.138184,70.680801 64.055679,71.902710 63.865952,74.635040 
	C62.889160,76.546600 61.932384,78.158600 60.652454,79.895012 
	C57.969276,83.843040 53.134117,86.981773 55.761784,90.875832 
	C55.148407,95.342155 54.132198,98.431534 54.573948,101.296066 
	C54.803825,102.786674 57.606468,103.880524 59.915680,105.672539 
	C59.915680,106.695404 59.915684,108.671860 59.915684,110.648315 
	C59.915684,112.741867 59.915680,114.835419 59.915680,116.766075 
	C69.134323,118.733490 69.964951,118.092316 69.977943,109.696678 
	C69.980896,107.788315 69.978378,105.879929 69.978378,104.012558 
	C80.746002,104.012558 90.667343,104.012558 101.181870,104.012558 
	C101.181870,107.399681 100.910782,110.550224 101.303726,113.615646 
	C101.482628,115.011337 103.273949,117.464432 103.818703,117.331207 
	C106.229912,116.741531 110.152832,120.093414 111.076820,114.528351 
	C111.243233,110.767502 111.318802,107.452522 111.765396,104.115707 
	C117.330589,103.250053 115.470230,99.179375 115.547623,96.216469 
	C115.654907,92.109268 111.889816,94.006447 109.966667,92.546341 
	C109.988518,89.540413 110.008881,86.999565 110.286423,84.405350 
	C113.324226,84.568314 116.104851,84.784660 119.213745,85.270256 
	C123.151207,85.686905 126.871803,86.420647 130.328217,85.763954 
	C132.433990,85.363876 135.237930,83.083221 135.692688,81.164757 
	C136.118195,79.369705 134.318024,76.461304 132.682999,74.890617 
	C129.667007,71.993301 125.999825,69.785484 122.708633,67.159210 
	C120.209534,65.165001 117.822716,64.863640 114.971581,66.504913 
	C113.526009,67.337074 111.692886,67.496010 110.008743,67.511322 
	C109.945923,59.122566 109.945923,59.122566 103.062546,58.342415 
	C103.001762,55.588165 103.177734,53.250256 102.857071,50.982571 
	C102.711205,49.950989 101.769859,48.489357 100.870262,48.193710 
	C94.351593,46.051380 90.709557,48.348694 89.586517,54.823738 
	C88.105309,54.193317 86.972595,53.569641 85.562561,52.745552 
	C82.438354,51.666695 79.591476,50.788258 76.744598,49.909824 
	C76.482025,50.427895 76.219444,50.945965 75.956871,51.464035 
	C74.333588,49.007557 72.710297,46.551079 71.087013,44.094601 
	C72.761925,43.183048 74.766708,42.600632 76.058052,41.306374 
	C84.256371,33.089527 94.241928,30.872507 104.784355,34.335663 
	C116.125229,38.061104 122.739662,46.693703 125.059494,58.566193 
	C125.414795,60.384521 126.648224,62.487621 128.127640,63.556068 
	C137.902878,70.615891 140.294556,77.073349 137.491928,89.248039 
	C137.170395,90.644760 137.852615,92.327911 138.261368,93.825882 
	C139.119308,96.969826 140.104950,100.078918 140.660217,103.562576 
	C139.514633,103.149117 138.879700,102.062401 137.950974,101.668633 
	C136.167175,100.912323 134.220505,100.207825 132.333755,100.187363 
	C131.560257,100.178970 130.766953,101.999207 129.528107,102.990341 
	C125.879974,102.993095 122.686401,102.993095 119.492836,102.993095 
	C119.475861,103.438332 119.458885,103.883560 119.441910,104.328796 
	C120.287598,104.557854 121.133278,104.786903 121.988663,105.371323 
	C122.495064,106.432785 123.377953,107.785851 123.433388,107.752777 
	C127.482155,105.335869 129.265961,108.946587 131.550812,109.677330 
	C134.358246,109.123230 137.165695,108.569130 139.973129,108.015030 
z"/>
<path fill="#585B60" opacity="1.000000" stroke="none" 
	d="
M373.674744,108.094612 
	C368.103851,102.757645 362.539062,97.414299 356.957581,92.088402 
	C355.642792,90.833832 354.403351,89.436882 352.900879,88.454796 
	C349.054901,85.940849 346.267944,87.472130 346.219543,92.059097 
	C346.160553,97.652092 346.205536,103.246170 346.205536,110.052757 
	C341.592896,109.270233 337.675293,108.605621 333.381683,107.398178 
	C332.913239,92.941650 332.820770,79.027969 332.728302,65.114281 
	C332.728302,60.987385 332.728302,56.860489 332.728302,52.049847 
	C336.986511,52.049847 340.747162,52.049709 344.507812,52.049870 
	C354.480164,52.050297 364.455017,52.183098 374.423859,51.995712 
	C379.426819,51.901669 383.581085,53.220715 386.968872,57.746540 
	C387.484375,58.496353 387.758667,58.715305 388.032959,58.934258 
	C388.032959,58.934261 388.027039,58.976837 388.018158,59.442993 
	C388.085693,64.238274 388.253174,68.568108 388.218964,72.896362 
	C388.153717,81.144707 384.003265,85.393890 375.652710,85.817162 
	C373.245331,85.939201 370.826508,85.835884 368.412933,85.835884 
	C367.968750,86.528610 367.524567,87.221329 367.080383,87.914055 
	C368.729889,88.926712 370.379395,89.939369 372.251221,91.216553 
	C375.403809,95.670425 379.405701,97.013275 384.424286,96.510918 
	C385.650726,96.388153 387.044312,97.934952 388.270569,99.178391 
	C388.057953,107.786118 388.057922,107.777435 379.699921,107.799553 
	C378.069519,107.803864 376.439423,107.904709 374.519043,107.938965 
	C374.044189,107.976135 373.859497,108.035370 373.674744,108.094612 
M376.994965,65.277695 
	C375.791473,64.556976 374.611664,63.265072 373.380341,63.213947 
	C367.906708,62.986675 362.418304,63.114670 356.935242,63.114433 
	C352.701843,63.114246 348.468414,63.114391 343.966644,63.114391 
	C343.966644,66.496384 343.673309,69.030136 344.108582,71.431824 
	C344.286865,72.415573 346.039490,73.113983 347.998566,74.059624 
	C357.574615,74.059624 367.150635,74.059624 376.875458,74.059624 
	C376.875458,71.062111 376.875458,68.591888 376.994965,65.277695 
z"/>
<path fill="#575B62" opacity="1.000000" stroke="none" 
	d="
M440.226318,107.864609 
	C439.446442,106.678459 438.073639,105.530693 437.993896,104.299187 
	C437.714935,99.990990 437.807709,95.652206 437.906952,91.328438 
	C437.969025,88.622505 436.958923,87.380653 434.129364,87.415520 
	C426.476654,87.509796 418.821106,87.521034 411.168671,87.418793 
	C408.118378,87.378044 407.100281,88.686508 407.171234,91.623802 
	C407.311066,97.412369 407.212433,103.206688 407.212433,110.325676 
	C402.459381,109.274506 398.707092,108.444664 394.465240,107.156799 
	C393.777130,104.462494 393.578583,102.226204 393.443054,99.519531 
	C393.461884,93.050682 393.417694,87.052208 393.530151,80.608437 
	C393.577240,74.752525 393.467651,69.341919 393.358063,63.931316 
	C394.844696,54.920174 398.164490,52.082932 407.361328,52.056610 
	C416.650940,52.030022 425.943390,52.183243 435.229340,51.996124 
	C440.220276,51.895557 444.366608,53.237259 447.790680,57.746944 
	C448.371185,58.537674 448.687134,58.777779 449.003082,59.017879 
	C449.003082,59.017876 449.004211,58.996819 448.911804,59.460609 
	C448.819366,75.794189 448.819366,91.663971 448.819366,107.864609 
	C445.516510,107.864609 442.871429,107.864609 440.226318,107.864609 
M408.988922,74.061264 
	C418.505798,74.061264 428.022675,74.061264 437.725952,74.061264 
	C437.725952,71.066261 437.725952,68.618568 437.876068,65.342300 
	C437.190277,64.609779 436.513062,63.248718 435.817383,63.239235 
	C425.713562,63.101482 415.607330,63.144756 404.868530,63.144756 
	C404.868530,66.464760 404.635651,69.265793 405.015167,71.981232 
	C405.124359,72.762405 406.999359,73.296776 408.988922,74.061264 
z"/>
<path fill="#575B64" opacity="1.000000" stroke="none" 
	d="
M318.065613,107.887863 
	C317.384827,106.447639 316.186646,105.031960 316.116974,103.562744 
	C315.874542,98.451988 316.023315,93.322670 316.023315,87.538887 
	C306.273926,87.538887 297.042786,87.429237 287.823669,87.711754 
	C286.920715,87.739433 285.411957,90.146408 285.346436,91.505028 
	C285.068268,97.273865 285.228363,103.063828 285.228363,110.079201 
	C280.597504,109.287354 276.668884,108.615585 272.369202,107.393661 
	C271.940216,91.938492 271.882324,77.033501 271.824402,62.128502 
	C273.566071,55.057121 276.959991,52.140072 283.986176,52.075218 
	C294.300995,51.980003 304.617981,52.120235 314.932678,52.018909 
	C319.476746,51.974274 322.939331,53.835499 325.991882,57.750519 
	C326.505646,58.492039 326.774933,58.708508 327.044220,58.924973 
	C327.044220,58.924969 327.034271,58.972343 327.034851,59.436722 
	C327.035461,75.767128 327.035461,91.633156 327.035461,107.887863 
	C323.646851,107.887863 320.856232,107.887863 318.065613,107.887863 
M315.987457,65.273788 
	C314.782593,64.557152 313.603333,63.278202 312.368408,63.221966 
	C307.234772,62.988224 302.084381,63.122986 296.940125,63.122780 
	C292.374664,63.122593 287.809235,63.122742 282.974854,63.122742 
	C282.974854,66.483543 282.682068,69.013763 283.116119,71.412437 
	C283.294647,72.399040 285.038177,73.102448 286.993439,74.050598 
	C296.569916,74.050598 306.146423,74.050598 315.870331,74.050598 
	C315.870331,71.055275 315.870331,68.584930 315.987457,65.273788 
z"/>
<path fill="#575A60" opacity="1.000000" stroke="none" 
	d="
M156.248581,106.823227 
	C151.498169,103.968903 149.633728,99.791618 149.763443,94.257111 
	C149.989700,84.603226 149.793442,74.940079 149.836365,65.281090 
	C149.876877,56.163757 153.855484,52.118725 162.867142,52.067497 
	C172.526001,52.012589 182.187454,52.172123 191.843750,52.005043 
	C196.696198,51.921085 200.656921,53.354214 203.903397,57.760002 
	C204.421799,58.559513 204.716629,58.790207 205.011444,59.020905 
	C205.011444,59.020905 204.987305,59.009987 204.934753,59.464920 
	C204.948715,71.725662 205.080032,83.531586 205.057999,95.337227 
	C205.044235,102.702591 201.371689,107.357750 194.073257,107.500839 
	C181.474304,107.747849 168.857758,107.097229 156.248581,106.823227 
M171.538193,64.232513 
	C168.280212,64.232513 165.022247,64.232513 161.460602,64.232513 
	C161.460602,74.264870 161.328018,83.553413 161.626633,92.828064 
	C161.664398,94.001106 163.936493,96.046127 165.221024,96.084274 
	C174.643585,96.364059 184.078308,96.235260 193.500183,96.235260 
	C193.500183,85.443962 193.500183,74.958199 193.500183,64.232941 
	C186.141647,64.232941 179.334824,64.232941 171.538193,64.232513 
z"/>
<path fill="#575C66" opacity="1.000000" stroke="none" 
	d="
M210.797638,65.598495 
	C210.797638,61.310844 210.797638,57.023193 210.797638,51.566181 
	C214.879425,52.187141 218.395889,52.722107 221.953934,54.119904 
	C222.004166,60.233547 222.118210,65.487122 221.980621,70.734108 
	C221.902298,73.721268 223.193741,74.549812 225.874985,73.930275 
	C235.348679,73.930275 244.822372,73.930275 254.873215,73.930275 
	C254.873215,66.852188 254.873215,59.777908 254.873215,52.422054 
	C258.853333,52.422054 262.266083,52.422054 265.894806,53.174007 
	C266.315094,68.652092 266.587494,83.377686 266.702515,98.104515 
	C266.797058,110.212364 267.417603,107.695732 257.074554,107.892799 
	C256.389984,106.451698 255.185074,105.035370 255.115067,103.565002 
	C254.871368,98.446938 255.020874,93.310150 255.020874,87.560555 
	C245.227203,87.560555 235.972992,87.452278 226.730927,87.737709 
	C225.861771,87.764549 224.419464,90.241020 224.354431,91.632103 
	C224.084534,97.406837 224.241058,103.201508 224.241058,108.853493 
	C215.111465,110.581772 211.156601,108.827774 210.888565,102.458626 
	C210.909958,89.619057 210.853790,77.608772 210.797638,65.598495 
z"/>
<path fill="#6996ED" opacity="1.000000" stroke="none" 
	d="
M210.612488,65.781326 
	C210.853790,77.608772 210.909958,89.619057 210.881897,102.014938 
	C210.467545,101.843575 210.137390,101.286613 209.411880,100.062706 
	C208.146988,110.537140 200.974258,111.051102 193.127747,110.867310 
	C184.318924,110.660980 175.485291,111.124802 166.696167,110.659874 
	C163.271393,110.478722 159.938507,108.560326 156.406174,107.128235 
	C168.857758,107.097229 181.474304,107.747849 194.073257,107.500839 
	C201.371689,107.357750 205.044235,102.702591 205.057999,95.337227 
	C205.080032,83.531586 204.948715,71.725662 204.933075,59.451790 
	C206.645065,61.624004 208.306198,64.264282 209.972702,66.913101 
	C209.943649,66.973763 210.185486,66.468964 210.612488,65.781326 
z"/>
<path fill="#F2EFE3" opacity="1.000000" stroke="none" 
	d="
M70.688416,44.063354 
	C72.710297,46.551079 74.333588,49.007557 75.956871,51.464035 
	C76.219444,50.945965 76.482025,50.427895 76.744598,49.909824 
	C79.591476,50.788258 82.438354,51.666695 85.489059,53.084572 
	C84.192879,54.441029 82.692871,55.258049 81.063751,56.451180 
	C80.886490,58.147015 80.838341,59.466743 80.437233,60.809807 
	C71.933838,57.729771 71.933838,57.729771 69.806183,63.398426 
	C69.040741,64.801117 68.461281,65.945389 67.478455,67.165367 
	C62.343014,67.517982 57.597652,68.101166 52.886448,67.896851 
	C51.347557,67.830101 49.093182,65.956215 48.641769,64.462753 
	C48.222256,63.074810 49.410439,60.792568 50.538120,59.446278 
	C52.026619,57.669212 54.146477,56.420986 56.355019,54.864441 
	C58.576851,54.783451 60.438606,54.783451 61.847900,54.783451 
	C63.428013,52.371700 64.952263,50.045216 66.476509,47.718731 
	C65.973198,47.389053 65.469879,47.059376 64.966568,46.729702 
	C66.740982,45.830502 68.515396,44.931305 70.688416,44.063354 
M59.867256,60.019184 
	C62.225101,58.796425 64.582947,57.573666 66.940796,56.350906 
	C66.578941,55.774055 66.217087,55.197201 65.855225,54.620346 
	C63.522221,56.358955 61.189213,58.097565 58.126854,59.870472 
	C56.404453,60.719772 54.682053,61.569073 52.959652,62.418373 
	C53.309845,62.985405 53.660038,63.552441 54.010231,64.119476 
	C55.708458,62.781219 57.406681,61.442970 59.867256,60.019184 
z"/>
<path fill="#A5C1F7" opacity="1.000000" stroke="none" 
	d="
M318.105408,108.252014 
	C320.856232,107.887863 323.646851,107.887863 327.035461,107.887863 
	C327.035461,91.633156 327.035461,75.767128 327.058167,59.430187 
	C328.747528,60.938915 330.414215,62.918556 332.404602,65.006241 
	C332.820770,79.027969 332.913239,92.941650 333.000183,107.300453 
	C330.271210,113.264503 323.513397,113.660706 318.105408,108.252014 
z"/>
<path fill="#A3C0F9" opacity="1.000000" stroke="none" 
	d="
M257.112976,108.256081 
	C267.417603,107.695732 266.797058,110.212364 266.702515,98.104515 
	C266.587494,83.377686 266.315094,68.652092 266.153687,53.525154 
	C270.407623,54.417904 270.851624,57.986652 271.557556,61.843456 
	C271.882324,77.033501 271.940216,91.938492 271.988831,107.286751 
	C269.285187,113.251793 262.534027,113.656708 257.112976,108.256081 
z"/>
<path fill="#7EA9FE" opacity="1.000000" stroke="none" 
	d="
M440.256653,108.217972 
	C442.871429,107.864609 445.516510,107.864609 448.819366,107.864609 
	C448.819366,91.663971 448.819366,75.794189 448.901306,59.460342 
	C450.556610,62.042988 453.367828,65.041649 453.488251,68.144753 
	C453.998108,81.280891 453.746155,94.448265 453.685913,107.603821 
	C453.668823,111.333496 448.282104,113.325134 443.735291,111.231041 
	C442.450134,110.639145 441.429108,109.473717 440.256653,108.217972 
z"/>
<path fill="#A3BDF1" opacity="1.000000" stroke="none" 
	d="
M393.056946,63.871422 
	C393.467651,69.341919 393.577240,74.752525 393.231567,80.686340 
	C389.318420,87.749809 383.983490,90.637276 376.552216,89.871674 
	C375.096985,89.721748 373.539307,90.566200 372.028900,90.952034 
	C370.379395,89.939369 368.729889,88.926712 367.080383,87.914055 
	C367.524567,87.221329 367.968750,86.528610 368.412933,85.835884 
	C370.826508,85.835884 373.245331,85.939201 375.652710,85.817162 
	C384.003265,85.393890 388.153717,81.144707 388.218964,72.896362 
	C388.253174,68.568108 388.085693,64.238274 388.039368,59.439568 
	C389.631622,60.583832 391.193726,62.197681 393.056946,63.871422 
z"/>
<path fill="#A6A39C" opacity="1.000000" stroke="none" 
	d="
M55.994934,54.945427 
	C54.146477,56.420986 52.026619,57.669212 50.538120,59.446278 
	C49.410439,60.792568 48.222256,63.074810 48.641769,64.462753 
	C49.093182,65.956215 51.347557,67.830101 52.886448,67.896851 
	C57.597652,68.101166 62.343014,67.517982 67.498932,67.512764 
	C66.577179,69.968124 65.231575,72.151810 63.885967,74.335487 
	C64.055679,71.902710 63.138184,70.680801 60.491138,70.949707 
	C58.704182,71.131233 56.883411,70.992287 55.077938,70.976898 
	C48.364502,70.919685 46.010822,68.552002 45.917988,61.374554 
	C48.001606,59.238892 50.100697,57.520786 52.894024,55.816902 
	C54.410206,55.548744 55.232143,55.266361 56.028252,54.991322 
	C56.002419,54.998665 55.994934,54.945427 55.994934,54.945427 
z"/>
<path fill="#DDF4F0" opacity="1.000000" stroke="none" 
	d="
M140.118118,107.695747 
	C137.165695,108.569130 134.358246,109.123230 131.550812,109.677330 
	C129.265961,108.946587 127.482155,105.335869 123.433388,107.752777 
	C123.377953,107.785851 122.495064,106.432785 122.447327,105.363388 
	C126.107391,105.000099 129.318497,105.000099 132.529602,105.000099 
	C132.542709,104.531776 132.555817,104.063454 132.568909,103.595131 
	C131.706833,103.392624 130.844742,103.190109 129.982651,102.987595 
	C130.766953,101.999207 131.560257,100.178970 132.333755,100.187363 
	C134.220505,100.207825 136.167175,100.912323 137.950974,101.668633 
	C138.879700,102.062401 139.514633,103.149117 140.658401,103.977814 
	C140.777390,105.147346 140.520248,106.261909 140.118118,107.695747 
z"/>
<path fill="#75A4FE" opacity="1.000000" stroke="none" 
	d="
M225.893829,73.468765 
	C223.193741,74.549812 221.902298,73.721268 221.980621,70.734108 
	C222.118210,65.487122 222.004166,60.233547 222.058594,54.528210 
	C223.369614,56.096912 225.400558,58.011688 225.698990,60.166428 
	C226.282028,64.375816 225.896927,68.719292 225.893829,73.468765 
z"/>
<path fill="#A3BDF1" opacity="1.000000" stroke="none" 
	d="
M393.380035,99.989914 
	C393.578583,102.226204 393.777130,104.462494 394.083069,107.094994 
	C391.546143,112.292480 381.568085,113.725410 376.306458,109.658470 
	C377.063873,109.232452 377.569916,109.174690 378.045837,109.269058 
	C388.689514,111.379890 389.805908,110.554840 390.164337,100.277870 
	C390.170074,100.113777 390.201599,99.950592 390.530579,99.868408 
	C391.686676,99.963188 392.533356,99.976547 393.380035,99.989914 
z"/>
<path fill="#709FFA" opacity="1.000000" stroke="none" 
	d="
M390.221130,99.786987 
	C390.201599,99.950592 390.170074,100.113777 390.164337,100.277870 
	C389.805908,110.554840 388.689514,111.379890 378.045837,109.269058 
	C377.569916,109.174690 377.063873,109.232452 376.144043,109.323563 
	C375.716278,109.427773 375.282257,109.308357 375.084137,108.922302 
	C374.860413,108.344505 374.834778,108.152763 374.809174,107.961029 
	C376.439423,107.904709 378.069519,107.803864 379.699921,107.799553 
	C388.057922,107.777435 388.057953,107.786118 388.552521,99.207504 
	C389.356995,99.110565 389.789062,99.448784 390.221130,99.786987 
z"/>
<path fill="#907F7B" opacity="1.000000" stroke="none" 
	d="
M64.604416,46.814934 
	C65.469879,47.059376 65.973198,47.389053 66.476509,47.718731 
	C64.952263,50.045216 63.428013,52.371700 61.847900,54.783451 
	C60.438606,54.783451 58.576851,54.783451 56.355019,54.864441 
	C55.994934,54.945427 56.002419,54.998665 55.896660,54.739388 
	C55.451984,54.332432 55.113068,54.184750 54.774147,54.037067 
	C58.112164,51.899525 62.094666,50.616978 64.604416,46.814934 
z"/>
<path fill="#F2EFE3" opacity="1.000000" stroke="none" 
	d="
M54.496803,54.044121 
	C55.113068,54.184750 55.451984,54.332432 55.922493,54.732048 
	C55.232143,55.266361 54.410206,55.548744 53.266167,55.738678 
	C53.369202,55.114540 53.794327,54.582859 54.496803,54.044121 
z"/>
<path fill="#6996ED" opacity="1.000000" stroke="none" 
	d="
M204.990845,58.728542 
	C204.716629,58.790207 204.421799,58.559513 204.093872,58.027946 
	C204.363937,57.963440 204.667084,58.199814 204.990845,58.728542 
z"/>
<path fill="#A5C1F7" opacity="1.000000" stroke="none" 
	d="
M327.037231,58.654091 
	C326.774933,58.708508 326.505646,58.492039 326.217224,57.997181 
	C326.475433,57.940262 326.752869,58.161736 327.037231,58.654091 
z"/>
<path fill="#A3BDF1" opacity="1.000000" stroke="none" 
	d="
M388.028015,58.658360 
	C387.758667,58.715305 387.484375,58.496353 387.191345,57.993679 
	C387.456085,57.934128 387.739563,58.158295 388.028015,58.658360 
z"/>
<path fill="#7EA9FE" opacity="1.000000" stroke="none" 
	d="
M448.981934,58.707230 
	C448.687134,58.777779 448.371185,58.537674 448.021759,57.968697 
	C448.312439,57.892071 448.636597,58.144321 448.981934,58.707230 
z"/>
<path fill="#A3BDF1" opacity="1.000000" stroke="none" 
	d="
M374.519043,107.938965 
	C374.834778,108.152763 374.860413,108.344505 374.880280,108.826920 
	C374.571228,108.932457 374.267944,108.747322 373.819702,108.328392 
	C373.859497,108.035370 374.044189,107.976135 374.519043,107.938965 
z"/>
<path fill="#F8F7EA" opacity="1.000000" stroke="none" 
	d="
M118.885475,85.001007 
	C116.104851,84.784660 113.324226,84.568314 109.854919,84.296356 
	C108.649101,84.744926 108.131958,85.249092 107.596085,85.798401 
	C107.577347,85.843544 107.576797,85.941299 107.772667,85.514847 
	C106.349709,84.676216 104.730873,84.264030 103.004944,83.628647 
	C102.681419,83.131393 102.400070,82.971802 101.995758,82.588226 
	C101.789558,81.824638 101.641396,81.399521 101.518356,80.595512 
	C101.775208,79.240211 102.006920,78.263786 102.501633,77.236572 
	C102.973999,76.909538 103.183365,76.633293 103.569031,76.308273 
	C103.745338,76.259506 104.051315,76.058952 104.414444,76.082031 
	C105.233345,74.847916 105.689117,73.590729 106.398102,72.192947 
	C106.884674,71.750107 107.118050,71.447868 107.523682,71.109848 
	C107.695930,71.074066 107.973709,70.858101 108.358810,70.890671 
	C111.477936,71.746994 113.880859,72.212975 116.151405,69.372429 
	C116.807968,68.551056 120.105904,68.979095 121.581459,69.859329 
	C124.383209,71.530693 126.585327,74.187683 129.341003,75.962502 
	C131.279037,77.210693 134.417984,77.859756 132.940796,80.660553 
	C132.051971,82.345772 129.199112,83.316498 127.036560,83.925926 
	C124.425888,84.661667 121.611618,84.674995 118.885475,85.001007 
z"/>
<path fill="#73625B" opacity="1.000000" stroke="none" 
	d="
M110.985977,114.974197 
	C110.152832,120.093414 106.229912,116.741531 103.818703,117.331207 
	C103.273949,117.464432 101.482628,115.011337 101.303726,113.615646 
	C100.910782,110.550224 101.181870,107.399681 101.181870,104.012558 
	C90.667343,104.012558 80.746002,104.012558 69.978378,104.012558 
	C69.978378,105.879929 69.980896,107.788315 69.977943,109.696678 
	C69.964951,118.092316 69.134323,118.733490 59.915680,116.766075 
	C59.915680,114.835419 59.915684,112.741867 59.915684,110.648315 
	C59.915684,108.671860 59.915680,106.695404 59.915680,105.672539 
	C57.606468,103.880524 54.803825,102.786674 54.573948,101.296066 
	C54.132198,98.431534 55.148407,95.342155 55.761784,90.875832 
	C53.134117,86.981773 57.969276,83.843040 60.902710,80.069580 
	C61.028637,81.412300 60.581158,82.704865 59.797832,84.159492 
	C59.043201,85.646744 58.624416,86.971931 58.207260,88.570114 
	C58.461372,89.320343 58.713863,89.797562 59.033813,90.577164 
	C59.741760,91.889366 60.382244,92.899193 60.781670,94.081924 
	C60.344757,94.794815 60.148895,95.334793 59.600273,95.898170 
	C58.541164,95.954849 57.834820,95.988136 56.806473,96.035919 
	C55.453892,97.852432 53.699501,99.745964 57.570183,101.006447 
	C72.672142,101.069778 87.312576,101.113213 101.986465,101.434433 
	C102.344414,102.142944 102.668907,102.573669 102.836807,103.384613 
	C102.492302,107.202652 102.304398,110.640472 102.270546,114.399658 
	C104.629219,114.831657 106.833839,114.942307 109.363129,115.042587 
	C110.120522,115.012886 110.553246,114.993546 110.985977,114.974197 
M61.090313,108.471634 
	C61.093128,109.459129 60.755634,110.631416 61.170403,111.395210 
	C62.004894,112.931946 63.249321,114.246078 64.324600,115.652069 
	C65.213730,114.143555 66.546265,112.726898 66.882484,111.103844 
	C67.327209,108.957024 66.991982,106.648628 66.991982,104.467026 
	C63.512848,103.832672 60.785419,103.262238 61.090313,108.471634 
z"/>
<path fill="#6D3E3F" opacity="1.000000" stroke="none" 
	d="
M102.238632,77.287369 
	C102.006920,78.263786 101.775208,79.240211 101.346481,80.810181 
	C101.106651,81.950233 101.063850,82.496735 100.717308,82.780434 
	C100.586365,74.926323 100.960686,67.330544 100.792999,59.746750 
	C100.750038,57.803558 98.995132,55.898216 98.033905,53.989723 
	C98.367126,53.830849 99.608368,53.239056 100.849609,52.647259 
	C100.842506,52.067463 100.835403,51.487663 100.828300,50.907864 
	C98.656151,50.670765 96.476364,50.236107 94.316605,50.319561 
	C93.686401,50.343914 92.610489,51.833496 92.590683,52.671597 
	C92.356705,62.571533 92.202217,72.475418 92.217079,82.377983 
	C92.221901,85.591599 92.781334,88.804382 93.112762,92.287384 
	C95.425690,92.287384 97.972534,92.287384 99.608658,92.287384 
	C100.148468,88.604523 100.560593,85.792839 101.244095,82.989792 
	C101.694923,82.974518 101.874352,82.950607 102.053787,82.926689 
	C102.400070,82.971802 102.681419,83.131393 103.007751,84.036575 
	C103.204750,85.204704 103.291862,85.741714 103.333633,86.588211 
	C103.291367,87.522789 103.294426,88.147858 103.192833,89.141769 
	C103.096344,90.017326 103.104523,90.524055 103.154129,91.394455 
	C104.733986,92.114624 106.272400,92.471115 108.125496,92.874580 
	C108.649788,92.954025 108.859398,92.986496 109.066956,93.365265 
	C109.032867,94.403221 109.000832,95.094879 108.503998,95.831505 
	C98.384056,95.610985 88.728912,95.345497 78.604065,95.045074 
	C74.089539,95.007416 70.044739,95.004692 66.132179,94.767166 
	C66.553009,94.318535 66.841591,94.104706 67.581680,93.857452 
	C72.196159,93.827873 76.359138,93.831711 80.886650,93.701904 
	C81.624771,92.900635 81.998352,92.233025 82.588684,91.637421 
	C82.805443,91.709435 83.229202,91.880013 83.183456,92.246216 
	C85.863243,95.136597 87.480125,93.575714 88.864418,90.729568 
	C88.957787,89.951591 89.025993,89.509125 89.309082,88.876190 
	C89.683563,88.137115 89.843170,87.588493 90.298264,86.739914 
	C90.723297,82.646935 91.041771,78.848473 90.932823,75.062325 
	C90.806938,70.687744 90.304474,66.324005 89.894531,61.813377 
	C89.823532,61.671196 89.770386,61.357826 89.826126,60.921623 
	C89.839897,59.903168 89.797928,59.320908 89.772415,58.484200 
	C89.536446,57.818829 89.284004,57.407902 89.143753,56.723679 
	C89.482300,55.910416 89.708656,55.370453 89.935013,54.830486 
	C90.709557,48.348694 94.351593,46.051380 100.870262,48.193710 
	C101.769859,48.489357 102.711205,49.950989 102.857071,50.982571 
	C103.177734,53.250256 103.001762,55.588165 103.046204,58.745056 
	C103.119087,60.126320 103.174294,60.659939 103.164291,61.635174 
	C103.416496,66.737511 103.733902,71.398232 104.051315,76.058952 
	C104.051315,76.058952 103.745338,76.259506 103.275787,76.304260 
	C102.617035,76.661804 102.427834,76.974586 102.238632,77.287369 
z"/>
<path fill="#E8D457" opacity="1.000000" stroke="none" 
	d="
M60.133675,83.997421 
	C60.581158,82.704865 61.028637,81.412300 61.225861,79.945175 
	C61.932384,78.158600 62.889160,76.546600 63.865952,74.635040 
	C65.231575,72.151810 66.577179,69.968124 67.902298,67.437050 
	C68.461281,65.945389 69.040741,64.801117 70.164856,63.397408 
	C73.070152,63.137959 75.430786,63.137959 78.630608,63.137959 
	C75.733521,69.246407 73.206070,74.575485 70.444168,80.133446 
	C67.936668,84.257965 65.663605,88.153603 63.667820,91.574043 
	C62.238552,89.980049 61.251945,88.879738 60.234310,87.406479 
	C60.180080,86.021492 60.156876,85.009460 60.133675,83.997421 
z"/>
<path fill="#91928D" opacity="1.000000" stroke="none" 
	d="
M119.213745,85.270248 
	C121.611618,84.674995 124.425888,84.661667 127.036560,83.925926 
	C129.199112,83.316498 132.051971,82.345772 132.940796,80.660553 
	C134.417984,77.859756 131.279037,77.210693 129.341003,75.962502 
	C126.585327,74.187683 124.383209,71.530693 121.581459,69.859329 
	C120.105904,68.979095 116.807968,68.551056 116.151405,69.372429 
	C113.880859,72.212975 111.477936,71.746994 108.362717,70.667351 
	C107.981506,70.411469 108.007904,69.964882 108.333969,69.925766 
	C109.118347,69.244202 109.576660,68.601753 110.034973,67.959305 
	C111.692886,67.496010 113.526009,67.337074 114.971581,66.504913 
	C117.822716,64.863640 120.209534,65.165001 122.708633,67.159210 
	C125.999825,69.785484 129.667007,71.993301 132.682999,74.890617 
	C134.318024,76.461304 136.118195,79.369705 135.692688,81.164757 
	C135.237930,83.083221 132.433990,85.363876 130.328217,85.763954 
	C126.871803,86.420647 123.151207,85.686905 119.213745,85.270248 
z"/>
<path fill="#73625B" opacity="1.000000" stroke="none" 
	d="
M108.968803,95.786545 
	C109.000832,95.094879 109.032867,94.403221 109.290604,93.361435 
	C109.516296,93.011322 109.965172,93.011429 109.965172,93.011429 
	C111.889816,94.006447 115.654907,92.109268 115.547623,96.216469 
	C115.470230,99.179375 117.330589,103.250053 111.379440,104.064957 
	C110.104477,104.006676 109.586502,103.977325 109.182579,103.671692 
	C109.546585,102.647903 109.796532,101.900406 110.398758,101.124748 
	C111.456688,101.055458 112.162354,101.014320 113.242752,100.932022 
	C115.405663,99.004761 116.098106,97.261894 112.989471,96.008224 
	C112.998528,95.999390 112.986504,96.018944 112.912048,95.840599 
	C112.545975,95.753189 112.254341,95.844116 111.587357,95.938362 
	C110.464264,95.889969 109.716530,95.838257 108.968803,95.786545 
z"/>
<path fill="#68595C" opacity="1.000000" stroke="none" 
	d="
M110.008743,67.511322 
	C109.576660,68.601753 109.118347,69.244202 108.312271,69.559998 
	C107.451180,67.808434 106.937851,66.383537 106.424515,64.958633 
	C106.033913,64.996712 105.643311,65.034782 105.252716,65.072861 
	C105.786690,63.958385 106.320663,62.843914 107.111397,61.193558 
	C105.453217,61.193558 104.341354,61.193558 103.229500,61.193558 
	C103.174294,60.659939 103.119087,60.126320 103.080231,59.190063 
	C109.945923,59.122566 109.945923,59.122566 110.008743,67.511322 
z"/>
<path fill="#EBF1FC" opacity="1.000000" stroke="none" 
	d="
M129.528107,102.990341 
	C130.844742,103.190109 131.706833,103.392624 132.568909,103.595131 
	C132.555817,104.063454 132.542709,104.531776 132.529602,105.000099 
	C129.318497,105.000099 126.107391,105.000099 122.437622,105.008026 
	C121.133278,104.786903 120.287598,104.557854 119.441910,104.328796 
	C119.458885,103.883560 119.475861,103.438332 119.492836,102.993095 
	C122.686401,102.993095 125.879974,102.993095 129.528107,102.990341 
z"/>
<path fill="#805542" opacity="1.000000" stroke="none" 
	d="
M109.068520,103.947975 
	C109.586502,103.977325 110.104477,104.006676 111.008415,104.086777 
	C111.318802,107.452522 111.243233,110.767502 111.076820,114.528343 
	C110.553246,114.993546 110.120522,115.012886 109.273308,114.947723 
	C108.858826,114.863220 108.676338,114.677994 108.758041,114.257347 
	C108.839371,110.610703 108.838982,107.384712 108.895218,104.105087 
	C108.951843,104.051468 109.068520,103.947975 109.068520,103.947975 
z"/>
<path fill="#5E6969" opacity="1.000000" stroke="none" 
	d="
M89.586517,54.823738 
	C89.708656,55.370453 89.482300,55.910416 88.785751,56.744011 
	C87.219910,57.285686 86.124268,57.533733 84.713135,57.817673 
	C83.797897,58.046371 83.198158,58.239182 82.436241,58.122574 
	C81.913658,57.233795 81.553261,56.654434 81.192856,56.075073 
	C82.692871,55.258049 84.192879,54.441029 85.766388,53.284988 
	C86.972595,53.569641 88.105309,54.193317 89.586517,54.823738 
z"/>
<path fill="#68595C" opacity="1.000000" stroke="none" 
	d="
M109.966667,92.546341 
	C109.965172,93.011429 109.516296,93.011322 109.292648,93.015144 
	C108.859398,92.986496 108.649788,92.954025 108.117462,92.562866 
	C106.929024,91.762154 106.063286,91.320129 105.318466,90.648926 
	C105.965172,89.969833 106.490967,89.519913 107.255424,88.809784 
	C107.534332,87.617470 107.574577,86.685364 107.614815,85.753258 
	C108.131958,85.249092 108.649101,84.744926 109.597740,84.349739 
	C110.008881,86.999565 109.988518,89.540413 109.966667,92.546341 
z"/>
<path fill="#ECF2FD" opacity="1.000000" stroke="none" 
	d="
M376.875458,66.121674 
	C376.875458,68.591888 376.875458,71.062111 376.875458,74.059624 
	C367.150635,74.059624 357.574615,74.059624 347.523499,73.555771 
	C347.048401,70.931465 347.048401,68.811005 347.048401,66.121674 
	C357.320038,66.121674 367.097748,66.121674 376.875458,66.121674 
z"/>
<path fill="#FAFBFD" opacity="1.000000" stroke="none" 
	d="
M390.530579,99.868408 
	C389.789062,99.448784 389.356995,99.110565 388.643005,98.743240 
	C387.044312,97.934952 385.650726,96.388153 384.424286,96.510918 
	C379.405701,97.013275 375.403809,95.670425 372.251221,91.216553 
	C373.539307,90.566200 375.096985,89.721748 376.552216,89.871674 
	C383.983490,90.637276 389.318420,87.749809 393.074951,81.131653 
	C393.417694,87.052208 393.461884,93.050682 393.443054,99.519531 
	C392.533356,99.976547 391.686676,99.963188 390.530579,99.868408 
z"/>
<path fill="#6D98ED" opacity="1.000000" stroke="none" 
	d="
M376.935211,65.699684 
	C367.097748,66.121674 357.320038,66.121674 347.048401,66.121674 
	C347.048401,68.811005 347.048401,70.931465 347.062134,73.497063 
	C346.039490,73.113983 344.286865,72.415573 344.108582,71.431824 
	C343.673309,69.030136 343.966644,66.496384 343.966644,63.114391 
	C348.468414,63.114391 352.701843,63.114246 356.935242,63.114433 
	C362.418304,63.114670 367.906708,62.986675 373.380341,63.213947 
	C374.611664,63.265072 375.791473,64.556976 376.935211,65.699684 
z"/>
<path fill="#EBF1FC" opacity="1.000000" stroke="none" 
	d="
M437.725952,66.170883 
	C437.725952,68.618568 437.725952,71.066261 437.725952,74.061264 
	C428.022675,74.061264 418.505798,74.061264 408.515442,73.557373 
	C408.041931,70.827927 408.041931,68.602364 408.041931,66.170883 
	C418.512115,66.170883 428.119049,66.170883 437.725952,66.170883 
z"/>
<path fill="#6D98ED" opacity="1.000000" stroke="none" 
	d="
M437.801025,65.756592 
	C428.119049,66.170883 418.512115,66.170883 408.041931,66.170883 
	C408.041931,68.602364 408.041931,70.827927 408.053345,73.498894 
	C406.999359,73.296776 405.124359,72.762405 405.015167,71.981232 
	C404.635651,69.265793 404.868530,66.464760 404.868530,63.144756 
	C415.607330,63.144756 425.713562,63.101482 435.817383,63.239235 
	C436.513062,63.248718 437.190277,64.609779 437.801025,65.756592 
z"/>
<path fill="#ECF2FD" opacity="1.000000" stroke="none" 
	d="
M315.870331,66.114594 
	C315.870331,68.584930 315.870331,71.055275 315.870331,74.050598 
	C306.146423,74.050598 296.569916,74.050598 286.520111,73.548126 
	C286.046783,70.926300 286.046783,68.806953 286.046783,66.114594 
	C296.320099,66.114594 306.095215,66.114594 315.870331,66.114594 
z"/>
<path fill="#6D98ED" opacity="1.000000" stroke="none" 
	d="
M315.928894,65.694191 
	C306.095215,66.114594 296.320099,66.114594 286.046783,66.114594 
	C286.046783,68.806953 286.046783,70.926300 286.058289,73.490158 
	C285.038177,73.102448 283.294647,72.399040 283.116119,71.412437 
	C282.682068,69.013763 282.974854,66.483543 282.974854,63.122742 
	C287.809235,63.122742 292.374664,63.122593 296.940125,63.122780 
	C302.084381,63.122986 307.234772,62.988224 312.368408,63.221966 
	C313.603333,63.278202 314.782593,64.557152 315.928894,65.694191 
z"/>
<path fill="#EEF4FF" opacity="1.000000" stroke="none" 
	d="
M172.033081,64.232727 
	C179.334824,64.232941 186.141647,64.232941 193.500183,64.232941 
	C193.500183,74.958199 193.500183,85.443962 193.500183,96.235260 
	C184.078308,96.235260 174.643585,96.364059 165.221024,96.084274 
	C163.936493,96.046127 161.664398,94.001106 161.626633,92.828064 
	C161.328018,83.553413 161.460602,74.264870 161.460602,64.232513 
	C165.022247,64.232513 168.280212,64.232513 172.033081,64.232727 
z"/>
<path fill="#806D51" opacity="1.000000" stroke="none" 
	d="
M70.678619,79.904564 
	C73.206070,74.575485 75.733521,69.246407 78.630608,63.137959 
	C75.430786,63.137959 73.070152,63.137959 70.350845,63.138977 
	C71.933838,57.729771 71.933838,57.729771 80.497749,61.166035 
	C80.886215,64.710358 80.861198,67.921791 80.475281,71.019478 
	C79.017525,71.636940 77.610062,72.143829 76.887077,73.145012 
	C75.271507,75.382240 73.997192,77.865891 72.108047,80.160248 
	C71.314369,80.015739 70.996498,79.960152 70.678619,79.904564 
z"/>
<path fill="#482D2B" opacity="1.000000" stroke="none" 
	d="
M80.836189,71.133224 
	C80.861198,67.921791 80.886215,64.710358 80.850708,61.142700 
	C80.838341,59.466743 80.886490,58.147015 81.063751,56.451180 
	C81.553261,56.654434 81.913658,57.233795 82.389099,58.554134 
	C82.460068,70.051880 82.416000,80.808647 82.371933,91.565414 
	C81.998352,92.233025 81.624771,92.900635 80.983360,93.253113 
	C80.755753,85.669731 80.795967,78.401474 80.836189,71.133224 
z"/>
<path fill="#CCC4BA" opacity="1.000000" stroke="none" 
	d="
M58.856205,59.836174 
	C61.189213,58.097565 63.522221,56.358955 65.855225,54.620346 
	C66.217087,55.197201 66.578941,55.774055 66.940796,56.350906 
	C64.582947,57.573666 62.225101,58.796425 59.422508,59.996109 
	C58.977760,59.973034 58.856205,59.836174 58.856205,59.836174 
z"/>
<path fill="#CCC4BA" opacity="1.000000" stroke="none" 
	d="
M59.041336,60.038876 
	C57.406681,61.442970 55.708458,62.781219 54.010231,64.119476 
	C53.660038,63.552441 53.309845,62.985405 52.959652,62.418373 
	C54.682053,61.569073 56.404453,60.719772 58.491531,59.853325 
	C58.856205,59.836174 58.977760,59.973034 59.041336,60.038876 
z"/>
<path fill="#877886" opacity="1.000000" stroke="none" 
	d="
M103.164291,61.635174 
	C104.341354,61.193558 105.453217,61.193558 107.111397,61.193558 
	C106.320663,62.843914 105.786690,63.958385 105.252716,65.072861 
	C105.643311,65.034782 106.033913,64.996712 106.424515,64.958633 
	C106.937851,66.383537 107.451180,67.808434 107.986206,69.599106 
	C108.007904,69.964882 107.981506,70.411469 107.977608,70.634781 
	C107.973709,70.858101 107.695930,71.074066 107.222015,71.187164 
	C106.547028,71.644691 106.345963,71.989113 106.144897,72.333534 
	C105.689117,73.590729 105.233345,74.847916 104.414444,76.082031 
	C103.733902,71.398232 103.416496,66.737511 103.164291,61.635174 
z"/>
<path fill="#A19ABD" opacity="1.000000" stroke="none" 
	d="
M107.596085,85.798401 
	C107.574577,86.685364 107.534332,87.617470 106.878906,88.802185 
	C105.274986,88.960838 104.286240,88.866882 103.297493,88.772934 
	C103.294426,88.147858 103.291367,87.522789 103.741928,86.500107 
	C105.322632,86.048775 106.449715,85.995033 107.576797,85.941299 
	C107.576797,85.941299 107.577347,85.843544 107.596085,85.798401 
z"/>
<path fill="#7E6E7C" opacity="1.000000" stroke="none" 
	d="
M107.772667,85.514847 
	C106.449715,85.995033 105.322632,86.048775 103.787262,86.190613 
	C103.291862,85.741714 103.204750,85.204704 103.114845,84.259781 
	C104.730873,84.264030 106.349709,84.676216 107.772667,85.514847 
z"/>
<path fill="#877886" opacity="1.000000" stroke="none" 
	d="
M101.995758,82.588226 
	C101.874352,82.950607 101.694923,82.974518 101.265671,82.997810 
	C101.015846,82.997192 101.021042,83.043228 101.021042,83.043228 
	C101.063850,82.496735 101.106651,81.950233 101.321342,81.189072 
	C101.641396,81.399521 101.789558,81.824638 101.995758,82.588226 
z"/>
<path fill="#877886" opacity="1.000000" stroke="none" 
	d="
M102.501633,77.236572 
	C102.427834,76.974586 102.617035,76.661804 103.099480,76.353027 
	C103.183365,76.633293 102.973999,76.909538 102.501633,77.236572 
z"/>
<path fill="#91928D" opacity="1.000000" stroke="none" 
	d="
M106.398102,72.192947 
	C106.345963,71.989113 106.547028,71.644691 107.049759,71.222946 
	C107.118050,71.447868 106.884674,71.750107 106.398102,72.192947 
z"/>
<path fill="#B07350" opacity="1.000000" stroke="none" 
	d="
M112.868011,100.973190 
	C112.162354,101.014320 111.456688,101.055458 109.949608,101.081657 
	C106.749794,101.096703 104.351402,101.126671 101.953011,101.156647 
	C87.312576,101.113213 72.672142,101.069778 57.665504,100.691895 
	C57.242359,98.912109 57.185417,97.466766 57.128475,96.021423 
	C57.834820,95.988136 58.541164,95.954849 60.072685,95.935326 
	C66.956497,95.659401 73.015137,95.369713 79.073776,95.080017 
	C88.728912,95.345497 98.384056,95.610985 108.503998,95.831505 
	C109.716530,95.838257 110.464264,95.889969 111.842384,95.973099 
	C112.644028,96.009331 112.815269,96.014137 112.986504,96.018944 
	C112.986504,96.018944 112.998528,95.999390 112.995575,96.421638 
	C112.951096,98.220322 112.909554,99.596756 112.868011,100.973190 
M72.982597,98.446106 
	C84.642723,98.446106 96.302849,98.446106 107.962967,98.446106 
	C107.964882,98.311684 107.966797,98.177269 107.968712,98.042847 
	C96.517532,98.042847 85.066360,98.042847 72.982597,98.446106 
z"/>
<path fill="#C17E56" opacity="1.000000" stroke="none" 
	d="
M61.091240,108.038223 
	C60.785419,103.262238 63.512848,103.832672 66.991982,104.467026 
	C66.991982,106.648628 67.327209,108.957024 66.882484,111.103844 
	C66.546265,112.726898 65.213730,114.143555 64.324600,115.652069 
	C63.249321,114.246078 62.004894,112.931946 61.170403,111.395210 
	C60.755634,110.631416 61.093128,109.459129 61.091240,108.038223 
z"/>
<path fill="#817357" opacity="1.000000" stroke="none" 
	d="
M70.444168,80.133446 
	C70.996498,79.960152 71.314369,80.015739 71.999557,80.512833 
	C70.621300,85.266525 68.875740,89.578705 67.130173,93.890877 
	C66.841591,94.104706 66.553009,94.318535 65.796440,94.615173 
	C63.893211,94.434990 62.457970,94.172005 61.022728,93.909012 
	C60.382244,92.899193 59.741760,91.889366 59.317570,90.405533 
	C59.655163,89.326035 59.776463,88.720543 59.986542,88.027740 
	C60.075329,87.940422 60.265339,87.779419 60.265339,87.779419 
	C61.251945,88.879738 62.238552,89.980049 63.667820,91.574043 
	C65.663605,88.153603 67.936668,84.257965 70.444168,80.133446 
z"/>
<path fill="#805542" opacity="1.000000" stroke="none" 
	d="
M60.781670,94.081924 
	C62.457970,94.172005 63.893211,94.434990 65.664192,94.849968 
	C70.044739,95.004692 74.089539,95.007416 78.604065,95.045082 
	C73.015137,95.369713 66.956497,95.659401 60.425446,95.911934 
	C60.148895,95.334793 60.344757,94.794815 60.781670,94.081924 
z"/>
<path fill="#9F6749" opacity="1.000000" stroke="none" 
	d="
M102.116493,114.078300 
	C102.304398,110.640472 102.492302,107.202652 103.124664,103.415245 
	C103.759697,103.095810 103.950272,103.125946 104.104309,103.596573 
	C104.060059,107.347626 104.052338,110.658195 103.722054,113.977310 
	C102.971832,114.016670 102.544159,114.047485 102.116493,114.078300 
z"/>
<path fill="#805542" opacity="1.000000" stroke="none" 
	d="
M104.140839,103.156090 
	C103.950272,103.125946 103.759697,103.095810 103.281258,103.035034 
	C102.668907,102.573669 102.344414,102.142944 101.986465,101.434433 
	C104.351402,101.126671 106.749794,101.096703 109.597336,101.109818 
	C109.796532,101.900406 109.546585,102.647903 109.182579,103.671692 
	C109.068520,103.947975 108.951843,104.051468 108.549355,104.055641 
	C106.811523,103.758575 105.476181,103.457336 104.140839,103.156090 
z"/>
<path fill="#805542" opacity="1.000000" stroke="none" 
	d="
M56.806473,96.035919 
	C57.185417,97.466766 57.242359,98.912109 57.203983,100.671997 
	C53.699501,99.745964 55.453892,97.852432 56.806473,96.035919 
z"/>
<path fill="#805542" opacity="1.000000" stroke="none" 
	d="
M102.270546,114.399658 
	C102.544159,114.047485 102.971832,114.016670 103.957520,114.240471 
	C105.902473,114.556061 107.289406,114.617027 108.676338,114.677994 
	C108.676338,114.677994 108.858826,114.863220 108.948639,114.958084 
	C106.833839,114.942307 104.629219,114.831657 102.270546,114.399658 
z"/>
<path fill="#817357" opacity="1.000000" stroke="none" 
	d="
M59.797829,84.159492 
	C60.156876,85.009460 60.180080,86.021492 60.234310,87.406479 
	C60.265339,87.779419 60.075329,87.940422 59.705479,88.061752 
	C58.958965,88.221100 58.582298,88.259102 58.205635,88.297112 
	C58.624416,86.971931 59.043201,85.646744 59.797829,84.159492 
z"/>
<path fill="#E8D457" opacity="1.000000" stroke="none" 
	d="
M58.207260,88.570114 
	C58.582298,88.259102 58.958965,88.221100 59.616692,88.149078 
	C59.776463,88.720543 59.655163,89.326035 59.250107,90.103149 
	C58.713863,89.797562 58.461372,89.320343 58.207260,88.570114 
z"/>
<path fill="#D84D60" opacity="1.000000" stroke="none" 
	d="
M100.994278,82.989182 
	C100.560593,85.792839 100.148468,88.604523 99.608658,92.287384 
	C97.972534,92.287384 95.425690,92.287384 93.112762,92.287384 
	C92.781334,88.804382 92.221901,85.591599 92.217079,82.377983 
	C92.202217,72.475418 92.356705,62.571533 92.590683,52.671597 
	C92.610489,51.833496 93.686401,50.343914 94.316605,50.319561 
	C96.476364,50.236107 98.656151,50.670765 100.828300,50.907864 
	C100.835403,51.487663 100.842506,52.067463 100.849609,52.647259 
	C99.608368,53.239056 98.367126,53.830849 98.033905,53.989723 
	C98.995132,55.898216 100.750038,57.803558 100.792999,59.746750 
	C100.960686,67.330544 100.586365,74.926323 100.717308,82.780434 
	C101.021042,83.043228 101.015846,82.997192 100.994278,82.989182 
z"/>
<path fill="#77CBD2" opacity="1.000000" stroke="none" 
	d="
M82.588684,91.637421 
	C82.416000,80.808647 82.460068,70.051880 82.551277,58.863552 
	C83.198158,58.239182 83.797897,58.046371 84.727402,58.174759 
	C85.958305,59.029064 86.859444,59.562176 87.929825,60.355629 
	C88.656174,60.863255 89.213280,61.110542 89.770386,61.357826 
	C89.770386,61.357826 89.823532,61.671196 89.816757,62.282249 
	C89.874245,70.942162 89.938515,78.991020 90.002777,87.039879 
	C89.843170,87.588493 89.683563,88.137115 88.920509,88.836975 
	C87.204292,89.663246 86.091522,90.338264 84.839020,91.235809 
	C84.209259,91.598907 83.719231,91.739456 83.229202,91.880013 
	C83.229202,91.880013 82.805443,91.709435 82.588684,91.637421 
z"/>
<path fill="#BEDFD8" opacity="1.000000" stroke="none" 
	d="
M67.581680,93.857452 
	C68.875740,89.578705 70.621300,85.266525 72.475365,80.601753 
	C73.997192,77.865891 75.271507,75.382240 76.887077,73.145012 
	C77.610062,72.143829 79.017525,71.636940 80.475281,71.019478 
	C80.795967,78.401474 80.755753,85.669731 80.618820,93.386765 
	C76.359138,93.831711 72.196159,93.827873 67.581680,93.857452 
z"/>
<path fill="#575A60" opacity="1.000000" stroke="none" 
	d="
M90.298264,86.739914 
	C89.938515,78.991020 89.874245,70.942162 89.887749,62.424431 
	C90.304474,66.324005 90.806938,70.687744 90.932823,75.062325 
	C91.041771,78.848473 90.723297,82.646935 90.298264,86.739914 
z"/>
<path fill="#6BA4A8" opacity="1.000000" stroke="none" 
	d="
M83.183456,92.246216 
	C83.719231,91.739456 84.209259,91.598907 85.226868,91.242371 
	C86.782715,91.039276 87.810982,91.052170 88.839256,91.065071 
	C87.480125,93.575714 85.863243,95.136597 83.183456,92.246216 
z"/>
<path fill="#6BA4A8" opacity="1.000000" stroke="none" 
	d="
M87.760582,60.095291 
	C86.859444,59.562176 85.958305,59.029064 85.042892,58.138866 
	C86.124268,57.533733 87.219910,57.285686 88.673561,57.017303 
	C89.284004,57.407902 89.536446,57.818829 89.470245,58.566666 
	C88.687935,59.300812 88.224258,59.698051 87.760582,60.095291 
z"/>
<path fill="#877886" opacity="1.000000" stroke="none" 
	d="
M105.197548,90.878105 
	C106.063286,91.320129 106.929024,91.762154 107.802795,92.515892 
	C106.272400,92.471115 104.733986,92.114624 103.500015,91.375999 
	C104.268829,90.955276 104.733185,90.916695 105.197548,90.878105 
z"/>
<path fill="#669093" opacity="1.000000" stroke="none" 
	d="
M88.864418,90.729568 
	C87.810982,91.052170 86.782715,91.039276 85.366600,91.019829 
	C86.091522,90.338264 87.204292,89.663246 88.705627,89.027443 
	C89.025993,89.509125 88.957787,89.951591 88.864418,90.729568 
z"/>
<path fill="#7E6E7C" opacity="1.000000" stroke="none" 
	d="
M105.318466,90.648926 
	C104.733185,90.916695 104.268829,90.955276 103.458588,91.012329 
	C103.104523,90.524055 103.096344,90.017326 103.192833,89.141769 
	C104.286240,88.866882 105.274986,88.960838 106.640244,89.062393 
	C106.490967,89.519913 105.965172,89.969833 105.318466,90.648926 
z"/>
<path fill="#5E6969" opacity="1.000000" stroke="none" 
	d="
M87.929825,60.355629 
	C88.224258,59.698051 88.687935,59.300812 89.453781,58.821114 
	C89.797928,59.320908 89.839897,59.903168 89.826126,60.921623 
	C89.213280,61.110542 88.656174,60.863255 87.929825,60.355629 
z"/>
<path fill="#805542" opacity="1.000000" stroke="none" 
	d="
M113.242752,100.932022 
	C112.909554,99.596756 112.951096,98.220322 112.986519,96.430481 
	C116.098106,97.261894 115.405663,99.004761 113.242752,100.932022 
z"/>
<path fill="#805542" opacity="1.000000" stroke="none" 
	d="
M112.912048,95.840599 
	C112.815269,96.014137 112.644028,96.009331 112.217743,95.969788 
	C112.254341,95.844116 112.545975,95.753189 112.912048,95.840599 
z"/>
<path fill="#CE875B" opacity="1.000000" stroke="none" 
	d="
M108.758041,114.257347 
	C107.289406,114.617027 105.902473,114.556061 104.280075,114.231934 
	C104.052338,110.658195 104.060059,107.347626 104.104309,103.596573 
	C105.476181,103.457336 106.811523,103.758575 108.492737,104.109268 
	C108.838982,107.384712 108.839371,110.610703 108.758041,114.257347 
z"/>
<path fill="#7A4E3C" opacity="1.000000" stroke="none" 
	d="
M73.298889,98.244476 
	C85.066360,98.042847 96.517532,98.042847 107.968712,98.042847 
	C107.966797,98.177269 107.964882,98.311684 107.962967,98.446106 
	C96.302849,98.446106 84.642723,98.446106 73.298889,98.244476 
z"/>
</svg>