<svg version="1.1" id="Layer_1" xmlns="http://www.w3.org/2000/svg" xmlns:xlink="http://www.w3.org/1999/xlink" x="0px" y="0px"
	 width="100%" viewBox="0 0 500 500" enable-background="new 0 0 500 500" xml:space="preserve">
<path fill="#FFFFFF" opacity="1.000000" stroke="none" 
	d="
M224.000000,501.000000 
	C149.333344,501.000000 75.166702,501.000000 1.000040,501.000000 
	C1.000026,334.333405 1.000026,167.666779 1.000013,1.000129 
	C167.666565,1.000086 334.333130,1.000086 500.999756,1.000043 
	C500.999847,167.666534 500.999847,334.333069 500.999939,500.999817 
	C408.833344,501.000000 316.666656,501.000000 224.000000,501.000000 
M456.210052,188.309647 
	C455.737762,187.855392 455.265503,187.401138 454.345978,186.464279 
	C451.228760,182.689346 447.163208,181.507294 442.373993,181.592957 
	C433.058167,181.759598 423.737152,181.621460 414.418427,181.648758 
	C405.256470,181.675598 402.335785,184.015396 399.702728,192.714890 
	C398.140472,191.100754 396.578217,189.486603 394.464539,187.493759 
	C391.218750,183.131485 386.915802,181.380005 381.466248,181.570618 
	C374.315277,181.820724 367.148987,181.631760 359.989288,181.631699 
	C353.398560,181.631638 346.807831,181.631683 339.780975,181.631683 
	C339.780975,186.405518 339.780975,190.537003 339.178284,194.682999 
	C337.362854,192.411514 335.547424,190.140030 333.312622,187.388702 
	C330.217316,183.180084 326.091705,181.481186 320.852570,181.585388 
	C310.915863,181.782990 300.971588,181.562378 291.032196,181.673050 
	C283.476227,181.757172 279.915985,185.033707 278.197906,191.900406 
	C277.232117,188.629898 277.715515,184.523880 272.938751,182.385147 
	C269.445557,182.084595 265.952362,181.784027 261.911346,181.436325 
	C261.911346,189.372986 261.911346,196.421356 261.911346,203.741333 
	C252.142792,203.741333 242.878250,203.741333 233.563385,202.845657 
	C233.511398,198.740295 233.250595,194.623718 233.470230,190.532944 
	C233.663269,186.937210 232.264450,184.674957 228.802689,182.479355 
	C225.310196,182.133987 221.817688,181.788620 217.803421,181.391647 
	C217.803421,186.374619 217.803421,190.496307 217.198486,194.674911 
	C215.373596,192.403931 213.548706,190.132935 211.301697,187.388824 
	C208.529480,183.751724 205.027023,181.566910 200.291672,181.587234 
	C189.651108,181.632919 179.006104,181.430344 168.370880,181.675339 
	C160.782501,181.850128 156.918350,186.091156 156.853104,193.759186 
	C156.769623,203.568420 157.070755,213.386932 156.743622,223.185989 
	C156.529922,229.587372 158.898956,234.081070 164.823624,237.700287 
	C167.896454,238.705597 170.932632,240.416260 174.049286,240.578217 
	C182.018143,240.992371 190.032150,240.476212 198.010605,240.784729 
	C205.999893,241.093674 213.433929,240.825089 216.914261,231.838074 
	C216.998581,231.620316 217.497452,231.563110 217.835648,232.337524 
	C218.566528,233.937332 219.297409,235.537140 220.135849,237.850174 
	C223.483643,242.207657 228.004715,240.494202 232.801880,240.508926 
	C232.801880,234.439102 232.938858,228.670227 232.748352,222.912170 
	C232.641312,219.676895 233.774124,218.519455 237.038467,218.592880 
	C245.334595,218.779449 253.636993,218.687073 262.028198,219.675568 
	C262.034027,224.323700 261.897247,228.979385 262.143219,233.614777 
	C262.206909,234.814957 263.469879,235.951492 264.311584,237.803268 
	C267.884949,241.957291 272.558594,240.514847 276.797058,240.648560 
	C277.569977,238.983627 278.173737,237.683075 279.426575,236.904465 
	C283.415405,237.707474 287.404236,238.510468 292.127380,239.461288 
	C292.127380,231.015182 292.127380,224.087234 292.127380,217.005890 
	C302.534302,217.005890 312.450775,217.005890 323.027527,217.005890 
	C323.027527,222.729279 322.901276,228.190704 323.126404,233.637604 
	C323.175690,234.830154 324.477295,235.970947 325.318024,237.820312 
	C328.898132,241.956573 333.566986,240.510681 337.799164,240.652435 
	C338.570618,238.978683 339.170807,237.676544 340.416809,236.904922 
	C344.388733,237.734558 348.360657,238.564194 353.006256,239.534546 
	C353.006256,231.164047 353.006256,224.259979 353.006256,217.462296 
	C356.990265,215.865646 359.676727,217.198318 362.220612,219.757614 
	C368.056488,225.628906 374.023712,231.369675 380.284332,237.786194 
	C384.081818,243.032761 389.693237,240.326965 394.528503,241.076843 
	C397.976013,241.611511 400.059265,240.321930 401.742523,237.025467 
	C405.582153,237.797531 409.421783,238.569611 414.074249,239.505127 
	C414.074249,231.123688 414.074249,224.095551 414.074249,216.738754 
	C423.613708,216.738754 432.547577,216.605835 441.467438,216.899536 
	C442.641022,216.938187 444.600800,219.078720 444.721741,220.382568 
	C445.133240,224.818390 444.729187,229.324677 444.993195,233.782913 
	C445.061707,234.940018 446.430695,236.020126 447.317291,237.813889 
	C451.032715,242.422028 455.796539,240.394165 460.552338,240.491348 
	C460.552338,225.402298 460.768127,210.928421 460.349701,196.472885 
	C460.276001,193.926956 457.549164,191.457809 455.995819,188.982513 
	C455.995819,188.982513 456.052673,188.971802 456.210052,188.309647 
M57.342266,186.040771 
	C55.846008,187.673035 54.349751,189.305298 52.282379,191.314651 
	C51.258770,192.806320 49.671879,194.178619 49.325371,195.813782 
	C48.532173,199.556870 46.433899,201.657639 43.167515,203.480103 
	C40.677036,204.869644 38.857742,207.462158 35.710003,210.519913 
	C40.017372,210.862823 42.480038,211.058868 44.942703,211.254913 
	C44.283253,211.895248 43.649227,211.995605 43.013000,212.012360 
	C35.525280,212.209641 33.420677,216.042130 36.473625,223.053482 
	C39.403683,229.782623 44.868214,232.497055 51.412632,233.435486 
	C51.653336,234.049866 51.860020,234.348114 51.878487,234.657578 
	C52.647522,247.546448 59.535664,256.146393 71.283890,260.446655 
	C81.871887,264.322205 91.566513,261.732117 99.656120,253.807404 
	C101.561775,251.940598 102.928169,251.859833 105.176659,253.529282 
	C110.285706,257.322662 119.962761,257.311584 124.240883,252.881210 
	C127.769638,249.226837 131.248398,247.814865 136.266800,247.743988 
	C142.019470,247.662781 146.918594,241.900101 146.207825,237.199448 
	C144.157898,237.067642 142.057297,236.932587 139.956696,236.797531 
	C141.065720,236.140442 142.170761,236.011612 143.278366,235.983292 
	C149.128281,235.833679 150.139526,234.379059 148.003357,229.040192 
	C147.390121,227.507507 146.425278,226.083801 146.018860,224.507706 
	C145.453690,222.315933 144.494064,219.817047 145.042221,217.816483 
	C147.676086,208.203598 144.023697,198.417877 135.588379,193.205200 
	C134.161911,192.323685 132.724655,190.863617 132.132004,189.343506 
	C130.521103,185.211731 129.676422,180.771301 127.958145,176.693344 
	C123.945648,167.170532 108.011581,160.326981 97.985878,162.728424 
	C90.315437,164.565689 84.536537,168.908676 78.159241,173.988495 
	C75.589333,174.669693 71.773987,174.531082 70.684250,176.186600 
	C67.480774,181.053284 61.228325,181.417419 57.342266,186.040771 
z"/>
<path fill="#C8ECE5" opacity="1.000000" stroke="none" 
	d="
M79.014091,174.008850 
	C84.536537,168.908676 90.315437,164.565689 97.985878,162.728424 
	C108.011581,160.326981 123.945648,167.170532 127.958145,176.693344 
	C129.676422,180.771301 130.521103,185.211731 132.132004,189.343506 
	C132.724655,190.863617 134.161911,192.323685 135.588379,193.205200 
	C144.023697,198.417877 147.676086,208.203598 145.042221,217.816483 
	C144.494064,219.817047 145.453690,222.315933 146.018860,224.507706 
	C146.425278,226.083801 147.390121,227.507507 148.003357,229.040192 
	C150.139526,234.379059 149.128281,235.833679 143.278366,235.983292 
	C142.170761,236.011612 141.065720,236.140442 139.956696,236.797531 
	C142.057297,236.932587 144.157898,237.067642 146.207825,237.199448 
	C146.918594,241.900101 142.019470,247.662781 136.266800,247.743988 
	C131.248398,247.814865 127.769638,249.226837 124.240883,252.881210 
	C119.962761,257.311584 110.285706,257.322662 105.176659,253.529282 
	C102.928169,251.859833 101.561775,251.940598 99.656120,253.807404 
	C91.566513,261.732117 81.871887,264.322205 71.283890,260.446655 
	C59.535664,256.146393 52.647522,247.546448 51.878487,234.657578 
	C51.860020,234.348114 51.653336,234.049866 51.412632,233.435486 
	C44.868214,232.497055 39.403683,229.782623 36.473625,223.053482 
	C33.420677,216.042130 35.525280,212.209641 43.013000,212.012360 
	C43.649227,211.995605 44.283253,211.895248 44.942703,211.254913 
	C42.480038,211.058868 40.017372,210.862823 35.710003,210.519913 
	C38.857742,207.462158 40.677036,204.869644 43.167515,203.480103 
	C46.433899,201.657639 48.532173,199.556870 49.325371,195.813782 
	C49.671879,194.178619 51.258770,192.806320 52.609634,191.532471 
	C53.336731,197.696198 55.731674,200.005310 61.636097,200.027649 
	C64.455025,200.038315 67.274429,199.924271 70.435875,200.016922 
	C68.713547,204.644913 67.036987,209.361206 64.473038,213.532013 
	C62.008904,217.540421 61.767429,220.487747 65.706398,223.118973 
	C59.740189,224.850235 61.160130,228.771439 62.148090,232.693954 
	C63.720058,232.873978 65.162781,233.039200 67.021172,233.252029 
	C67.021172,235.708649 67.020149,238.009933 67.021362,240.311218 
	C67.025230,247.642441 68.719925,248.714706 76.334656,245.852570 
	C76.334656,241.742920 76.334656,237.501190 76.334656,233.235779 
	C87.090302,233.235779 97.493950,233.235779 108.335648,233.235779 
	C108.335648,235.983032 108.601677,238.480865 108.280220,240.900665 
	C107.612801,245.924698 109.860939,247.532028 114.493217,246.792770 
	C115.600052,246.616119 116.705399,246.430099 118.228653,246.179825 
	C118.228653,242.832275 118.174782,239.693512 118.257919,236.558395 
	C118.286949,235.463455 118.412071,233.557953 118.903343,233.413071 
	C124.333359,231.811874 122.023987,227.758591 122.209358,224.273590 
	C120.386948,224.076797 118.798744,223.905273 117.104515,223.722321 
	C116.964523,221.976440 116.846474,220.504303 116.823456,218.625290 
	C117.116470,217.141754 117.314468,216.065094 117.928238,214.968018 
	C120.883804,214.960236 123.423592,214.972855 126.431831,214.988174 
	C129.887924,214.993393 132.883636,214.859146 135.861053,215.034897 
	C139.192444,215.231537 141.921341,214.461990 142.872452,210.955444 
	C143.805023,207.517212 141.889084,205.403168 139.087021,203.670532 
	C135.760132,201.613358 131.737564,200.805161 129.430374,196.761871 
	C128.715378,195.508881 124.254044,196.190704 121.532318,196.365891 
	C120.029121,196.462646 118.576523,197.345520 117.040359,197.445953 
	C116.888260,194.998260 116.796921,192.978607 116.725578,190.556000 
	C114.591850,189.394333 112.438118,188.635620 109.955299,187.760986 
	C109.955299,185.814713 109.819092,183.670624 109.987534,181.550751 
	C110.234184,178.446518 108.798363,177.375626 105.893738,177.615646 
	C104.580811,177.724136 103.245438,177.714081 101.930717,177.616592 
	C99.057442,177.403503 97.095291,177.976227 97.177109,181.546173 
	C97.196053,182.372467 95.698059,183.233505 94.865189,183.725342 
	C92.897789,181.946777 90.722588,179.104782 89.077728,179.384262 
	C85.392860,180.010330 83.308792,178.576553 80.881912,176.146317 
	C80.028175,175.391678 79.521133,174.700272 79.014091,174.008850 
z"/>
<path fill="#555B68" opacity="1.000000" stroke="none" 
	d="
M339.780975,194.668472 
	C339.780975,190.537003 339.780975,186.405518 339.780975,181.631683 
	C346.807831,181.631683 353.398560,181.631638 359.989288,181.631699 
	C367.148987,181.631760 374.315277,181.820724 381.466248,181.570618 
	C386.915802,181.380005 391.218750,183.131485 394.789795,188.121124 
	C395.219849,194.503738 395.877167,200.317337 395.276978,205.998093 
	C394.654053,211.894516 390.191193,215.156189 384.217255,215.344055 
	C381.177429,215.439621 378.132111,215.360764 374.493561,215.360764 
	C380.056793,222.371872 384.994537,228.781372 394.567841,225.677002 
	C395.128815,227.791382 395.590424,229.196396 395.868134,230.636841 
	C396.983002,236.419159 396.187164,237.410919 390.398285,237.388138 
	C386.911133,237.374420 383.424469,237.242325 379.937592,237.163437 
	C374.023712,231.369675 368.056488,225.628906 362.220612,219.757614 
	C359.676727,217.198318 356.990265,215.865646 353.006256,217.462296 
	C353.006256,224.259979 353.006256,231.164047 353.006256,239.534546 
	C348.360657,238.564194 344.388733,237.734558 340.183105,236.247543 
	C339.893280,221.949600 339.837128,208.309036 339.780975,194.668472 
M353.108734,194.757141 
	C352.951874,197.517166 352.795013,200.277191 352.613617,203.469345 
	C363.326965,203.469345 373.492310,203.469345 383.586792,203.469345 
	C383.586792,200.246063 383.586792,197.215118 383.586792,194.143997 
	C373.338562,194.143997 363.584106,194.143997 353.108734,194.757141 
z"/>
<path fill="#555962" opacity="1.000000" stroke="none" 
	d="
M400.236420,192.900482 
	C402.335785,184.015396 405.256470,181.675598 414.418427,181.648758 
	C423.737152,181.621460 433.058167,181.759598 442.373993,181.592957 
	C447.163208,181.507294 451.228760,182.689346 454.612457,187.035034 
	C455.270172,188.061142 455.661438,188.516464 456.052673,188.971802 
	C456.052673,188.971802 455.995819,188.982513 455.936920,189.433472 
	C455.878021,205.410492 455.878021,220.936569 455.878021,237.135590 
	C452.726288,237.135590 449.964325,237.135590 447.202362,237.135590 
	C446.430695,236.020126 445.061707,234.940018 444.993195,233.782913 
	C444.729187,229.324677 445.133240,224.818390 444.721741,220.382568 
	C444.600800,219.078720 442.641022,216.938187 441.467438,216.899536 
	C432.547577,216.605835 423.613708,216.738754 414.074249,216.738754 
	C414.074249,224.095551 414.074249,231.123688 414.074249,239.505127 
	C409.421783,238.569611 405.582153,237.797531 401.227722,236.555664 
	C400.693146,234.263763 400.673615,232.441650 400.653473,230.619537 
	C400.514526,218.046524 400.375458,205.473495 400.236420,192.900482 
M444.812256,195.956146 
	C443.852692,195.077820 442.907623,193.455383 441.931244,193.436325 
	C432.206451,193.246475 422.476471,193.321182 412.291718,193.321182 
	C412.291718,195.927216 411.903015,198.146576 412.425354,200.125473 
	C412.786621,201.494125 414.377960,203.529510 415.466888,203.559616 
	C425.170319,203.827881 434.884277,203.715805 444.888031,203.715805 
	C444.888031,201.092255 444.888031,198.964828 444.812256,195.956146 
z"/>
<path fill="#555962" opacity="1.000000" stroke="none" 
	d="
M325.202209,237.135559 
	C324.477295,235.970947 323.175690,234.830154 323.126404,233.637604 
	C322.901276,228.190704 323.027527,222.729279 323.027527,217.005890 
	C312.450775,217.005890 302.534302,217.005890 292.127380,217.005890 
	C292.127380,224.087234 292.127380,231.015182 292.127380,239.461288 
	C287.404236,238.510468 283.415405,237.707474 279.193146,236.250305 
	C278.907867,221.238495 278.856018,206.880844 278.804169,192.523209 
	C279.915985,185.033707 283.476227,181.757172 291.032196,181.673050 
	C300.971588,181.562378 310.915863,181.782990 320.852570,181.585388 
	C326.091705,181.481186 330.217316,183.180084 333.537018,188.118317 
	C333.761414,204.733521 333.761414,220.619141 333.761414,237.135559 
	C330.754974,237.135559 327.978577,237.135559 325.202209,237.135559 
M318.329224,203.887619 
	C319.778137,203.802917 321.227051,203.718201 322.602356,203.637787 
	C322.602356,200.089111 322.602356,196.880630 322.602356,193.700806 
	C311.585938,193.700806 301.059875,193.700806 290.492676,193.700806 
	C290.434753,194.917999 290.370331,195.745163 290.359924,196.573013 
	C290.270752,203.670883 290.420624,203.847168 297.406830,203.880569 
	C304.058380,203.912354 310.710175,203.887543 318.329224,203.887619 
z"/>
<path fill="#55585F" opacity="1.000000" stroke="none" 
	d="
M164.470032,237.021500 
	C158.898956,234.081070 156.529922,229.587372 156.743622,223.185989 
	C157.070755,213.386932 156.769623,203.568420 156.853104,193.759186 
	C156.918350,186.091156 160.782501,181.850128 168.370880,181.675339 
	C179.006104,181.430344 189.651108,181.632919 200.291672,181.587234 
	C205.027023,181.566910 208.529480,183.751724 211.524658,188.115967 
	C211.866119,200.788483 212.061478,212.733749 212.076355,224.679245 
	C212.086456,232.787430 207.868912,236.967468 199.824127,237.003540 
	C188.039642,237.056396 176.254745,237.019913 164.470032,237.021500 
M169.808746,224.208176 
	C170.518097,224.752151 171.222336,225.761856 171.937576,225.769699 
	C181.512894,225.874878 191.089752,225.840073 200.595901,225.840073 
	C200.595901,215.058746 200.595901,204.708282 200.595901,193.945190 
	C191.033203,193.945190 181.923553,193.987274 172.814697,193.920700 
	C169.913925,193.899506 169.708115,195.637817 169.719925,197.846405 
	C169.765259,206.317078 169.743668,214.788101 169.808746,224.208176 
z"/>
<path fill="#545556" opacity="1.000000" stroke="none" 
	d="
M264.181976,237.117264 
	C263.469879,235.951492 262.206909,234.814957 262.143219,233.614777 
	C261.897247,228.979385 262.034027,224.323700 262.054016,218.789612 
	C262.383545,215.389496 261.043213,214.843597 258.819550,214.891266 
	C253.841553,214.997955 248.859650,214.922897 243.879333,214.922470 
	C238.978210,214.922043 234.077087,214.922379 228.936829,214.922379 
	C228.936829,219.249908 228.936829,222.724106 228.936829,226.198303 
	C228.936829,229.637695 228.936829,233.077087 228.936829,237.136948 
	C225.589066,237.136948 222.808685,237.136948 220.028290,237.136948 
	C219.297409,235.537140 218.566528,233.937332 217.909607,231.496246 
	C217.923523,218.642639 217.863464,206.630310 217.803421,194.617996 
	C217.803421,190.496307 217.803421,186.374619 217.803421,181.391647 
	C221.817688,181.788620 225.310196,182.133987 228.856049,183.354599 
	C228.909409,190.577026 228.909409,196.924210 228.909409,203.741333 
	C230.809174,203.741333 232.211441,203.741333 233.613708,203.741333 
	C242.878250,203.741333 252.142792,203.741333 261.911346,203.741333 
	C261.911346,196.421356 261.911346,189.372986 261.911346,181.436325 
	C265.952362,181.784027 269.445557,182.084595 273.005310,183.260468 
	C273.071869,201.581177 273.071869,219.026535 273.071869,237.117264 
	C269.748077,237.117264 266.965027,237.117264 264.181976,237.117264 
z"/>
<path fill="#DBE6FB" opacity="1.000000" stroke="none" 
	d="
M399.969574,192.807678 
	C400.375458,205.473495 400.514526,218.046524 400.653473,230.619537 
	C400.673615,232.441650 400.693146,234.263763 400.832611,236.541000 
	C400.059265,240.321930 397.976013,241.611511 394.528503,241.076843 
	C389.693237,240.326965 384.081818,243.032761 380.110962,237.474823 
	C383.424469,237.242325 386.911133,237.374420 390.398285,237.388138 
	C396.187164,237.410919 396.983002,236.419159 395.868134,230.636841 
	C395.590424,229.196396 395.128815,227.791382 394.567841,225.677002 
	C384.994537,228.781372 380.056793,222.371872 374.493561,215.360764 
	C378.132111,215.360764 381.177429,215.439621 384.217255,215.344055 
	C390.191193,215.156189 394.654053,211.894516 395.276978,205.998093 
	C395.877167,200.317337 395.219849,194.503738 395.065491,188.310486 
	C396.578217,189.486603 398.140472,191.100754 399.969574,192.807678 
z"/>
<path fill="#6999F6" opacity="1.000000" stroke="none" 
	d="
M217.500946,194.646454 
	C217.863464,206.630310 217.923523,218.642639 217.893280,231.042969 
	C217.497452,231.563110 216.998581,231.620316 216.914261,231.838074 
	C213.433929,240.825089 205.999893,241.093674 198.010605,240.784729 
	C190.032150,240.476212 182.018143,240.992371 174.049286,240.578217 
	C170.932632,240.416260 167.896454,238.705597 164.646820,237.360901 
	C176.254745,237.019913 188.039642,237.056396 199.824127,237.003540 
	C207.868912,236.967468 212.086456,232.787430 212.076355,224.679245 
	C212.061478,212.733749 211.866119,200.788483 211.735718,188.352539 
	C213.548706,190.132935 215.373596,192.403931 217.500946,194.646454 
z"/>
<path fill="#F4F2E6" opacity="1.000000" stroke="none" 
	d="
M78.586670,173.998672 
	C79.521133,174.700272 80.028175,175.391678 80.845383,176.532639 
	C80.693497,180.975433 81.993904,182.338623 86.288963,181.480774 
	C88.007942,181.137451 90.202164,183.173584 91.811325,184.256882 
	C86.189522,183.900528 88.658539,188.857712 86.547531,190.884491 
	C79.216530,186.825165 79.347816,186.900406 74.990166,194.503494 
	C74.045189,196.152267 71.785767,197.047668 69.676941,198.177765 
	C66.761292,198.041351 64.147049,198.530212 61.881634,197.852707 
	C59.489517,197.137299 55.531170,195.176636 55.614052,193.995529 
	C55.795635,191.407883 58.099506,188.969193 59.492172,186.547073 
	C59.766636,186.671539 58.892876,186.275330 58.019115,185.879135 
	C61.228325,181.417419 67.480774,181.053284 70.684250,176.186600 
	C71.773987,174.531082 75.589333,174.669693 78.586670,173.998672 
M71.112556,185.996277 
	C66.795692,187.310944 62.698040,188.941010 60.041977,192.645294 
	C60.355186,193.117188 60.668392,193.589096 60.981602,194.060989 
	C64.695229,191.421463 68.408852,188.781937 72.723404,186.068939 
	C73.255836,185.824066 73.788277,185.579208 74.320702,185.334335 
	C74.006302,185.001495 73.691902,184.668640 73.377510,184.335785 
	C72.865898,184.843369 72.354279,185.350937 71.112556,185.996277 
z"/>
<path fill="#6999F6" opacity="1.000000" stroke="none" 
	d="
M264.246765,237.460266 
	C266.965027,237.117264 269.748077,237.117264 273.071869,237.117264 
	C273.071869,219.026535 273.071869,201.581177 273.150757,183.709290 
	C277.715515,184.523880 277.232117,188.629898 278.501038,192.211807 
	C278.856018,206.880844 278.907867,221.238495 278.868591,235.989319 
	C278.173737,237.683075 277.569977,238.983627 276.797058,240.648560 
	C272.558594,240.514847 267.884949,241.957291 264.246765,237.460266 
z"/>
<path fill="#6999F6" opacity="1.000000" stroke="none" 
	d="
M325.260132,237.477936 
	C327.978577,237.135559 330.754974,237.135559 333.761414,237.135559 
	C333.761414,220.619141 333.761414,204.733521 333.746704,188.358246 
	C335.547424,190.140030 337.362854,192.411514 339.479614,194.675735 
	C339.837128,208.309036 339.893280,221.949600 339.860199,235.982269 
	C339.170807,237.676544 338.570618,238.978683 337.799164,240.652435 
	C333.566986,240.510681 328.898132,241.956573 325.260132,237.477936 
z"/>
<path fill="#6999F6" opacity="1.000000" stroke="none" 
	d="
M447.259827,237.474731 
	C449.964325,237.135590 452.726288,237.135590 455.878021,237.135590 
	C455.878021,220.936569 455.878021,205.410492 455.962830,189.418823 
	C457.549164,191.457809 460.276001,193.926956 460.349701,196.472885 
	C460.768127,210.928421 460.552338,225.402298 460.552338,240.491348 
	C455.796539,240.394165 451.032715,242.422028 447.259827,237.474731 
z"/>
<path fill="#6999F6" opacity="1.000000" stroke="none" 
	d="
M220.082062,237.493561 
	C222.808685,237.136948 225.589066,237.136948 228.936829,237.136948 
	C228.936829,233.077087 228.936829,229.637695 228.936829,226.198303 
	C228.936829,222.724106 228.936829,219.249908 228.936829,214.922379 
	C234.077087,214.922379 238.978210,214.922043 243.879333,214.922470 
	C248.859650,214.922897 253.841553,214.997955 258.819550,214.891266 
	C261.043213,214.843597 262.383545,215.389496 262.008362,218.305023 
	C253.636993,218.687073 245.334595,218.779449 237.038467,218.592880 
	C233.774124,218.519455 232.641312,219.676895 232.748352,222.912170 
	C232.938858,228.670227 232.801880,234.439102 232.801880,240.508926 
	C228.004715,240.494202 223.483643,242.207657 220.082062,237.493561 
z"/>
<path fill="#6999F6" opacity="1.000000" stroke="none" 
	d="
M233.588547,203.293488 
	C232.211441,203.741333 230.809174,203.741333 228.909409,203.741333 
	C228.909409,196.924210 228.909409,190.577026 228.968750,183.804901 
	C232.264450,184.674957 233.663269,186.937210 233.470230,190.532944 
	C233.250595,194.623718 233.511398,198.740295 233.588547,203.293488 
z"/>
<path fill="#918D87" opacity="1.000000" stroke="none" 
	d="
M57.680691,185.959961 
	C58.892876,186.275330 59.766636,186.671539 59.492172,186.547073 
	C58.099506,188.969193 55.795635,191.407883 55.614052,193.995529 
	C55.531170,195.176636 59.489517,197.137299 61.881634,197.852707 
	C64.147049,198.530212 66.761292,198.041351 69.666504,198.440826 
	C70.105133,199.166382 70.099373,199.516556 70.093613,199.866714 
	C67.274429,199.924271 64.455025,200.038315 61.636097,200.027649 
	C55.731674,200.005310 53.336731,197.696198 52.895195,191.343933 
	C54.349751,189.305298 55.846008,187.673035 57.680691,185.959961 
z"/>
<path fill="#6999F6" opacity="1.000000" stroke="none" 
	d="
M456.131348,188.640717 
	C455.661438,188.516464 455.270172,188.061142 454.836090,187.276337 
	C455.265503,187.401138 455.737762,187.855392 456.131348,188.640717 
z"/>
<path fill="#643D3C" opacity="1.000000" stroke="none" 
	d="
M86.898224,190.833374 
	C88.658539,188.857712 86.189522,183.900528 92.151154,184.279358 
	C93.539177,184.140594 94.218636,184.109573 94.898087,184.078568 
	C95.698059,183.233505 97.196053,182.372467 97.177109,181.546173 
	C97.095291,177.976227 99.057442,177.403503 101.930717,177.616592 
	C103.245438,177.714081 104.580811,177.724136 105.893738,177.615646 
	C108.798363,177.375626 110.234184,178.446518 109.987534,181.550751 
	C109.819092,183.670624 109.955299,185.814713 109.955299,187.760986 
	C112.438118,188.635620 114.591850,189.394333 116.381821,190.564957 
	C115.143761,191.138031 114.269478,191.299194 113.434441,191.453110 
	C113.939735,192.588501 114.316505,193.435089 114.352318,194.212646 
	C112.735680,193.809906 111.459999,193.476227 110.066963,193.111847 
	C110.066963,195.812881 109.797836,198.319687 110.182678,200.721725 
	C110.369713,201.889160 111.779922,202.860626 112.546066,204.282059 
	C111.004257,205.466446 109.552795,206.289581 108.029480,206.642029 
	C107.956245,201.360504 107.929085,196.549484 107.962143,191.738907 
	C107.985832,188.290695 108.816528,184.487534 104.353302,183.944458 
	C105.463158,182.930374 106.581650,181.908401 107.700134,180.886429 
	C106.275177,180.337738 104.806816,179.271286 103.437469,179.386093 
	C102.070335,179.500671 99.869568,180.609238 99.666344,181.612610 
	C99.064117,184.586014 99.071358,187.730103 99.191490,190.793701 
	C99.551315,199.970215 100.387985,209.142914 100.307320,218.310654 
	C100.288757,220.420425 98.362221,222.486633 101.860489,222.718445 
	C104.037956,222.862762 107.450058,224.225296 107.780235,219.618942 
	C106.381905,219.260193 105.128647,218.938675 103.875389,218.617142 
	C109.193565,218.598404 107.575363,214.542038 108.385323,211.961487 
	C109.114555,212.429153 109.566986,212.798019 110.014633,213.611328 
	C109.992821,215.849838 109.897079,217.647354 109.975029,219.437302 
	C110.141098,223.250641 110.609764,223.481293 114.980713,221.923996 
	C114.472244,220.741486 113.999359,219.641724 113.339378,218.106842 
	C114.882423,218.528137 115.805428,218.780151 116.728432,219.032150 
	C116.846474,220.504303 116.964523,221.976440 117.104515,223.722321 
	C118.798744,223.905273 120.386948,224.076797 122.209358,224.273590 
	C122.023987,227.758591 124.333359,231.811874 118.903343,233.413071 
	C118.412071,233.557953 118.286949,235.463455 118.257919,236.558395 
	C118.174782,239.693512 118.228653,242.832275 118.228653,246.179825 
	C116.705399,246.430099 115.600052,246.616119 114.493217,246.792770 
	C109.860939,247.532028 107.612801,245.924698 108.280220,240.900665 
	C108.601677,238.480865 108.335648,235.983032 108.335648,233.235779 
	C97.493950,233.235779 87.090302,233.235779 76.334656,233.235779 
	C76.334656,237.501190 76.334656,241.742920 76.334656,245.852570 
	C68.719925,248.714706 67.025230,247.642441 67.021362,240.311218 
	C67.020149,238.009933 67.021172,235.708649 67.021172,233.252029 
	C65.162781,233.039200 63.720058,232.873978 62.148090,232.693954 
	C61.160130,228.771439 59.740189,224.850235 66.126129,223.126022 
	C68.871376,223.036499 70.829552,223.030258 73.067108,223.363174 
	C76.629623,223.804962 79.926407,223.756424 83.192123,224.051682 
	C86.624443,224.361984 87.897163,223.096680 87.796219,219.607742 
	C87.610474,213.188080 87.784698,206.757996 87.858795,199.886353 
	C87.571861,196.571411 87.235046,193.702393 86.898224,190.833374 
M91.198387,223.167236 
	C93.353447,223.167236 95.508514,223.167236 98.563477,223.167236 
	C97.195656,220.926498 96.613197,219.972336 96.621605,218.421310 
	C96.736237,210.687317 96.789047,202.951660 96.996109,195.220139 
	C97.078125,192.157547 97.205780,189.306442 92.916435,189.040009 
	C93.850708,188.971817 94.784981,188.903625 96.448769,188.874451 
	C96.887901,188.361496 97.327034,187.848541 97.766167,187.335587 
	C97.054230,186.966248 96.342293,186.596893 94.862793,186.262238 
	C90.732140,185.739090 89.243156,187.558441 89.340858,191.680740 
	C89.549591,200.487823 89.336075,209.304321 89.471008,218.114273 
	C89.493996,219.615097 90.389168,221.102570 91.198387,223.167236 
M112.344208,225.043793 
	C96.076569,225.043793 79.808922,225.043793 63.767105,225.043793 
	C63.767105,227.321487 63.767105,228.991318 63.767105,230.971848 
	C80.301903,230.971848 96.777908,231.059067 113.251221,230.886887 
	C116.031433,230.857834 120.901985,232.719177 120.935066,228.130356 
	C120.965790,223.868088 116.194107,225.429153 112.344208,225.043793 
M116.749702,235.799042 
	C116.561630,232.046875 112.126343,232.560883 111.928329,233.176773 
	C110.903000,236.365860 110.639664,239.853851 110.595917,243.243912 
	C110.589668,243.727921 113.269829,244.698822 114.625671,244.572800 
	C115.397141,244.501099 116.346909,242.739258 116.602608,241.600677 
	C116.956680,240.024048 116.733047,238.317657 116.749702,235.799042 
M69.789650,234.802261 
	C69.769257,235.296600 69.594154,235.848801 69.753838,236.275787 
	C70.711639,238.836899 67.345070,242.786774 72.238205,244.077789 
	C72.902489,241.309586 73.968430,238.563736 74.123985,235.767242 
	C74.297600,232.645905 72.450211,232.191544 69.789650,234.802261 
z"/>
<path fill="#F4F2E6" opacity="1.000000" stroke="none" 
	d="
M108.101334,207.112732 
	C109.552795,206.289581 111.004257,205.466446 112.681732,204.071259 
	C112.946609,202.833954 112.985474,202.168701 113.337891,201.314880 
	C113.958458,200.753159 114.265465,200.379990 114.674599,200.097534 
	C114.776726,200.188263 115.001579,200.033066 115.321671,200.008148 
	C116.067596,199.941940 116.493439,199.900650 117.235870,200.056244 
	C119.804405,202.225677 120.795998,200.080475 122.464798,199.111969 
	C123.936295,198.257950 127.613747,198.125366 127.821892,198.654953 
	C129.707443,203.452225 134.776550,203.477509 137.996490,206.102615 
	C139.088028,206.992493 140.383560,208.970673 140.057388,209.933929 
	C139.615189,211.239822 137.840012,212.538528 136.385986,212.946121 
	C134.534454,213.465103 132.393082,212.853439 130.450638,213.175400 
	C128.897552,213.432831 127.454994,214.357162 125.963387,214.985489 
	C123.423592,214.972855 120.883804,214.960236 117.805283,214.576965 
	C114.850838,213.859833 112.435127,213.513367 110.019409,213.166901 
	C109.566986,212.798019 109.114555,212.429153 108.359680,211.565567 
	C108.071930,209.751465 108.086632,208.432098 108.101334,207.112732 
z"/>
<path fill="#545556" opacity="1.000000" stroke="none" 
	d="
M86.547531,190.884491 
	C87.235046,193.702393 87.571861,196.571411 87.506424,199.779053 
	C86.008682,200.882629 84.477669,201.403030 83.888443,202.452286 
	C80.073799,209.245285 76.464394,216.153534 72.787727,223.024017 
	C70.829552,223.030258 68.871376,223.036499 66.493469,223.035690 
	C61.767429,220.487747 62.008904,217.540421 64.473038,213.532013 
	C67.036987,209.361206 68.713547,204.644913 70.435867,200.016922 
	C70.099373,199.516556 70.105133,199.166382 70.121330,198.553146 
	C71.785767,197.047668 74.045189,196.152267 74.990166,194.503494 
	C79.347816,186.900406 79.216530,186.825165 86.547531,190.884491 
M74.946968,199.513596 
	C72.601906,203.878403 70.154015,208.193146 67.986900,212.644592 
	C67.470215,213.705933 67.712761,215.254013 67.927414,216.523911 
	C68.181664,218.027985 68.783745,219.473267 69.234955,220.943680 
	C72.456604,219.650406 79.415932,207.654800 83.501244,195.984222 
	C79.164940,192.378326 76.936226,194.756500 74.946968,199.513596 
z"/>
<path fill="#918D87" opacity="1.000000" stroke="none" 
	d="
M126.431831,214.988174 
	C127.454994,214.357162 128.897552,213.432831 130.450638,213.175400 
	C132.393082,212.853439 134.534454,213.465103 136.385986,212.946121 
	C137.840012,212.538528 139.615189,211.239822 140.057388,209.933929 
	C140.383560,208.970673 139.088028,206.992493 137.996490,206.102615 
	C134.776550,203.477509 129.707443,203.452225 127.821892,198.654953 
	C127.613747,198.125366 123.936295,198.257950 122.464798,199.111969 
	C120.795998,200.080475 119.804405,202.225677 117.271843,199.725983 
	C117.027855,198.757233 117.064484,198.315628 117.101120,197.874008 
	C118.576523,197.345520 120.029121,196.462646 121.532318,196.365891 
	C124.254044,196.190704 128.715378,195.508881 129.430374,196.761871 
	C131.737564,200.805161 135.760132,201.613358 139.087021,203.670532 
	C141.889084,205.403168 143.805023,207.517212 142.872452,210.955444 
	C141.921341,214.461990 139.192444,215.231537 135.861053,215.034897 
	C132.883636,214.859146 129.887924,214.993393 126.431831,214.988174 
z"/>
<path fill="#555B68" opacity="1.000000" stroke="none" 
	d="
M110.014633,213.611328 
	C112.435127,213.513367 114.850838,213.859833 117.389511,214.597351 
	C117.314468,216.065094 117.116470,217.141754 116.823456,218.625290 
	C115.805428,218.780151 114.882423,218.528137 113.339378,218.106842 
	C113.999359,219.641724 114.472244,220.741486 114.980713,221.923996 
	C110.609764,223.481293 110.141098,223.250641 109.975029,219.437302 
	C109.897079,217.647354 109.992821,215.849838 110.014633,213.611328 
z"/>
<path fill="#918D87" opacity="1.000000" stroke="none" 
	d="
M94.865189,183.725342 
	C94.218636,184.109573 93.539177,184.140594 92.519897,184.149124 
	C90.202164,183.173584 88.007942,181.137451 86.288963,181.480774 
	C81.993904,182.338623 80.693497,180.975433 81.192093,176.595856 
	C83.308792,178.576553 85.392860,180.010330 89.077728,179.384262 
	C90.722588,179.104782 92.897789,181.946777 94.865189,183.725342 
z"/>
<path fill="#55585F" opacity="1.000000" stroke="none" 
	d="
M117.040359,197.445953 
	C117.064484,198.315628 117.027855,198.757233 116.955254,199.529114 
	C116.493439,199.900650 116.067596,199.941940 115.148056,199.763367 
	C114.108452,199.267883 113.562538,198.992249 113.548706,198.985260 
	C113.967171,197.265594 114.330223,195.773651 114.693275,194.281693 
	C114.316505,193.435089 113.939735,192.588501 113.434441,191.453110 
	C114.269478,191.299194 115.143761,191.138031 116.361816,190.967926 
	C116.796921,192.978607 116.888260,194.998260 117.040359,197.445953 
z"/>
<path fill="#DBE6FB" opacity="1.000000" stroke="none" 
	d="
M353.469177,194.450562 
	C363.584106,194.143997 373.338562,194.143997 383.586792,194.143997 
	C383.586792,197.215118 383.586792,200.246063 383.586792,203.469345 
	C373.492310,203.469345 363.326965,203.469345 352.613617,203.469345 
	C352.795013,200.277191 352.951874,197.517166 353.469177,194.450562 
z"/>
<path fill="#DBE6FB" opacity="1.000000" stroke="none" 
	d="
M444.850159,196.396774 
	C444.888031,198.964828 444.888031,201.092255 444.888031,203.715805 
	C434.884277,203.715805 425.170319,203.827881 415.466888,203.559616 
	C414.377960,203.529510 412.786621,201.494125 412.425354,200.125473 
	C411.903015,198.146576 412.291718,195.927216 412.291718,193.321182 
	C422.476471,193.321182 432.206451,193.246475 441.931244,193.436325 
	C442.907623,193.455383 443.852692,195.077820 444.850159,196.396774 
z"/>
<path fill="#DBE6FB" opacity="1.000000" stroke="none" 
	d="
M317.845551,203.887619 
	C310.710175,203.887543 304.058380,203.912354 297.406830,203.880569 
	C290.420624,203.847168 290.270752,203.670883 290.359924,196.573013 
	C290.370331,195.745163 290.434753,194.917999 290.492676,193.700806 
	C301.059875,193.700806 311.585938,193.700806 322.602356,193.700806 
	C322.602356,196.880630 322.602356,200.089111 322.602356,203.637787 
	C321.227051,203.718201 319.778137,203.802917 317.845551,203.887619 
z"/>
<path fill="#F1F5FF" opacity="1.000000" stroke="none" 
	d="
M169.777893,223.733582 
	C169.743668,214.788101 169.765259,206.317078 169.719925,197.846405 
	C169.708115,195.637817 169.913925,193.899506 172.814697,193.920700 
	C181.923553,193.987274 191.033203,193.945190 200.595901,193.945190 
	C200.595901,204.708282 200.595901,215.058746 200.595901,225.840073 
	C191.089752,225.840073 181.512894,225.874878 171.937576,225.769699 
	C171.222336,225.761856 170.518097,224.752151 169.777893,223.733582 
z"/>
<path fill="#C8ECE5" opacity="1.000000" stroke="none" 
	d="
M72.122482,186.142395 
	C68.408852,188.781937 64.695229,191.421463 60.981602,194.060989 
	C60.668392,193.589096 60.355186,193.117188 60.041977,192.645294 
	C62.698040,188.941010 66.795692,187.310944 71.550018,185.995941 
	C71.987473,185.995621 72.122482,186.142410 72.122482,186.142395 
z"/>
<path fill="#C8ECE5" opacity="1.000000" stroke="none" 
	d="
M71.915070,185.927063 
	C72.354279,185.350937 72.865898,184.843369 73.377502,184.335785 
	C73.691902,184.668640 74.006302,185.001495 74.320709,185.334335 
	C73.788277,185.579208 73.255836,185.824066 72.422943,186.105682 
	C72.122482,186.142410 71.987473,185.995621 71.915070,185.927063 
z"/>
<path fill="#D74D60" opacity="1.000000" stroke="none" 
	d="
M108.029480,206.642029 
	C108.086632,208.432098 108.071930,209.751465 108.082870,211.466766 
	C107.575363,214.542038 109.193565,218.598404 103.875389,218.617142 
	C105.128647,218.938675 106.381905,219.260193 107.780235,219.618942 
	C107.450058,224.225296 104.037956,222.862762 101.860489,222.718445 
	C98.362221,222.486633 100.288757,220.420425 100.307320,218.310654 
	C100.387985,209.142914 99.551315,199.970215 99.191490,190.793701 
	C99.071358,187.730103 99.064117,184.586014 99.666344,181.612610 
	C99.869568,180.609238 102.070335,179.500671 103.437469,179.386093 
	C104.806816,179.271286 106.275177,180.337738 107.700134,180.886429 
	C106.581650,181.908401 105.463158,182.930374 104.353302,183.944458 
	C108.816528,184.487534 107.985832,188.290695 107.962143,191.738907 
	C107.929085,196.549484 107.956245,201.360504 108.029480,206.642029 
z"/>
<path fill="#BB7A54" opacity="1.000000" stroke="none" 
	d="
M112.820419,225.043854 
	C116.194107,225.429153 120.965790,223.868088 120.935066,228.130356 
	C120.901985,232.719177 116.031433,230.857834 113.251221,230.886887 
	C96.777908,231.059067 80.301903,230.971848 63.767105,230.971848 
	C63.767105,228.991318 63.767105,227.321487 63.767105,225.043793 
	C79.808922,225.043793 96.076569,225.043793 112.820419,225.043854 
M112.949020,228.885345 
	C113.780380,228.716782 114.611732,228.548218 115.443092,228.379669 
	C115.401596,228.173386 115.360100,227.967102 115.318611,227.760818 
	C103.433434,227.760818 91.548264,227.760818 79.663094,227.760818 
	C79.667175,228.136444 79.671265,228.512085 79.675354,228.887711 
	C90.470619,228.887711 101.265877,228.887711 112.949020,228.885345 
z"/>
<path fill="#72BAC0" opacity="1.000000" stroke="none" 
	d="
M95.719254,188.835419 
	C94.784981,188.903625 93.850708,188.971817 92.916435,189.040009 
	C97.205780,189.306442 97.078125,192.157547 96.996109,195.220139 
	C96.789047,202.951660 96.736237,210.687317 95.966385,218.691681 
	C94.408501,219.068726 93.505829,219.175415 91.596008,219.401138 
	C93.456482,220.454483 94.442574,221.012772 95.850037,221.809647 
	C93.797562,222.134567 92.339485,222.365387 90.881409,222.596207 
	C90.389168,221.102570 89.493996,219.615097 89.471008,218.114273 
	C89.336075,209.304321 89.549591,200.487823 89.340858,191.680740 
	C89.243156,187.558441 90.732140,185.739090 95.365494,186.562012 
	C95.818542,187.519669 95.768898,188.177536 95.719254,188.835419 
z"/>
<path fill="#C8ECE5" opacity="1.000000" stroke="none" 
	d="
M73.067108,223.363174 
	C76.464394,216.153534 80.073799,209.245285 83.888443,202.452286 
	C84.477669,201.403030 86.008682,200.882629 87.456528,200.224976 
	C87.784698,206.757996 87.610474,213.188080 87.796219,219.607742 
	C87.897163,223.096680 86.624443,224.361984 83.192123,224.051682 
	C79.926407,223.756424 76.629623,223.804962 73.067108,223.363174 
z"/>
<path fill="#BB7A54" opacity="1.000000" stroke="none" 
	d="
M116.753250,236.232941 
	C116.733047,238.317657 116.956680,240.024048 116.602608,241.600677 
	C116.346909,242.739258 115.397141,244.501099 114.625671,244.572800 
	C113.269829,244.698822 110.589668,243.727921 110.595917,243.243912 
	C110.639664,239.853851 110.903000,236.365860 111.928329,233.176773 
	C112.126343,232.560883 116.561630,232.046875 116.753250,236.232941 
z"/>
<path fill="#BB7A54" opacity="1.000000" stroke="none" 
	d="
M69.900993,234.359222 
	C72.450211,232.191544 74.297600,232.645905 74.123985,235.767242 
	C73.968430,238.563736 72.902489,241.309586 72.238205,244.077789 
	C67.345070,242.786774 70.711639,238.836899 69.753838,236.275787 
	C69.594154,235.848801 69.769257,235.296600 69.900993,234.359222 
z"/>
<path fill="#918D87" opacity="1.000000" stroke="none" 
	d="
M114.352318,194.212646 
	C114.330223,195.773651 113.967171,197.265594 113.548706,198.985260 
	C113.562538,198.992249 114.108452,199.267883 114.827972,199.788284 
	C115.001579,200.033066 114.776726,200.188263 114.310410,200.221405 
	C113.570847,200.670853 113.297592,201.087158 113.024338,201.503464 
	C112.985474,202.168701 112.946609,202.833954 112.772072,203.709991 
	C111.779922,202.860626 110.369713,201.889160 110.182678,200.721725 
	C109.797836,198.319687 110.066963,195.812881 110.066963,193.111847 
	C111.459999,193.476227 112.735680,193.809906 114.352318,194.212646 
z"/>
<path fill="#555962" opacity="1.000000" stroke="none" 
	d="
M91.039902,222.881714 
	C92.339485,222.365387 93.797562,222.134567 95.850037,221.809647 
	C94.442574,221.012772 93.456482,220.454483 91.596008,219.401138 
	C93.505829,219.175415 94.408501,219.068726 95.670952,218.990112 
	C96.613197,219.972336 97.195656,220.926498 98.563477,223.167236 
	C95.508514,223.167236 93.353447,223.167236 91.039902,222.881714 
z"/>
<path fill="#555962" opacity="1.000000" stroke="none" 
	d="
M96.084015,188.854935 
	C95.768898,188.177536 95.818542,187.519669 95.749268,186.544662 
	C96.342293,186.596893 97.054230,186.966248 97.766167,187.335587 
	C97.327034,187.848541 96.887901,188.361496 96.084015,188.854935 
z"/>
<path fill="#55585F" opacity="1.000000" stroke="none" 
	d="
M113.337891,201.314880 
	C113.297592,201.087158 113.570847,200.670853 114.208282,200.130676 
	C114.265465,200.379990 113.958458,200.753159 113.337891,201.314880 
z"/>
<path fill="#EFDB59" opacity="1.000000" stroke="none" 
	d="
M75.133904,199.194855 
	C76.936226,194.756500 79.164940,192.378326 83.502930,195.988998 
	C79.415932,207.654800 72.456604,219.650406 69.234955,220.943680 
	C68.783745,219.473267 68.181664,218.027985 67.927414,216.523911 
	C67.712761,215.254013 67.470215,213.705933 67.986900,212.644592 
	C70.154015,208.193146 72.601906,203.878403 75.133904,199.194855 
z"/>
<path fill="#643D3C" opacity="1.000000" stroke="none" 
	d="
M112.505081,228.886536 
	C101.265877,228.887711 90.470619,228.887711 79.675354,228.887711 
	C79.671265,228.512085 79.667175,228.136444 79.663094,227.760818 
	C91.548264,227.760818 103.433434,227.760818 115.318611,227.760818 
	C115.360100,227.967102 115.401596,228.173386 115.443092,228.379669 
	C114.611732,228.548218 113.780380,228.716782 112.505081,228.886536 
z"/>
</svg>