<svg version="1.1" id="Layer_1" xmlns="http://www.w3.org/2000/svg" xmlns:xlink="http://www.w3.org/1999/xlink" x="0px" y="0px"
	 width="100%" viewBox="0 0 450 171" enable-background="new 0 0 450 171" xml:space="preserve">
<path fill="#FBFCFE" opacity="1.000000" stroke="none" 
	d="
M319.000000,172.000000 
	C212.666702,172.000000 106.833397,172.000000 1.000071,172.000000 
	C1.000047,115.000046 1.000047,58.000095 1.000024,1.000109 
	C150.999908,1.000073 300.999817,1.000073 450.999817,1.000036 
	C450.999878,57.999889 450.999878,114.999779 450.999939,171.999832 
	C407.166656,172.000000 363.333344,172.000000 319.000000,172.000000 
M317.383667,66.799011 
	C315.919098,65.037560 314.454529,63.276112 312.998779,61.501938 
	C312.998779,61.501938 312.984253,61.502377 312.977325,60.792355 
	C312.617462,60.509544 312.257568,60.226734 311.395752,59.497063 
	C308.746002,56.096882 305.269165,54.615242 300.960785,54.647953 
	C290.628204,54.726402 280.293884,54.596992 269.961761,54.700153 
	C263.017578,54.769485 259.963287,57.300369 257.283630,63.731735 
	C256.752502,60.431591 256.093292,57.215633 251.915115,55.221516 
	C248.394989,55.000900 244.874847,54.780285 240.908615,54.531712 
	C240.908615,62.386250 240.908615,69.456306 240.908615,76.631729 
	C231.035645,76.631729 221.594757,76.631729 212.128204,75.742012 
	C212.087692,71.246361 212.428406,66.699310 211.832458,62.278534 
	C211.567505,60.313225 209.413162,58.602623 207.920654,55.929314 
	C204.408386,55.354351 200.896133,54.779388 197.081390,54.154911 
	C197.081390,73.278969 197.081390,91.461845 197.081390,109.954353 
	C200.854294,109.954353 204.395432,109.954353 208.380066,109.954353 
	C208.380066,102.577980 208.380066,95.521240 208.380066,88.496643 
	C219.379486,88.496643 229.932587,88.496643 241.064636,88.496643 
	C241.064636,94.709198 240.953888,100.661880 241.157776,106.603767 
	C241.198730,107.797096 242.435852,108.949371 243.318329,110.793617 
	C246.812592,115.129242 251.567093,113.665588 255.960114,113.777115 
	C256.678680,112.292770 257.297699,111.014053 258.833160,109.985435 
	C262.230042,109.985435 265.626953,109.985435 269.441101,109.985435 
	C269.441101,102.512589 269.441101,95.465134 269.441101,88.500793 
	C280.411011,88.500793 290.948242,88.500793 302.062988,88.500793 
	C302.062988,94.701759 301.953247,100.642021 302.153961,106.571770 
	C302.194946,107.782700 303.401398,108.954193 304.215881,110.846489 
	C305.345642,111.722145 306.367432,112.818916 307.624908,113.433113 
	C311.850128,115.496902 317.421082,113.483566 318.527649,109.941956 
	C318.726624,109.936035 318.925598,109.930115 320.041412,110.001328 
	C323.310577,110.001328 326.579742,110.001328 330.258301,110.001328 
	C330.258301,102.660233 330.258301,95.571129 330.258301,86.675476 
	C334.187561,88.640327 337.511536,89.545105 339.812653,91.597023 
	C346.383911,97.456688 352.539307,103.782661 359.225647,110.565712 
	C364.753571,116.125580 371.647278,113.093460 377.810516,113.918663 
	C378.639832,112.288857 379.283112,111.024605 380.846832,109.987526 
	C384.253693,109.987526 387.660553,109.987526 391.526001,109.987526 
	C391.526001,102.442116 391.526001,95.371933 391.526001,88.439896 
	C402.452423,88.439896 412.906525,88.439896 424.011169,88.439896 
	C424.011169,95.683434 424.011169,102.736542 424.011169,109.894737 
	C428.223114,109.894737 431.776978,109.894737 435.455750,109.894737 
	C435.455750,95.509308 435.497101,81.511581 435.440430,67.514252 
	C435.405762,58.955936 431.173950,54.766388 422.461060,54.691082 
	C412.628601,54.606094 402.794617,54.627556 392.961731,54.683758 
	C383.985199,54.735062 380.433533,58.159477 379.173218,67.329750 
	C377.449554,65.393936 375.725891,63.458118 373.989014,61.507732 
	C373.989014,61.507732 373.981903,61.489353 373.959015,60.792332 
	C373.608337,60.511185 373.257660,60.230038 372.393982,59.512325 
	C369.758606,57.951508 367.160095,55.118309 364.481720,55.040611 
	C349.418274,54.603630 334.335602,54.829872 318.731964,54.829872 
	C318.731964,58.725880 318.731964,62.341480 318.289185,66.229996 
	C318.174805,66.556168 318.060425,66.882339 317.383667,66.799011 
M55.298409,46.066231 
	C54.352119,46.329937 53.132969,47.107674 52.503918,46.773754 
	C48.484612,44.640186 48.244385,47.336296 47.874329,50.106354 
	C47.794910,50.700829 47.385628,51.251236 47.037247,52.023876 
	C40.190956,50.270042 37.084202,56.614273 32.029720,58.791012 
	C31.352236,59.082771 31.293304,60.810841 30.431240,62.339241 
	C27.617037,68.651855 24.070162,74.321167 17.750381,77.815475 
	C16.639774,78.429550 16.013021,79.918716 14.705150,81.587822 
	C18.038506,81.856880 20.480280,82.053970 22.922054,82.251060 
	C22.907225,82.485809 22.892397,82.720566 22.877567,82.955315 
	C20.595755,82.955315 18.313940,82.955315 16.162498,82.955315 
	C11.688202,94.158813 14.172300,98.093864 29.748966,105.005493 
	C30.842813,117.522537 37.979259,125.893547 45.802776,129.738327 
	C57.560131,135.516373 68.264610,133.129898 78.027100,124.696289 
	C79.029594,123.830254 81.682220,123.844391 82.995384,124.537361 
	C90.727760,128.617798 97.410759,127.664719 103.879951,121.880386 
	C105.727150,120.228752 108.727448,119.300903 111.278893,119.110207 
	C118.553795,118.566490 124.219917,114.275276 124.418671,107.988495 
	C121.947044,107.988495 119.486412,107.988495 117.526863,107.425186 
	C119.683723,106.967468 121.840576,106.509750 124.754257,105.894875 
	C127.616302,102.276001 124.752464,99.163689 123.979851,95.808128 
	C123.359352,93.113228 122.547264,90.101463 123.166946,87.558487 
	C124.389885,82.539848 124.172737,78.087105 121.032173,73.185799 
	C118.914055,70.522606 117.315231,66.794235 114.554832,65.448479 
	C110.518913,63.480862 109.870049,60.425896 109.168808,56.901543 
	C104.309410,32.478748 75.638725,27.736931 62.504368,40.835896 
	C60.559887,42.775135 58.177013,44.274796 55.298409,46.066231 
M153.548630,110.292198 
	C162.048355,110.292061 170.548187,110.319984 179.047760,110.283592 
	C186.932144,110.249832 191.722137,106.041534 191.927368,98.251167 
	C192.208176,87.592354 192.170532,76.916809 191.935562,66.255798 
	C191.788971,59.604504 187.098938,54.895737 180.510193,54.765594 
	C169.349045,54.545135 158.177475,54.553692 147.015930,54.764648 
	C140.433121,54.889069 136.155777,59.318398 136.057892,65.928284 
	C135.897491,76.758842 135.906921,87.594879 136.049820,98.425911 
	C136.143616,105.536255 141.017059,110.174232 148.070068,110.286438 
	C149.569641,110.310303 151.069901,110.291359 153.548630,110.292198 
z"/>
<path fill="#C8ECE5" opacity="1.000000" stroke="none" 
	d="
M117.025772,107.988495 
	C119.486412,107.988495 121.947044,107.988495 124.418671,107.988495 
	C124.219917,114.275276 118.553795,118.566490 111.278893,119.110207 
	C108.727448,119.300903 105.727150,120.228752 103.879951,121.880386 
	C97.410759,127.664719 90.727760,128.617798 82.995384,124.537361 
	C81.682220,123.844391 79.029594,123.830254 78.027100,124.696289 
	C68.264610,133.129898 57.560131,135.516373 45.802776,129.738327 
	C37.979259,125.893547 30.842813,117.522537 29.748966,105.005493 
	C14.172300,98.093864 11.688202,94.158813 16.162498,82.955315 
	C18.313940,82.955315 20.595755,82.955315 22.877567,82.955315 
	C22.892397,82.720566 22.907225,82.485809 22.922054,82.251060 
	C20.480280,82.053970 18.038506,81.856880 14.705150,81.587822 
	C16.013021,79.918716 16.639774,78.429550 17.750381,77.815475 
	C24.070162,74.321167 27.617037,68.651855 30.954765,62.341183 
	C31.884106,63.871265 32.289921,65.399406 32.853874,67.207550 
	C33.356571,67.662086 33.701122,67.836624 34.018150,68.010742 
	C33.990623,68.010323 33.997402,67.955681 33.902882,68.352753 
	C35.828503,69.512444 37.792522,70.564354 39.881969,70.969742 
	C43.000828,71.574852 46.208069,71.724419 49.203598,72.386902 
	C46.829395,76.740685 44.881664,80.941971 42.358776,84.763550 
	C39.797058,88.643936 39.884174,91.583023 43.778561,94.020874 
	C43.337982,94.096268 43.169113,94.162125 42.614151,94.168900 
	C37.539963,94.760551 39.360550,98.561363 39.687927,100.739288 
	C39.935349,102.385323 42.427990,103.693878 43.921383,105.152634 
	C45.046703,107.428665 45.266247,110.415489 44.993816,113.356750 
	C44.611824,117.480820 46.836102,117.927521 50.150230,117.916138 
	C53.329849,117.905205 55.286579,117.327026 54.987888,113.537857 
	C54.745472,110.462547 54.938671,107.352905 54.938671,104.373337 
	C65.693726,104.373337 75.733864,104.373337 85.942406,104.373337 
	C85.942406,108.087639 85.649788,111.448235 86.092697,114.708908 
	C86.259666,115.938133 88.008835,117.717018 89.243118,117.907410 
	C95.339020,118.847740 96.235077,117.935600 96.209587,111.819557 
	C96.198799,109.229652 96.066139,106.640244 96.386124,104.080940 
	C102.774361,103.626762 100.334457,99.587448 100.093887,96.417526 
	C100.171089,96.392143 100.211792,96.234779 100.192535,95.812347 
	C98.514885,94.706970 96.856499,94.024017 94.753654,93.158028 
	C95.037605,90.822380 95.340134,88.333885 96.020729,85.917931 
	C98.599945,85.366531 100.801109,84.742592 103.339310,84.097855 
	C104.126152,84.081947 104.575966,84.086830 105.067886,84.498886 
	C107.943726,85.281845 110.772552,85.928429 113.612144,85.979820 
	C120.569435,86.105759 122.767754,82.566292 120.056168,75.862785 
	C120.469963,75.013313 120.766472,74.455551 121.062973,73.897789 
	C124.172737,78.087105 124.389885,82.539848 123.166946,87.558487 
	C122.547264,90.101463 123.359352,93.113228 123.979851,95.808128 
	C124.752464,99.163689 127.616302,102.276001 124.377281,105.579895 
	C123.879555,103.436249 124.160583,101.240181 121.068855,102.841988 
	C120.249649,103.266418 119.105972,103.131912 118.110626,103.137512 
	C113.459023,103.163704 108.807190,103.149124 103.100685,103.149124 
	C107.319298,109.647362 112.525269,107.586159 117.025772,107.988495 
z"/>
<path fill="#020305" opacity="1.000000" stroke="none" 
	d="
M318.731964,65.957077 
	C318.731964,62.341480 318.731964,58.725880 318.731964,54.829872 
	C334.335602,54.829872 349.418274,54.603630 364.481720,55.040611 
	C367.160095,55.118309 369.758606,57.951508 372.700287,60.074493 
	C373.331696,60.920895 373.656799,61.205120 373.981903,61.489349 
	C373.981903,61.489353 373.989014,61.507732 373.947815,62.021957 
	C374.002075,67.022591 374.231567,71.511070 374.162720,75.994957 
	C374.049927,83.343918 369.687164,87.706322 362.358246,87.944633 
	C359.326385,88.043221 356.288605,87.960976 352.079895,87.960976 
	C354.706573,90.381409 356.275665,91.827309 358.014465,93.560104 
	C361.283112,98.070190 365.355957,99.738220 370.608582,99.072548 
	C371.748505,98.928085 373.073090,100.240669 374.237549,101.346329 
	C374.162476,104.424179 374.162476,107.037857 374.162476,109.925209 
	C368.774994,109.925209 363.816650,109.925209 358.858307,109.925209 
	C352.539307,103.782661 346.383911,97.456688 339.812653,91.597023 
	C337.511536,89.545105 334.187561,88.640327 330.258301,86.675476 
	C330.258301,95.571129 330.258301,102.660233 330.258301,110.001328 
	C326.579742,110.001328 323.310577,110.001328 319.524109,109.502243 
	C318.915192,94.654472 318.823578,80.305771 318.731964,65.957077 
M331.807159,66.007736 
	C331.033600,69.339546 330.260071,72.671364 329.355896,76.565857 
	C341.353302,76.565857 352.078033,76.565857 362.668579,76.565857 
	C362.668579,72.941261 362.668579,69.552391 362.668579,65.992325 
	C352.392090,65.992325 342.573578,65.992325 331.807159,66.007736 
z"/>
<path fill="#020304" opacity="1.000000" stroke="none" 
	d="
M379.733307,67.246567 
	C380.433533,58.159477 383.985199,54.735062 392.961731,54.683758 
	C402.794617,54.627556 412.628601,54.606094 422.461060,54.691082 
	C431.173950,54.766388 435.405762,58.955936 435.440430,67.514252 
	C435.497101,81.511581 435.455750,95.509308 435.455750,109.894737 
	C431.776978,109.894737 428.223114,109.894737 424.011169,109.894737 
	C424.011169,102.736542 424.011169,95.683434 424.011169,88.439896 
	C412.906525,88.439896 402.452423,88.439896 391.526001,88.439896 
	C391.526001,95.371933 391.526001,102.442116 391.526001,109.987526 
	C387.660553,109.987526 384.253693,109.987526 380.413422,109.469238 
	C379.899109,107.026993 379.818207,105.103043 379.786621,102.691910 
	C379.803101,95.747101 379.770233,89.289490 379.846558,82.387321 
	C379.881622,77.044037 379.807465,72.145302 379.733307,67.246567 
M424.109589,75.298111 
	C424.109589,72.231743 424.109589,69.165375 424.109589,66.311447 
	C412.523956,66.311447 401.937103,66.311447 391.433594,66.311447 
	C391.433594,69.876785 391.433594,73.109322 391.433594,76.230118 
	C402.489502,76.230118 413.211731,76.230118 424.109589,75.298111 
z"/>
<path fill="#020304" opacity="1.000000" stroke="none" 
	d="
M312.984253,61.502373 
	C312.984253,61.502377 312.998779,61.501938 312.939514,62.014000 
	C312.880249,78.310013 312.880249,94.093964 312.880249,110.143867 
	C309.662170,110.143867 306.866364,110.143867 304.070587,110.143860 
	C303.401398,108.954193 302.194946,107.782700 302.153961,106.571770 
	C301.953247,100.642021 302.062988,94.701759 302.062988,88.500793 
	C290.948242,88.500793 280.411011,88.500793 269.441101,88.500793 
	C269.441101,95.465134 269.441101,102.512589 269.441101,109.985435 
	C265.626953,109.985435 262.230042,109.985435 258.412415,109.418457 
	C257.949432,93.982079 257.907227,79.112686 257.864990,64.243286 
	C259.963287,57.300369 263.017578,54.769485 269.961761,54.700153 
	C280.293884,54.596992 290.628204,54.726402 300.960785,54.647953 
	C305.269165,54.615242 308.746002,56.096882 311.698242,60.068222 
	C312.328613,60.927044 312.656433,61.214706 312.984253,61.502373 
M302.106995,69.002586 
	C301.437317,67.944939 300.785095,65.979202 300.095306,65.965942 
	C289.835510,65.768600 279.570740,65.829659 268.964050,65.829659 
	C268.964050,68.713104 269.115021,71.029602 268.928375,73.318588 
	C268.653320,76.691971 270.259949,77.379082 274.028503,76.793266 
	C283.294281,76.793266 292.560028,76.793266 301.927032,76.793266 
	C301.927032,74.143883 301.927032,71.997368 302.106995,69.002586 
z"/>
<path fill="#040508" opacity="1.000000" stroke="none" 
	d="
M153.059235,110.292168 
	C151.069901,110.291359 149.569641,110.310303 148.070068,110.286438 
	C141.017059,110.174232 136.143616,105.536255 136.049820,98.425911 
	C135.906921,87.594879 135.897491,76.758842 136.057892,65.928284 
	C136.155777,59.318398 140.433121,54.889069 147.015930,54.764648 
	C158.177475,54.553692 169.349045,54.545135 180.510193,54.765594 
	C187.098938,54.895737 191.788971,59.604504 191.935562,66.255798 
	C192.170532,76.916809 192.208176,87.592354 191.927368,98.251167 
	C191.722137,106.041534 186.932144,110.249832 179.047760,110.283592 
	C170.548187,110.319984 162.048355,110.292061 153.059235,110.292168 
M180.314087,95.414871 
	C180.314087,85.693367 180.314087,75.971863 180.314087,66.442986 
	C168.661957,66.442986 158.107178,66.442986 147.635437,66.442986 
	C147.635437,77.351601 147.635437,87.906418 147.635437,98.980293 
	C157.901978,98.980293 167.858734,99.042763 177.811325,98.868362 
	C178.659073,98.853516 179.479172,97.259949 180.314087,95.414871 
z"/>
<path fill="#020203" opacity="1.000000" stroke="none" 
	d="
M243.121460,110.120567 
	C242.435852,108.949371 241.198730,107.797096 241.157776,106.603767 
	C240.953888,100.661880 241.064636,94.709198 241.064636,88.496643 
	C229.932587,88.496643 219.379486,88.496643 208.380066,88.496643 
	C208.380066,95.521240 208.380066,102.577980 208.380066,109.954353 
	C204.395432,109.954353 200.854294,109.954353 197.081390,109.954353 
	C197.081390,91.461845 197.081390,73.278969 197.081390,54.154911 
	C200.896133,54.779388 204.408386,55.354351 207.931122,56.836082 
	C207.947205,62.822285 208.123764,67.909325 207.898285,72.978477 
	C207.748169,76.353355 208.927048,77.516106 212.153870,76.631729 
	C221.594757,76.631729 231.035645,76.631729 240.908615,76.631729 
	C240.908615,69.456306 240.908615,62.386250 240.908615,54.531712 
	C244.874847,54.780285 248.394989,55.000900 252.002609,56.102520 
	C252.090103,74.601089 252.090103,92.218651 252.090103,110.120567 
	C248.704941,110.120567 245.913208,110.120567 243.121460,110.120567 
z"/>
<path fill="#C8EDE7" opacity="1.000000" stroke="none" 
	d="
M121.047577,73.541794 
	C120.766472,74.455551 120.469963,75.013313 119.741592,75.703705 
	C118.212753,75.538376 117.115768,75.240417 115.865158,74.637619 
	C112.482925,71.870689 109.254311,69.408615 105.744362,66.699234 
	C103.868469,66.511612 102.048691,66.090462 100.718094,66.713699 
	C94.749115,69.509476 94.799324,69.616669 93.475739,62.889648 
	C94.892296,57.051228 89.220787,61.387405 88.028671,58.007812 
	C88.028671,57.198689 88.031616,55.549759 88.028000,53.900848 
	C88.022255,51.280651 88.546356,47.877640 84.347771,48.735615 
	C81.027702,49.414066 75.408264,45.505959 74.877304,52.884239 
	C74.828705,53.559464 73.680054,54.155529 73.030914,54.437920 
	C72.010193,53.070904 71.000801,52.054317 69.989059,51.026276 
	C69.986717,51.014824 69.964470,51.007652 69.796761,50.658981 
	C65.116295,49.205101 60.603535,48.099884 56.066978,46.740494 
	C56.027775,46.316822 56.012371,46.147327 55.996964,45.977829 
	C58.177013,44.274796 60.559887,42.775135 62.504368,40.835896 
	C75.638725,27.736931 104.309410,32.478748 109.168808,56.901543 
	C109.870049,60.425896 110.518913,63.480862 114.554832,65.448479 
	C117.315231,66.794235 118.914055,70.522606 121.047577,73.541794 
z"/>
<path fill="#F2F0E3" opacity="1.000000" stroke="none" 
	d="
M55.647686,46.022030 
	C56.012371,46.147327 56.027775,46.316822 56.068878,47.042171 
	C57.646622,48.810528 59.126385,50.136585 60.780140,51.189316 
	C61.653419,51.745220 62.853085,52.131435 63.864647,52.055012 
	C65.912613,51.900295 67.932816,51.378246 69.964470,51.007652 
	C69.964470,51.007652 69.986717,51.014824 69.945618,51.354660 
	C70.240677,52.725315 70.576836,53.756134 70.594719,54.965256 
	C68.895866,55.773804 67.515305,56.404045 66.029961,57.400337 
	C65.901184,58.780956 65.877174,59.795528 65.479797,60.868790 
	C64.144150,60.821926 63.063274,60.964577 62.238815,60.570606 
	C56.800091,57.971699 55.328613,58.769176 53.971596,65.426743 
	C53.861752,65.935120 53.881706,66.222679 53.671539,66.613808 
	C52.816959,67.354149 52.280914,67.984779 51.305347,68.724823 
	C45.243015,68.541382 39.620209,68.248535 33.997402,67.955681 
	C33.997402,67.955681 33.990623,68.010323 33.934944,67.699402 
	C33.484756,67.234840 33.090248,67.081192 32.695736,66.927544 
	C32.289921,65.399406 31.884106,63.871265 31.213112,62.108459 
	C31.293304,60.810841 31.352236,59.082771 32.029720,58.791012 
	C37.084202,56.614273 40.190956,50.270042 47.037247,52.023876 
	C47.385628,51.251236 47.794910,50.700829 47.874329,50.106354 
	C48.244385,47.336296 48.484612,44.640186 52.503918,46.773754 
	C53.132969,47.107674 54.352119,46.329937 55.647686,46.022030 
M38.812134,62.228764 
	C38.584820,62.909946 38.357502,63.591129 37.844479,65.128479 
	C41.982204,62.739319 45.301319,60.822838 48.620430,58.906353 
	C48.363945,58.407646 48.107460,57.908936 47.850975,57.410225 
	C45.034489,58.887257 42.218002,60.364285 38.812134,62.228764 
z"/>
<path fill="#8BADF0" opacity="1.000000" stroke="none" 
	d="
M243.219894,110.457092 
	C245.913208,110.120567 248.704941,110.120567 252.090103,110.120567 
	C252.090103,92.218651 252.090103,74.601089 252.174362,56.535225 
	C256.093292,57.215633 256.752502,60.431591 257.574310,63.987511 
	C257.907227,79.112686 257.949432,93.982079 257.954224,109.293411 
	C257.297699,111.014053 256.678680,112.292770 255.960114,113.777115 
	C251.567093,113.665588 246.812592,115.129242 243.219894,110.457092 
z"/>
<path fill="#86ACF7" opacity="1.000000" stroke="none" 
	d="
M304.143250,110.495178 
	C306.866364,110.143867 309.662170,110.143867 312.880249,110.143867 
	C312.880249,94.093964 312.880249,78.310013 312.935120,62.020363 
	C314.454529,63.276112 315.919098,65.037560 317.645386,67.448883 
	C317.917786,82.012459 317.928497,95.926155 317.939240,109.839851 
	C317.421082,113.483566 311.850128,115.496902 307.624908,113.433113 
	C306.367432,112.818916 305.345642,111.722145 304.143250,110.495178 
z"/>
<path fill="#93B4F5" opacity="1.000000" stroke="none" 
	d="
M379.453247,67.288162 
	C379.807465,72.145302 379.881622,77.044037 379.519379,82.506607 
	C375.700958,90.339600 369.918610,92.864899 362.162720,91.936974 
	C360.796265,91.773499 359.287720,92.797562 357.844788,93.273209 
	C356.275665,91.827309 354.706573,90.381409 352.079895,87.960976 
	C356.288605,87.960976 359.326385,88.043221 362.358246,87.944633 
	C369.687164,87.706322 374.049927,83.343918 374.162720,75.994957 
	C374.231567,71.511070 374.002075,67.022591 373.954407,62.029243 
	C375.725891,63.458118 377.449554,65.393936 379.453247,67.288162 
z"/>
<path fill="#93B4F5" opacity="1.000000" stroke="none" 
	d="
M379.737305,103.179092 
	C379.818207,105.103043 379.899109,107.026993 379.953217,109.355652 
	C379.283112,111.024605 378.639832,112.288857 377.810516,113.918663 
	C371.647278,113.093460 364.753571,116.125580 359.041992,110.245461 
	C363.816650,109.925209 368.774994,109.925209 374.162476,109.925209 
	C374.162476,107.037857 374.162476,104.424179 374.583618,101.343231 
	C376.582275,101.643669 378.159760,102.411377 379.737305,103.179092 
z"/>
<path fill="#D7F2ED" opacity="1.000000" stroke="none" 
	d="
M117.276321,107.706841 
	C112.525269,107.586159 107.319298,109.647362 103.100685,103.149124 
	C108.807190,103.149124 113.459023,103.163704 118.110626,103.137512 
	C119.105972,103.131912 120.249649,103.266418 121.068855,102.841988 
	C124.160583,101.240181 123.879555,103.436249 123.998871,105.658478 
	C121.840576,106.509750 119.683723,106.967468 117.276321,107.706841 
z"/>
<path fill="#8EAEEB" opacity="1.000000" stroke="none" 
	d="
M212.141037,76.186874 
	C208.927048,77.516106 207.748169,76.353355 207.898285,72.978477 
	C208.123764,67.909325 207.947205,62.822285 208.028992,57.259628 
	C209.413162,58.602623 211.567505,60.313225 211.832458,62.278534 
	C212.428406,66.699310 212.087692,71.246361 212.141037,76.186874 
z"/>
<path fill="#C4C4C4" opacity="1.000000" stroke="none" 
	d="
M318.233459,109.890900 
	C317.928497,95.926155 317.917786,82.012459 317.926575,67.653641 
	C318.060425,66.882339 318.174805,66.556168 318.510559,66.093536 
	C318.823578,80.305771 318.915192,94.654472 319.065674,109.463684 
	C318.925598,109.930115 318.726624,109.936035 318.233459,109.890900 
z"/>
<path fill="#93B4F5" opacity="1.000000" stroke="none" 
	d="
M373.970459,61.140839 
	C373.656799,61.205120 373.331696,60.920895 372.956787,60.292778 
	C373.257660,60.230038 373.608337,60.511185 373.970459,61.140839 
z"/>
<path fill="#86ACF7" opacity="1.000000" stroke="none" 
	d="
M312.980774,61.147362 
	C312.656433,61.214706 312.328613,60.927044 311.949219,60.291649 
	C312.257568,60.226734 312.617462,60.509544 312.980774,61.147362 
z"/>
<path fill="#F8F6E9" opacity="1.000000" stroke="none" 
	d="
M105.025780,84.091721 
	C104.575966,84.086830 104.126152,84.081947 103.014999,84.172653 
	C100.187668,84.549370 98.021675,84.830505 95.517265,84.936691 
	C92.781013,84.556541 90.383179,84.351341 87.730194,83.983604 
	C86.984718,83.495148 86.494400,83.169228 85.986450,82.875122 
	C85.968803,82.906929 86.036133,82.933655 86.037430,82.536530 
	C85.196480,78.611359 87.079636,76.948906 90.485931,75.940689 
	C91.815056,74.265495 93.367104,71.329292 93.749580,71.474457 
	C97.686485,72.968781 99.932785,70.611275 102.518463,68.488571 
	C103.136093,67.981522 104.664009,68.583290 105.899307,68.969940 
	C107.483833,74.242989 112.174133,74.895248 116.309189,76.957207 
	C119.512054,81.703941 118.522667,83.841461 113.394257,84.028763 
	C110.607712,84.130539 107.815460,84.075844 105.025780,84.091721 
z"/>
<path fill="#6C4D42" opacity="1.000000" stroke="none" 
	d="
M95.988876,104.050613 
	C96.066139,106.640244 96.198799,109.229652 96.209587,111.819557 
	C96.235077,117.935600 95.339020,118.847740 89.243118,117.907410 
	C88.008835,117.717018 86.259666,115.938133 86.092697,114.708908 
	C85.649788,111.448235 85.942406,108.087639 85.942406,104.373337 
	C75.733864,104.373337 65.693726,104.373337 54.938671,104.373337 
	C54.938671,107.352905 54.745472,110.462547 54.987888,113.537857 
	C55.286579,117.327026 53.329849,117.905205 50.150230,117.916138 
	C46.836102,117.927521 44.611824,117.480820 44.993816,113.356750 
	C45.266247,110.415489 45.046703,107.428665 43.921383,105.152634 
	C42.427990,103.693878 39.935349,102.385323 39.687927,100.739288 
	C39.360550,98.561363 37.539963,94.760551 42.615723,94.492203 
	C43.019127,95.307289 43.034863,95.740005 42.855217,96.491653 
	C41.281635,99.716103 42.006611,101.180946 45.416058,101.207130 
	C62.553986,101.338760 79.691399,101.536507 97.174683,101.766113 
	C97.986832,101.808388 98.453293,101.795586 98.786331,102.081757 
	C97.764900,102.937355 96.876892,103.493980 95.988876,104.050613 
M49.588745,115.795837 
	C52.488510,114.728195 54.499825,109.039574 52.604218,105.651413 
	C51.958344,104.497002 49.411812,104.405968 47.733742,103.829048 
	C47.292702,104.261818 46.851658,104.694588 46.410618,105.127357 
	C47.199062,108.634026 47.987511,112.140701 49.588745,115.795837 
M88.105034,109.521187 
	C88.482384,111.218483 88.686691,112.994942 89.394051,114.541275 
	C89.523804,114.824928 92.725365,114.287163 92.764061,113.936157 
	C93.067734,111.182091 93.074486,108.367905 92.789581,105.611855 
	C92.754936,105.276695 90.065742,104.607750 89.293907,105.122917 
	C88.472923,105.670906 88.469566,107.443863 88.105034,109.521187 
z"/>
<path fill="#76664E" opacity="1.000000" stroke="none" 
	d="
M44.050274,94.011337 
	C39.884174,91.583023 39.797058,88.643936 42.358776,84.763550 
	C44.881664,80.941971 46.829395,76.740685 49.491035,72.361717 
	C50.623180,71.654663 51.293781,71.291908 51.971600,71.296661 
	C50.375950,74.718460 49.036655,77.953384 47.100090,80.778976 
	C44.928661,83.947227 44.040096,86.749611 47.726639,89.608147 
	C46.256733,89.923058 45.363255,90.114479 44.349594,90.331642 
	C45.402885,91.677116 46.276608,92.793198 46.762962,93.941742 
	C45.600487,93.986580 44.825382,93.998962 44.050274,94.011337 
z"/>
<path fill="#604A4F" opacity="1.000000" stroke="none" 
	d="
M87.985352,84.146149 
	C90.383179,84.351341 92.781013,84.556541 95.436539,85.111938 
	C95.694237,85.462151 95.642670,85.845383 95.642670,85.845383 
	C95.340134,88.333885 95.037605,90.822380 94.753654,93.158028 
	C96.856499,94.024017 98.514885,94.706970 99.899948,95.763931 
	C99.430473,96.119049 99.234337,96.100143 98.828575,95.804268 
	C97.398819,95.697395 96.178673,95.867493 94.594299,96.070862 
	C93.499603,96.081810 92.769142,96.059494 91.869980,95.786575 
	C91.141495,95.355392 90.581718,95.174820 90.010361,94.620827 
	C89.327629,90.880325 88.656487,87.513237 87.985352,84.146149 
z"/>
<path fill="#9C948D" opacity="1.000000" stroke="none" 
	d="
M105.067886,84.498886 
	C107.815460,84.075844 110.607712,84.130539 113.394257,84.028763 
	C118.522667,83.841461 119.512054,81.703941 116.310150,76.663589 
	C116.003654,75.730919 116.011223,75.336693 116.018791,74.942467 
	C117.115768,75.240417 118.212753,75.538376 119.624306,75.995407 
	C122.767754,82.566292 120.569435,86.105759 113.612144,85.979820 
	C110.772552,85.928429 107.943726,85.281845 105.067886,84.498886 
z"/>
<path fill="#6B4C42" opacity="1.000000" stroke="none" 
	d="
M43.778561,94.020874 
	C44.825382,93.998962 45.600487,93.986580 47.060589,93.963509 
	C48.457165,93.646683 49.168747,93.340553 50.145683,93.381874 
	C55.565331,93.757172 60.719627,93.785011 66.049866,94.087479 
	C66.822716,94.576172 67.419640,94.790253 68.421021,95.004417 
	C70.547127,95.351219 72.268768,95.697937 73.523911,96.083115 
	C63.055145,96.138618 53.052876,96.155670 43.050598,96.172714 
	C43.034863,95.740005 43.019127,95.307289 43.001816,94.551285 
	C43.169113,94.162125 43.337982,94.096268 43.778561,94.020874 
z"/>
<path fill="#817570" opacity="1.000000" stroke="none" 
	d="
M51.964382,70.929146 
	C51.293781,71.291908 50.623180,71.654663 49.665146,72.042603 
	C46.208069,71.724419 43.000828,71.574852 39.881969,70.969742 
	C37.792522,70.564354 35.828503,69.512444 33.902882,68.352753 
	C39.620209,68.248535 45.243015,68.541382 51.389355,69.165848 
	C51.967381,69.791512 52.021870,70.085564 52.081482,70.523743 
	C52.086605,70.667877 51.964382,70.929146 51.964382,70.929146 
z"/>
<path fill="#A36A4B" opacity="1.000000" stroke="none" 
	d="
M99.038193,96.081253 
	C99.234337,96.100143 99.430473,96.119049 99.919205,96.186363 
	C100.211792,96.234779 100.171089,96.392143 100.131508,96.831802 
	C99.701202,98.775230 99.310478,100.279007 98.919746,101.782784 
	C98.453293,101.795586 97.986832,101.808388 97.235291,101.391464 
	C96.919785,99.407394 96.889366,97.853050 97.216629,96.220215 
	C98.062271,96.121552 98.550232,96.101402 99.038193,96.081253 
z"/>
<path fill="#C3DFD7" opacity="1.000000" stroke="none" 
	d="
M96.020729,85.917931 
	C95.642670,85.845383 95.694237,85.462151 95.774963,85.286896 
	C98.021675,84.830505 100.187668,84.549370 102.677963,84.193443 
	C100.801109,84.742592 98.599945,85.366531 96.020729,85.917931 
z"/>
<path fill="#604A4F" opacity="1.000000" stroke="none" 
	d="
M98.786331,102.081757 
	C99.310478,100.279007 99.701202,98.775230 100.054306,96.857178 
	C100.334457,99.587448 102.774361,103.626762 96.386124,104.080940 
	C96.876892,103.493980 97.764900,102.937355 98.786331,102.081757 
z"/>
<path fill="#817570" opacity="1.000000" stroke="none" 
	d="
M32.853874,67.207550 
	C33.090248,67.081192 33.484756,67.234840 33.962471,67.699829 
	C33.701122,67.836624 33.356571,67.662086 32.853874,67.207550 
z"/>
<path fill="#C7D8F9" opacity="1.000000" stroke="none" 
	d="
M332.281128,66.000031 
	C342.573578,65.992325 352.392090,65.992325 362.668579,65.992325 
	C362.668579,69.552391 362.668579,72.941261 362.668579,76.565857 
	C352.078033,76.565857 341.353302,76.565857 329.355896,76.565857 
	C330.260071,72.671364 331.033600,69.339546 332.281128,66.000031 
z"/>
<path fill="#FCFDFE" opacity="1.000000" stroke="none" 
	d="
M379.786621,102.691902 
	C378.159760,102.411377 376.582275,101.643669 374.658691,100.879059 
	C373.073090,100.240669 371.748505,98.928085 370.608582,99.072548 
	C365.355957,99.738220 361.283112,98.070190 358.014465,93.560104 
	C359.287720,92.797562 360.796265,91.773499 362.162720,91.936974 
	C369.918610,92.864899 375.700958,90.339600 379.410156,82.951157 
	C379.770233,89.289490 379.803101,95.747101 379.786621,102.691902 
z"/>
<path fill="#C7D8F9" opacity="1.000000" stroke="none" 
	d="
M424.021790,75.764114 
	C413.211731,76.230118 402.489502,76.230118 391.433594,76.230118 
	C391.433594,73.109322 391.433594,69.876785 391.433594,66.311447 
	C401.937103,66.311447 412.523956,66.311447 424.109589,66.311447 
	C424.109589,69.165375 424.109589,72.231743 424.021790,75.764114 
z"/>
<path fill="#F6F9FF" opacity="1.000000" stroke="none" 
	d="
M301.927032,69.850861 
	C301.927032,71.997368 301.927032,74.143883 301.927032,76.793266 
	C292.560028,76.793266 283.294281,76.793266 273.568542,76.285736 
	C272.014038,70.818810 274.148010,69.410522 278.958862,69.651382 
	C286.599091,70.033913 294.269440,69.815224 301.927032,69.850861 
z"/>
<path fill="#8AADF2" opacity="1.000000" stroke="none" 
	d="
M302.017029,69.426727 
	C294.269440,69.815224 286.599091,70.033913 278.958862,69.651382 
	C274.148010,69.410522 272.014038,70.818810 273.114136,76.203430 
	C270.259949,77.379082 268.653320,76.691971 268.928375,73.318588 
	C269.115021,71.029602 268.964050,68.713104 268.964050,65.829659 
	C279.570740,65.829659 289.835510,65.768600 300.095306,65.965942 
	C300.785095,65.979202 301.437317,67.944939 302.017029,69.426727 
z"/>
<path fill="#E1EBFE" opacity="1.000000" stroke="none" 
	d="
M180.313110,95.907318 
	C179.479172,97.259949 178.659073,98.853516 177.811325,98.868362 
	C167.858734,99.042763 157.901978,98.980293 147.635437,98.980293 
	C147.635437,87.906418 147.635437,77.351601 147.635437,66.442986 
	C158.107178,66.442986 168.661957,66.442986 180.314087,66.442986 
	C180.314087,75.971863 180.314087,85.693367 180.313110,95.907318 
z"/>
<path fill="#673D3F" opacity="1.000000" stroke="none" 
	d="
M73.990410,96.044647 
	C72.268768,95.697937 70.547127,95.351219 68.444702,94.669235 
	C68.088570,94.111359 68.113235,93.888748 68.524643,93.692047 
	C70.695091,93.572525 72.478806,93.427086 75.467682,93.183380 
	C73.057442,91.978378 71.951126,91.425285 72.046204,91.472816 
	C73.169312,89.195587 74.766983,87.387749 74.861603,85.504402 
	C75.187096,79.025780 74.826073,72.515083 75.054489,66.028145 
	C75.169853,62.751926 74.693588,60.485332 69.363243,60.956131 
	C72.013634,59.974022 73.251701,59.515251 74.489769,59.056480 
	C74.413300,58.600212 74.336838,58.143940 74.260368,57.687672 
	C71.975266,57.963070 69.690155,58.238472 67.242081,58.226929 
	C66.764320,57.638088 66.449532,57.336189 66.134735,57.034290 
	C67.515305,56.404045 68.895866,55.773804 70.948746,55.014481 
	C72.094772,54.853054 72.568504,54.820705 73.042229,54.788357 
	C73.680054,54.155529 74.828705,53.559464 74.877304,52.884239 
	C75.408264,45.505959 81.027702,49.414066 84.347771,48.735615 
	C88.546356,47.877640 88.022255,51.280651 88.028000,53.900848 
	C88.031616,55.549759 88.028671,57.198689 88.028671,58.007812 
	C89.220787,61.387405 94.892296,57.051228 93.080109,62.871513 
	C91.102348,62.908699 89.836693,62.707191 87.082031,62.268620 
	C88.209724,67.330002 89.187828,71.720009 90.165939,76.110016 
	C87.079636,76.948906 85.196480,78.611359 85.713959,82.310089 
	C85.575119,75.886391 85.780693,69.292480 85.938950,62.697426 
	C86.022087,59.232868 86.911667,55.289375 80.519493,55.084530 
	C83.030289,54.155617 84.416061,53.642925 85.801842,53.130230 
	C85.757805,52.573059 85.713768,52.015884 85.669731,51.458714 
	C83.217720,51.296181 80.765709,51.133644 78.522110,50.984924 
	C78.522110,65.477554 78.522110,79.055237 78.522110,93.293388 
	C80.812035,93.014503 82.972244,92.751419 85.132454,92.488327 
	C85.151169,92.043350 85.169884,91.598381 85.188599,91.153404 
	C84.088554,90.579582 82.988503,90.005760 80.404640,88.657936 
	C87.285431,89.611130 85.584961,85.566170 86.004089,82.843307 
	C86.494400,83.169228 86.984718,83.495148 87.730194,83.983612 
	C88.656487,87.513237 89.327629,90.880325 90.003624,94.883194 
	C90.008789,95.693886 90.009109,95.868813 89.542786,96.075722 
	C84.047562,96.086685 79.018982,96.065666 73.990410,96.044647 
z"/>
<path fill="#8A8089" opacity="1.000000" stroke="none" 
	d="
M90.485931,75.940689 
	C89.187828,71.720009 88.209724,67.330002 87.082031,62.268620 
	C89.836693,62.707191 91.102348,62.908699 92.763634,63.128338 
	C94.799324,69.616669 94.749115,69.509476 100.718094,66.713699 
	C102.048691,66.090462 103.868469,66.511612 105.691086,67.132843 
	C105.870522,68.100868 105.821892,68.387970 105.773254,68.675064 
	C104.664009,68.583290 103.136093,67.981522 102.518463,68.488571 
	C99.932785,70.611275 97.686485,72.968781 93.749580,71.474457 
	C93.367104,71.329292 91.815056,74.265495 90.485931,75.940689 
z"/>
<path fill="#96948E" opacity="1.000000" stroke="none" 
	d="
M105.899307,68.969940 
	C105.821892,68.387970 105.870522,68.100868 105.972427,67.380157 
	C109.254311,69.408615 112.482925,71.870689 115.865158,74.637619 
	C116.011223,75.336693 116.003654,75.730919 115.995132,76.418762 
	C112.174133,74.895248 107.483833,74.242989 105.899307,68.969940 
z"/>
<path fill="#B7D4CE" opacity="1.000000" stroke="none" 
	d="
M69.796761,50.658981 
	C67.932816,51.378246 65.912613,51.900295 63.864647,52.055012 
	C62.853085,52.131435 61.653419,51.745220 60.780140,51.189316 
	C59.126385,50.136585 57.646622,48.810528 56.092674,47.296349 
	C60.603535,48.099884 65.116295,49.205101 69.796761,50.658981 
z"/>
<path fill="#B7D4CE" opacity="1.000000" stroke="none" 
	d="
M73.030914,54.437920 
	C72.568504,54.820705 72.094772,54.853054 71.267029,54.836178 
	C70.576836,53.756134 70.240677,52.725315 69.947968,51.366116 
	C71.000801,52.054317 72.010193,53.070904 73.030914,54.437920 
z"/>
<path fill="#EAD658" opacity="1.000000" stroke="none" 
	d="
M51.971600,71.296661 
	C51.964382,70.929146 52.086605,70.667877 52.384377,70.305237 
	C53.118126,68.796432 53.554104,67.650269 53.990082,66.504097 
	C53.881706,66.222679 53.861752,65.935120 54.310684,65.402863 
	C55.754066,64.820534 56.816978,64.476768 57.978722,64.332214 
	C58.315136,64.488373 58.552711,64.445335 58.790291,64.402290 
	C58.602219,64.194214 58.414146,63.986130 58.239376,63.450569 
	C59.748489,61.219788 59.748489,61.219788 63.709000,64.555779 
	C63.001347,66.303940 62.273613,68.101700 61.294453,70.091888 
	C59.025059,74.702255 57.007095,79.120209 54.796776,83.793884 
	C53.029720,87.044540 51.455025,90.039482 49.880333,93.034424 
	C49.168747,93.340553 48.457165,93.646683 47.447952,93.931046 
	C46.276608,92.793198 45.402885,91.677116 44.349594,90.331642 
	C45.363255,90.114479 46.256733,89.923058 47.726639,89.608147 
	C44.040096,86.749611 44.928661,83.947227 47.100090,80.778976 
	C49.036655,77.953384 50.375950,74.718460 51.971600,71.296661 
z"/>
<path fill="#7A634B" opacity="1.000000" stroke="none" 
	d="
M57.879890,64.133003 
	C56.816978,64.476768 55.754066,64.820534 54.352066,65.188179 
	C55.328613,58.769176 56.800091,57.971699 62.238815,60.570606 
	C63.063274,60.964577 64.144150,60.821926 65.500107,61.247726 
	C65.566704,64.414131 65.239624,67.260300 64.626877,70.074196 
	C63.958096,70.058617 63.574993,70.075317 62.780716,70.041061 
	C62.094990,69.959885 61.820438,69.929672 61.545883,69.899460 
	C62.273613,68.101700 63.001347,66.303940 63.709000,64.555779 
	C59.748489,61.219788 59.748489,61.219788 58.151993,63.538494 
	C58.051311,63.953892 57.879890,64.133003 57.879890,64.133003 
z"/>
<path fill="#4B312F" opacity="1.000000" stroke="none" 
	d="
M64.912544,70.106468 
	C65.239624,67.260300 65.566704,64.414131 65.873474,61.189030 
	C65.877174,59.795528 65.901184,58.780956 66.029961,57.400337 
	C66.449532,57.336189 66.764320,57.638088 67.246460,58.650944 
	C67.408867,65.190521 67.306015,71.021172 67.427063,76.847176 
	C67.543594,82.455994 67.891602,88.060005 68.137909,93.666130 
	C68.113235,93.888748 68.088570,94.111359 68.040237,94.669159 
	C67.419640,94.790253 66.822716,94.576172 66.054581,93.631073 
	C65.884171,90.448433 65.986092,87.991798 65.864799,85.546219 
	C65.609390,80.396561 65.236954,75.252708 64.912544,70.106468 
z"/>
<path fill="#C6BDB3" opacity="1.000000" stroke="none" 
	d="
M39.106827,62.035038 
	C42.218002,60.364285 45.034489,58.887257 47.850975,57.410225 
	C48.107460,57.908936 48.363945,58.407646 48.620430,58.906353 
	C45.301319,60.822838 41.982204,62.739319 37.844479,65.128479 
	C38.357502,63.591129 38.584820,62.909946 39.106827,62.035038 
z"/>
<path fill="#76664E" opacity="1.000000" stroke="none" 
	d="
M53.671539,66.613808 
	C53.554104,67.650269 53.118126,68.796432 52.379253,70.161110 
	C52.021870,70.085564 51.967381,69.791512 51.828880,69.056435 
	C52.280914,67.984779 52.816959,67.354149 53.671539,66.613808 
z"/>
<path fill="#CE875B" opacity="1.000000" stroke="none" 
	d="
M73.523911,96.083107 
	C79.018982,96.065666 84.047562,96.086685 89.880035,96.111374 
	C91.135521,96.089088 91.587105,96.063133 92.038689,96.037178 
	C92.769142,96.059494 93.499603,96.081810 94.911850,96.115570 
	C96.015411,96.184250 96.437180,96.241478 96.858940,96.298714 
	C96.889366,97.853050 96.919785,99.407394 96.889603,101.336380 
	C79.691399,101.536507 62.553986,101.338760 45.416058,101.207130 
	C42.006611,101.180946 41.281635,99.716103 42.855217,96.491653 
	C53.052876,96.155670 63.055145,96.138618 73.523911,96.083107 
M77.498299,100.002090 
	C83.112831,100.002090 88.727364,100.002090 94.341904,100.002090 
	C94.320435,99.562080 94.298973,99.122078 94.277512,98.682068 
	C81.752777,98.682068 69.228043,98.682068 56.703312,98.682068 
	C56.703293,99.122078 56.703270,99.562080 56.703251,100.002090 
	C63.301949,100.002090 69.900642,100.002090 77.498299,100.002090 
z"/>
<path fill="#C38057" opacity="1.000000" stroke="none" 
	d="
M49.182350,115.721603 
	C47.987511,112.140701 47.199062,108.634026 46.410618,105.127357 
	C46.851658,104.694588 47.292702,104.261818 47.733742,103.829048 
	C49.411812,104.405968 51.958344,104.497002 52.604218,105.651413 
	C54.499825,109.039574 52.488510,114.728195 49.182350,115.721603 
z"/>
<path fill="#CB855A" opacity="1.000000" stroke="none" 
	d="
M88.107117,109.101562 
	C88.469566,107.443863 88.472923,105.670906 89.293907,105.122917 
	C90.065742,104.607750 92.754936,105.276695 92.789581,105.611855 
	C93.074486,108.367905 93.067734,111.182091 92.764061,113.936157 
	C92.725365,114.287163 89.523804,114.824928 89.394051,114.541275 
	C88.686691,112.994942 88.482384,111.218483 88.107117,109.101562 
z"/>
<path fill="#6B4C42" opacity="1.000000" stroke="none" 
	d="
M97.216629,96.220215 
	C96.437180,96.241478 96.015411,96.184250 95.276093,96.082306 
	C96.178673,95.867493 97.398819,95.697395 98.828575,95.804276 
	C98.550232,96.101402 98.062271,96.121552 97.216629,96.220215 
z"/>
<path fill="#6B4C42" opacity="1.000000" stroke="none" 
	d="
M91.869980,95.786575 
	C91.587105,96.063133 91.135521,96.089088 90.346680,96.079391 
	C90.009109,95.868813 90.008789,95.693886 90.015213,95.256607 
	C90.581718,95.174820 91.141495,95.355392 91.869980,95.786575 
z"/>
<path fill="#BFE1DB" opacity="1.000000" stroke="none" 
	d="
M64.626877,70.074196 
	C65.236954,75.252708 65.609390,80.396561 65.864799,85.546219 
	C65.986092,87.991798 65.884171,90.448433 65.878647,93.356461 
	C60.719627,93.785011 55.565331,93.757172 50.145683,93.381874 
	C51.455025,90.039482 53.029720,87.044540 55.150764,83.667419 
	C58.195370,78.887489 60.693626,74.489746 63.191887,70.092010 
	C63.574993,70.075317 63.958096,70.058617 64.626877,70.074196 
z"/>
<path fill="#DE4E62" opacity="1.000000" stroke="none" 
	d="
M85.986450,82.875122 
	C85.584961,85.566170 87.285431,89.611130 80.404640,88.657936 
	C82.988503,90.005760 84.088554,90.579582 85.188599,91.153404 
	C85.169884,91.598381 85.151169,92.043350 85.132454,92.488327 
	C82.972244,92.751419 80.812035,93.014503 78.522110,93.293388 
	C78.522110,79.055237 78.522110,65.477554 78.522110,50.984924 
	C80.765709,51.133644 83.217720,51.296181 85.669731,51.458714 
	C85.713768,52.015884 85.757805,52.573059 85.801842,53.130230 
	C84.416061,53.642925 83.030289,54.155617 80.519493,55.084530 
	C86.911667,55.289375 86.022087,59.232868 85.938950,62.697426 
	C85.780693,69.292480 85.575119,75.886391 85.712662,82.707214 
	C86.036133,82.933655 85.968803,82.906929 85.986450,82.875122 
z"/>
<path fill="#73BCC2" opacity="1.000000" stroke="none" 
	d="
M68.524643,93.692047 
	C67.891602,88.060005 67.543594,82.455994 67.427063,76.847176 
	C67.306015,71.021172 67.408867,65.190521 67.409431,58.937889 
	C69.690155,58.238472 71.975266,57.963070 74.260368,57.687672 
	C74.336838,58.143940 74.413300,58.600212 74.489769,59.056480 
	C73.251701,59.515251 72.013634,59.974022 69.363243,60.956131 
	C74.693588,60.485332 75.169853,62.751926 75.054489,66.028145 
	C74.826073,72.515083 75.187096,79.025780 74.861603,85.504402 
	C74.766983,87.387749 73.169312,89.195587 72.046204,91.472816 
	C71.951126,91.425285 73.057442,91.978378 75.467682,93.183380 
	C72.478806,93.427086 70.695091,93.572525 68.524643,93.692047 
z"/>
<path fill="#7E6F53" opacity="1.000000" stroke="none" 
	d="
M62.780716,70.041054 
	C60.693626,74.489746 58.195370,78.887489 55.343124,83.411697 
	C57.007095,79.120209 59.025059,74.702255 61.294453,70.091888 
	C61.820438,69.929672 62.094990,69.959885 62.780716,70.041054 
z"/>
<path fill="#7A634B" opacity="1.000000" stroke="none" 
	d="
M58.138695,63.865967 
	C58.414146,63.986130 58.602219,64.194214 58.790291,64.402290 
	C58.552711,64.445335 58.315136,64.488373 57.978722,64.332214 
	C57.879890,64.133003 58.051311,63.953892 58.138695,63.865967 
z"/>
<path fill="#7C4F3D" opacity="1.000000" stroke="none" 
	d="
M76.998825,100.002090 
	C69.900642,100.002090 63.301949,100.002090 56.703251,100.002090 
	C56.703270,99.562080 56.703293,99.122078 56.703312,98.682068 
	C69.228043,98.682068 81.752777,98.682068 94.277512,98.682068 
	C94.298973,99.122078 94.320435,99.562080 94.341904,100.002090 
	C88.727364,100.002090 83.112831,100.002090 76.998825,100.002090 
z"/>
</svg>