<svg version="1.1" id="Layer_1" xmlns="http://www.w3.org/2000/svg" xmlns:xlink="http://www.w3.org/1999/xlink" x="0px" y="0px"
	 width="100%" viewBox="0 0 457 197" enable-background="new 0 0 457 197" xml:space="preserve">
<path fill="#3F5148" opacity="1.000000" stroke="none" 
	d="
M310.000000,198.000000 
	C206.666718,198.000000 103.833443,198.000000 1.000124,198.000000 
	C1.000083,132.333420 1.000083,66.666847 1.000041,1.000203 
	C153.333160,1.000136 305.666321,1.000136 457.999634,1.000068 
	C457.999756,66.666458 457.999756,132.332916 457.999878,197.999695 
	C408.833344,198.000000 359.666656,198.000000 310.000000,198.000000 
M370.361389,133.003021 
	C373.780365,133.335495 377.215546,133.553284 380.613831,134.032501 
	C384.061920,134.518738 385.917542,132.914520 387.612823,129.980972 
	C388.096771,130.043671 388.580719,130.106369 389.226562,130.843567 
	C389.813629,131.391647 390.347809,132.333939 390.996735,132.421021 
	C394.158783,132.845306 397.414215,133.465439 400.488281,133.011642 
	C401.233276,132.901657 401.656464,128.999161 401.801086,126.812363 
	C402.019135,123.516655 402.012512,120.187546 401.824799,116.888367 
	C401.606140,113.044846 403.166229,111.569801 407.036987,111.640419 
	C414.976135,111.785263 422.921265,111.602852 431.006226,112.538063 
	C431.017578,117.275642 430.885284,122.021027 431.142120,126.745270 
	C431.205658,127.913757 432.532745,129.013550 433.468231,130.775650 
	C434.659332,131.627289 435.740784,132.752655 437.061127,133.281662 
	C441.933350,135.233688 445.830139,133.519226 445.853149,129.399292 
	C445.928345,115.955376 446.085083,102.503830 445.668488,89.072021 
	C445.584656,86.368134 443.122040,83.738022 441.887634,81.035019 
	C441.887634,81.035019 441.925201,81.166870 441.716339,80.664024 
	C441.440460,80.432655 441.164612,80.201286 440.398499,79.509041 
	C437.599152,75.649239 433.660950,74.505859 429.097382,74.541786 
	C419.497650,74.617378 409.896606,74.517250 400.296661,74.577126 
	C391.045380,74.634827 387.614075,77.850861 386.144409,86.873299 
	C385.251984,86.219170 384.359558,85.565033 383.260345,84.232437 
	C382.422058,83.174759 381.583771,82.117073 380.900055,81.029198 
	C380.900055,81.029198 380.928986,81.184021 380.721893,80.695839 
	C380.455902,80.468773 380.189911,80.241707 379.428894,79.548309 
	C376.637970,75.682358 372.709778,74.517349 368.136871,74.541451 
	C355.382111,74.608658 342.626678,74.551987 329.871643,74.584084 
	C328.619781,74.587227 327.368652,74.865555 325.618439,75.076172 
	C325.618439,79.319710 325.618439,83.267448 325.144745,86.797035 
	C324.063141,85.592941 322.981506,84.388840 321.439514,82.772804 
	C320.875763,82.208046 320.312012,81.643295 319.879913,81.043449 
	C319.879913,81.043449 319.913452,81.175476 319.712280,80.668152 
	C319.433960,80.438744 319.155640,80.209335 318.397156,79.508675 
	C315.698517,75.809235 311.942139,74.526527 307.507416,74.550690 
	C297.507935,74.605194 287.507233,74.494446 277.508392,74.591843 
	C270.111450,74.663895 267.079834,77.040764 264.469940,83.480362 
	C263.645355,82.015999 262.820770,80.551643 261.534058,78.731293 
	C260.804565,78.178368 260.075104,77.625443 259.137726,76.175232 
	C255.615723,75.481232 252.093719,74.787231 247.815018,73.944130 
	C247.815018,82.427902 247.815018,89.440346 247.815018,96.555115 
	C238.030502,96.555115 228.799438,96.555115 219.649109,95.679787 
	C219.653915,91.522705 220.193298,87.268875 219.464981,83.244469 
	C219.021210,80.792358 216.624222,78.693733 214.814651,75.540794 
	C211.346878,75.124413 207.879105,74.708038 203.817261,74.220337 
	C203.817261,92.728096 203.785751,110.288918 203.921600,127.848450 
	C203.927628,128.627167 205.459061,129.394089 206.450348,130.803009 
	C207.647629,131.642853 208.736954,132.761139 210.060837,133.274445 
	C215.855011,135.520981 218.824722,133.475769 218.850815,127.382965 
	C218.864304,124.232582 219.059708,121.065514 218.806824,117.935562 
	C218.430878,113.282410 220.095398,111.362404 224.991760,111.547173 
	C232.604660,111.834473 240.239792,111.532372 248.007385,112.472473 
	C248.018829,117.244965 248.129013,122.020180 247.997253,126.788712 
	C247.937378,128.955826 248.339996,130.326508 251.038132,130.740936 
	C251.687057,131.216476 252.335983,131.692001 253.342926,132.824997 
	C259.346344,135.352859 262.632965,134.512924 265.637543,129.984543 
	C266.113220,130.046051 266.588867,130.107559 267.244659,130.839859 
	C268.454407,131.663773 269.563446,132.740997 270.890961,133.268570 
	C277.272797,135.804794 280.572357,133.564484 280.585724,126.828003 
	C280.592316,123.498749 280.745850,120.160629 280.554840,116.842514 
	C280.327240,112.888130 282.102509,111.580231 285.896790,111.645042 
	C293.549774,111.775764 301.207916,111.602844 309.006226,112.538109 
	C309.017639,117.285423 308.882874,122.040840 309.145111,126.774254 
	C309.209229,127.931885 310.573456,129.017471 311.492981,130.705933 
	C312.321442,131.177612 313.149872,131.649307 314.336060,132.791107 
	C320.312286,135.357224 323.664490,134.495605 326.616180,129.977646 
	C327.112244,130.041489 327.608337,130.105316 328.257904,130.839096 
	C329.121948,131.581528 329.877563,132.545639 330.867828,133.029984 
	C336.774597,135.918930 340.784882,133.474899 340.804535,127.058434 
	C340.814240,123.894562 341.038727,120.709686 340.754120,117.571671 
	C340.335876,112.959702 342.247833,111.054886 347.349365,111.981216 
	C353.578644,117.975571 359.807892,123.969933 366.440063,130.480896 
	C367.591064,131.124298 368.742096,131.767685 370.361389,133.003021 
M22.081425,100.858360 
	C21.605265,101.857483 18.285252,101.630753 20.143452,104.501572 
	C20.175232,105.003891 20.207012,105.506218 20.354464,106.818909 
	C21.004318,117.237701 24.908226,121.481773 36.507828,124.379784 
	C36.600666,124.517647 36.764816,124.649887 36.776196,124.794182 
	C37.733082,136.925888 43.295666,146.057800 54.747837,150.699280 
	C66.025864,155.270203 76.179756,152.685959 85.240730,144.724579 
	C86.156990,143.919510 88.588936,143.867264 89.772789,144.494217 
	C98.475288,149.102951 105.275276,148.058640 112.187691,140.891251 
	C113.101044,139.944214 114.634277,138.913605 115.800659,138.999893 
	C125.013588,139.681488 130.518402,135.151306 133.830551,126.468369 
	C133.559830,126.282036 133.289108,126.095711 132.989563,125.182846 
	C132.282913,122.122215 131.576263,119.061584 130.806152,115.381569 
	C130.246552,114.799606 129.686951,114.217644 129.053284,112.905151 
	C129.259644,111.230316 129.466003,109.555489 130.176056,107.253693 
	C132.027725,97.760826 128.779877,89.491066 120.776375,84.448395 
	C118.307213,82.892693 117.145935,81.320297 116.712555,78.326973 
	C114.517624,63.166294 101.295891,52.361755 86.088341,53.591930 
	C76.680290,54.352974 68.674339,58.209061 63.240097,67.261086 
	C57.765137,67.019310 54.990986,69.817696 54.705460,74.744614 
	C52.510040,74.744614 50.606003,74.744614 47.943302,74.741707 
	C44.338165,77.188629 40.733028,79.635551 36.847713,82.714790 
	C34.340134,88.417839 31.668987,93.897636 25.417049,96.650856 
	C24.166927,97.201370 23.574783,99.246017 22.664684,100.607925 
	C22.664684,100.607925 22.660185,100.626572 22.081425,100.858360 
M150.990051,130.025131 
	C150.990051,130.025131 150.973160,129.962906 151.281952,130.605179 
	C154.701675,131.625336 158.088501,133.368073 161.547485,133.525513 
	C170.663635,133.940399 179.811295,133.703812 188.946060,133.656906 
	C197.957458,133.610641 202.558624,129.321442 202.760818,120.353149 
	C202.970413,111.056946 203.275436,101.716766 202.579056,92.468079 
	C202.284348,88.553864 199.538742,84.824188 197.977173,81.013580 
	C197.977173,81.013580 197.971970,81.083511 197.841629,80.591095 
	C197.588943,80.371780 197.336243,80.152466 196.636780,79.418190 
	C193.165192,77.800774 189.765900,75.007301 186.208328,74.788597 
	C175.937897,74.157249 165.601883,74.443619 155.295120,74.600075 
	C147.133591,74.723969 143.063065,78.950729 143.012955,87.044907 
	C142.951187,97.021172 143.133652,107.000702 142.942825,116.973701 
	C142.840668,122.312141 144.732071,126.319458 149.585876,129.518494 
	C150.073639,129.678802 150.561417,129.839127 150.990051,130.025131 
z"/>
<path fill="#C4E9E2" opacity="1.000000" stroke="none" 
	d="
M133.587479,126.917412 
	C130.518402,135.151306 125.013588,139.681488 115.800659,138.999893 
	C114.634277,138.913605 113.101044,139.944214 112.187691,140.891251 
	C105.275276,148.058640 98.475288,149.102951 89.772789,144.494217 
	C88.588936,143.867264 86.156990,143.919510 85.240730,144.724579 
	C76.179756,152.685959 66.025864,155.270203 54.747837,150.699280 
	C43.295666,146.057800 37.733082,136.925888 36.776196,124.794182 
	C36.764816,124.649887 36.600666,124.517647 36.507828,124.379784 
	C24.908226,121.481773 21.004318,117.237701 20.747799,106.410217 
	C26.795431,106.008278 32.455536,106.157539 38.100178,105.927467 
	C39.623489,105.865372 41.099903,104.652748 42.597843,103.968231 
	C41.335167,102.967339 40.135242,101.209358 38.798794,101.098595 
	C33.448639,100.655159 28.056107,100.723000 22.679249,100.601730 
	C23.574783,99.246017 24.166927,97.201370 25.417049,96.650856 
	C31.668987,93.897636 34.340134,88.417839 37.213036,82.673256 
	C39.177231,89.476997 41.090328,90.991180 48.206451,91.036400 
	C51.350838,91.056381 54.495270,91.070335 57.442146,91.341232 
	C54.109097,97.112617 50.821892,102.553932 47.987026,108.221504 
	C47.513298,109.168594 49.083935,111.074226 49.538738,112.588348 
	C49.677353,113.049820 49.242947,113.683418 48.696358,114.220383 
	C47.715660,117.246086 47.109573,120.289597 46.459534,123.553818 
	C48.941452,123.885391 50.353230,124.073997 52.067520,124.303024 
	C52.067520,127.677635 52.215580,130.830612 52.029240,133.963715 
	C51.807045,137.699615 54.083042,137.843170 56.831314,137.842697 
	C59.709862,137.842224 62.245392,137.852966 61.961140,133.777390 
	C61.745029,130.678802 61.918259,127.553062 61.918259,124.279686 
	C72.515656,124.279686 82.551331,124.279686 92.946632,124.279686 
	C92.946632,127.386017 93.163353,130.206528 92.894867,132.980057 
	C92.510345,136.952332 94.021347,138.223160 97.996033,138.148087 
	C101.778671,138.076614 103.618690,137.073273 103.280800,133.023529 
	C103.048134,130.234818 103.236153,127.411003 103.236153,124.602882 
	C103.611572,124.785164 103.986992,124.967445 104.362419,125.149727 
	C105.309013,123.652565 106.255608,122.155403 107.321930,120.317429 
	C107.375130,118.777191 107.308586,117.577766 107.216583,115.947830 
	C105.515678,114.766479 103.840233,114.015648 101.755470,113.081383 
	C102.006508,110.801651 102.272812,108.383316 102.709579,105.865631 
	C102.880051,105.766281 103.273384,105.737183 103.273384,105.737183 
	C103.273384,105.737183 103.659996,105.815155 103.987549,105.951866 
	C106.195908,105.483299 108.076729,104.878014 110.286835,104.250610 
	C111.055176,104.202049 111.494217,104.175613 112.060837,104.527161 
	C117.693596,106.414726 123.197998,107.918022 128.100449,102.849548 
	C128.728561,103.004646 129.509064,103.245544 129.545456,103.569931 
	C129.705215,104.993660 129.649780,106.441536 129.672363,107.880653 
	C129.466003,109.555489 129.259644,111.230316 129.144028,113.579826 
	C129.779724,114.836647 130.324677,115.418800 130.869614,116.000954 
	C131.576263,119.061584 132.282913,122.122215 133.104950,125.710724 
	C133.332001,126.470665 133.454391,126.696930 133.587479,126.917412 
M113.841278,127.165756 
	C118.583633,127.421654 123.335403,127.978638 128.065140,127.830795 
	C131.385208,127.727013 131.300598,125.303581 130.381668,123.025330 
	C124.954079,123.025330 119.792648,122.929199 114.637154,123.062553 
	C111.698296,123.138573 110.239388,124.160263 113.841278,127.165756 
z"/>
<path fill="#C9E8E2" opacity="1.000000" stroke="none" 
	d="
M325.618408,87.215195 
	C325.618439,83.267448 325.618439,79.319710 325.618439,75.076172 
	C327.368652,74.865555 328.619781,74.587227 329.871643,74.584084 
	C342.626678,74.551987 355.382111,74.608658 368.136871,74.541451 
	C372.709778,74.517349 376.637970,75.682358 379.725037,80.074852 
	C380.323792,80.795601 380.626373,80.989815 380.928986,81.184021 
	C380.928986,81.184021 380.900055,81.029198 380.793640,81.512558 
	C380.827789,86.817375 381.164673,91.643013 381.061768,96.459259 
	C380.915466,103.308075 376.602753,107.552498 369.744537,107.853737 
	C366.649048,107.989708 363.542633,107.876785 360.441162,107.876785 
	C360.208405,108.325226 359.975647,108.773666 359.742920,109.222115 
	C360.449707,109.574127 361.156525,109.926147 361.994019,110.548050 
	C362.734802,111.319473 363.344910,111.821022 364.098450,112.597610 
	C367.667877,117.280785 371.703461,120.145569 377.760315,119.066742 
	C378.804718,118.880714 380.148895,120.377983 381.271729,121.541794 
	C381.188812,124.555130 381.188812,127.124359 381.188812,129.964294 
	C375.592163,129.964294 370.814667,129.964294 366.037170,129.964294 
	C359.807892,123.969933 353.578644,117.975571 346.888306,111.507187 
	C344.119202,107.683022 340.971527,107.297134 336.883820,108.494278 
	C336.883820,115.487488 336.883820,122.515068 336.883820,130.169144 
	C333.630280,130.169144 330.867340,130.169144 328.104401,130.169144 
	C327.608337,130.105316 327.112244,130.041489 326.246399,129.450226 
	C325.790588,115.020279 325.704498,101.117737 325.618408,87.215195 
M369.953217,87.308937 
	C369.574371,86.848755 369.198273,85.989243 368.816284,85.986595 
	C358.298279,85.913895 347.779724,85.928398 336.951691,85.928398 
	C336.951691,89.171555 336.772156,91.818535 337.060303,94.413582 
	C337.147552,95.199196 338.529327,95.841072 340.203674,96.699081 
	C350.054169,96.699081 359.904663,96.699081 369.871887,96.699081 
	C369.871887,93.476036 369.871887,90.848579 369.953217,87.308937 
z"/>
<path fill="#C9E8E2" opacity="1.000000" stroke="none" 
	d="
M311.339935,130.136185 
	C310.573456,129.017471 309.209229,127.931885 309.145111,126.774254 
	C308.882874,122.040840 309.017639,117.285423 309.002808,111.653656 
	C309.471283,108.048187 307.836578,107.860001 305.752777,107.896927 
	C301.105652,107.979256 296.456024,107.920639 291.807434,107.920212 
	C286.577240,107.919739 281.347015,107.920105 275.770844,107.920105 
	C275.770844,115.692589 275.770844,122.613655 275.770844,130.169067 
	C272.624817,130.169067 269.844666,130.169067 267.064545,130.169067 
	C266.588867,130.107559 266.113220,130.046051 265.262207,129.469940 
	C264.856293,114.009064 264.825745,99.062813 264.795227,84.116554 
	C267.079834,77.040764 270.111450,74.663895 277.508392,74.591843 
	C287.507233,74.494446 297.507935,74.605194 307.507416,74.550690 
	C311.942139,74.526527 315.698517,75.809235 318.692383,80.043930 
	C319.296204,80.777946 319.604828,80.976715 319.913452,81.175476 
	C319.913452,81.175476 319.879913,81.043449 319.773773,81.527115 
	C319.667633,97.918266 319.667633,113.825745 319.667633,130.136185 
	C316.645813,130.136185 313.992859,130.136185 311.339935,130.136185 
M278.798065,96.709038 
	C279.513916,96.660698 280.229797,96.612358 281.873169,96.749207 
	C290.772522,96.749207 299.671906,96.749207 308.880920,96.749207 
	C308.880920,94.160812 308.880920,92.054779 309.006104,89.294861 
	C308.959595,88.853889 308.913086,88.412918 308.933624,87.100395 
	C308.496521,86.696091 308.061615,85.941605 307.621948,85.938797 
	C297.221893,85.872665 286.821320,85.887482 275.956085,85.887482 
	C275.956085,89.165894 275.821960,91.955223 276.053741,94.713814 
	C276.109192,95.374100 277.383057,95.932022 278.798065,96.709038 
z"/>
<path fill="#C9E8E2" opacity="1.000000" stroke="none" 
	d="
M386.615234,87.191750 
	C387.614075,77.850861 391.045380,74.634827 400.296661,74.577126 
	C409.896606,74.517250 419.497650,74.617378 429.097382,74.541786 
	C433.660950,74.505859 437.599152,75.649239 440.697632,80.040314 
	C441.306244,80.770012 441.615723,80.968437 441.925201,81.166870 
	C441.925201,81.166870 441.887634,81.035019 441.784790,81.521431 
	C441.681946,97.830849 441.681946,113.653847 441.681946,129.769684 
	C438.811554,129.897858 436.045288,130.021378 433.278992,130.144897 
	C432.532745,129.013550 431.205658,127.913757 431.142120,126.745270 
	C430.885284,122.021027 431.017578,117.275642 431.002808,111.653633 
	C431.471252,108.048218 429.836609,107.860008 427.752808,107.896935 
	C423.105682,107.979263 418.456055,107.920639 413.807465,107.920212 
	C408.577271,107.919739 403.347046,107.920105 397.770874,107.920105 
	C397.770874,115.693192 397.770874,122.613937 397.770874,130.169067 
	C394.618561,130.169067 391.841614,130.169067 389.064667,130.169067 
	C388.580719,130.106369 388.096771,130.043671 387.242371,129.499634 
	C386.788879,127.068703 386.705872,125.119125 386.690948,122.684525 
	C386.713928,115.753304 386.668823,109.307121 386.714722,102.410973 
	C386.742218,97.037926 386.678741,92.114838 386.615234,87.191750 
M401.204559,96.699348 
	C411.054657,96.699348 420.904785,96.699348 430.872101,96.699348 
	C430.872101,93.476357 430.872101,90.849449 430.953613,87.310036 
	C430.575134,86.849434 430.199432,85.989143 429.817780,85.986496 
	C419.298920,85.913750 408.779510,85.928253 397.951385,85.928253 
	C397.951385,89.175911 397.771729,91.821388 398.060089,94.414833 
	C398.147430,95.200249 399.529938,95.841660 401.204559,96.699348 
z"/>
<path fill="#C9E8E2" opacity="1.000000" stroke="none" 
	d="
M149.261581,129.099838 
	C144.732071,126.319458 142.840668,122.312141 142.942825,116.973701 
	C143.133652,107.000702 142.951187,97.021172 143.012955,87.044907 
	C143.063065,78.950729 147.133591,74.723969 155.295120,74.600075 
	C165.601883,74.443619 175.937897,74.157249 186.208328,74.788597 
	C189.765900,75.007301 193.165192,77.800774 196.891586,79.949051 
	C197.421585,80.681107 197.696777,80.882309 197.971970,81.083511 
	C197.971970,81.083511 197.977173,81.013580 197.924576,81.482132 
	C198.046127,93.896469 198.384094,105.842903 198.337402,117.787834 
	C198.305740,125.891647 193.984665,129.908081 185.840057,129.948212 
	C174.218018,130.005463 162.595490,129.962860 150.973160,129.962906 
	C150.973160,129.962906 150.990051,130.025131 150.870605,129.788757 
	C150.254639,129.401550 149.758118,129.250702 149.261581,129.099838 
M187.088150,87.396584 
	C184.904022,86.859421 182.728485,85.903915 180.534241,85.858765 
	C171.830536,85.679634 163.121002,85.785095 154.088776,85.785095 
	C154.088776,96.549500 154.015915,106.479057 154.225342,116.402649 
	C154.242325,117.207443 156.192581,117.971443 158.144226,118.873085 
	C167.728668,118.873085 177.313110,118.873085 186.978928,118.873085 
	C186.978928,108.263176 186.978928,98.301590 187.088150,87.396584 
z"/>
<path fill="#CAE9E2" opacity="1.000000" stroke="none" 
	d="
M250.832840,130.145065 
	C248.339996,130.326508 247.937378,128.955826 247.997253,126.788712 
	C248.129013,122.020180 248.018829,117.244965 248.002853,111.589584 
	C247.391754,109.787521 246.797958,108.077217 246.176712,108.067177 
	C235.907974,107.901329 225.635773,107.949196 214.803360,107.949196 
	C214.803360,115.601768 214.803360,122.676521 214.803360,130.166504 
	C211.582138,130.166504 208.931061,130.166504 206.279968,130.166504 
	C205.459061,129.394089 203.927628,128.627167 203.921600,127.848450 
	C203.785751,110.288918 203.817261,92.728096 203.817261,74.220337 
	C207.879105,74.708038 211.346878,75.124413 214.886383,76.406303 
	C214.958115,83.689903 214.958115,90.107994 214.958115,96.775848 
	C216.953476,96.680313 218.260925,96.617714 219.568390,96.555115 
	C228.799438,96.555115 238.030502,96.555115 247.815018,96.555115 
	C247.815018,89.440346 247.815018,82.427902 247.815018,73.944130 
	C252.093719,74.787231 255.615723,75.481232 259.154358,77.077515 
	C259.170959,95.249573 259.170959,112.519363 259.170959,130.145065 
	C255.776917,130.145065 253.304871,130.145065 250.832840,130.145065 
z"/>
<path fill="#C1E5DE" opacity="1.000000" stroke="none" 
	d="
M129.924210,107.567169 
	C129.649780,106.441536 129.705215,104.993660 129.545456,103.569931 
	C129.509064,103.245544 128.728561,103.004646 128.159424,102.448753 
	C127.192490,99.983681 126.957664,97.113068 125.401588,95.742088 
	C121.620651,92.410873 117.225746,89.776520 112.755432,86.702652 
	C110.823418,86.688316 109.028984,86.421669 107.637062,87.048637 
	C101.727440,89.710564 101.771057,89.807396 100.452286,82.878227 
	C101.776138,77.322624 96.796265,81.052574 95.435944,78.840988 
	C92.558342,76.263542 99.319145,68.450920 90.224335,68.621773 
	C85.862526,68.703712 80.434647,67.207397 81.879379,74.953102 
	C80.205032,74.869293 79.058289,74.811897 77.792068,74.438377 
	C75.937813,73.120659 73.929466,70.987312 72.519180,71.328194 
	C68.165977,72.380402 66.027252,70.175278 64.025635,67.126022 
	C68.674339,58.209061 76.680290,54.352974 86.088341,53.591930 
	C101.295891,52.361755 114.517624,63.166294 116.712555,78.326973 
	C117.145935,81.320297 118.307213,82.892693 120.776375,84.448395 
	C128.779877,89.491066 132.027725,97.760826 129.924210,107.567169 
z"/>
<path fill="#2761BD" opacity="1.000000" stroke="none" 
	d="
M151.127563,130.284042 
	C162.595490,129.962860 174.218018,130.005463 185.840057,129.948212 
	C193.984665,129.908081 198.305740,125.891647 198.337402,117.787834 
	C198.384094,105.842903 198.046127,93.896469 197.889542,81.480659 
	C199.538742,84.824188 202.284348,88.553864 202.579056,92.468079 
	C203.275436,101.716766 202.970413,111.056946 202.760818,120.353149 
	C202.558624,129.321442 197.957458,133.610641 188.946060,133.656906 
	C179.811295,133.703812 170.663635,133.940399 161.547485,133.525513 
	C158.088501,133.368073 154.701675,131.625336 151.127563,130.284042 
z"/>
<path fill="#F3F0E4" opacity="1.000000" stroke="none" 
	d="
M63.632866,67.193558 
	C66.027252,70.175278 68.165977,72.380402 72.519180,71.328194 
	C73.929466,70.987312 75.937813,73.120659 77.482101,74.623650 
	C75.907021,75.754379 74.522430,76.383720 73.030945,77.381668 
	C72.897606,78.772919 72.871170,79.795547 72.473389,80.870560 
	C71.140045,80.817436 70.062241,80.957260 69.234840,80.566635 
	C63.843697,78.021461 62.172897,78.943710 60.979858,85.488419 
	C60.914829,85.725311 60.873405,86.214874 60.605007,86.313736 
	C59.891689,86.945755 59.446770,87.478905 58.901604,88.144821 
	C58.801353,88.277603 58.739059,88.604462 58.298691,88.710159 
	C53.754318,88.890800 49.581604,89.432053 45.575600,88.841827 
	C43.604774,88.551453 40.818916,86.394859 40.467007,84.663116 
	C40.136627,83.037331 42.321186,80.684052 43.778244,78.973885 
	C45.164463,77.346848 47.041008,76.137566 48.701969,74.744614 
	C50.606003,74.744614 52.510040,74.744614 54.705460,74.744614 
	C54.990986,69.817696 57.765137,67.019310 63.632866,67.193558 
M47.784580,82.972839 
	C48.946774,82.065086 50.108971,81.157333 51.974579,80.166748 
	C53.078613,79.884239 54.182648,79.601723 55.286682,79.319214 
	C55.111034,78.828957 54.935383,78.338692 54.759731,77.848434 
	C53.423679,78.477303 52.087624,79.106163 50.154575,79.976089 
	C49.017105,80.885872 47.879635,81.795654 46.276360,82.877831 
	C46.134007,83.361946 45.991657,83.846062 45.849300,84.330170 
	C46.264980,83.920151 46.680660,83.510124 47.784580,82.972839 
z"/>
<path fill="#1C55AF" opacity="1.000000" stroke="none" 
	d="
M267.154602,130.504456 
	C269.844666,130.169067 272.624817,130.169067 275.770844,130.169067 
	C275.770844,122.613655 275.770844,115.692589 275.770844,107.920105 
	C281.347015,107.920105 286.577240,107.919739 291.807434,107.920212 
	C296.456024,107.920639 301.105652,107.979256 305.752777,107.896927 
	C307.836578,107.860001 309.471283,108.048187 308.931641,111.162186 
	C301.207916,111.602844 293.549774,111.775764 285.896790,111.645042 
	C282.102509,111.580231 280.327240,112.888130 280.554840,116.842514 
	C280.745850,120.160629 280.592316,123.498749 280.585724,126.828003 
	C280.572357,133.564484 277.272797,135.804794 270.890961,133.268570 
	C269.563446,132.740997 268.454407,131.663773 267.154602,130.504456 
z"/>
<path fill="#1C55AF" opacity="1.000000" stroke="none" 
	d="
M389.145630,130.506317 
	C391.841614,130.169067 394.618561,130.169067 397.770874,130.169067 
	C397.770874,122.613937 397.770874,115.693192 397.770874,107.920105 
	C403.347046,107.920105 408.577271,107.919739 413.807465,107.920212 
	C418.456055,107.920639 423.105682,107.979263 427.752808,107.896935 
	C429.836609,107.860008 431.471252,108.048218 430.931641,111.162186 
	C422.921265,111.602852 414.976135,111.785263 407.036987,111.640419 
	C403.166229,111.569801 401.606140,113.044846 401.824799,116.888367 
	C402.012512,120.187546 402.019135,123.516655 401.801086,126.812363 
	C401.656464,128.999161 401.233276,132.901657 400.488281,133.011642 
	C397.414215,133.465439 394.158783,132.845306 390.996735,132.421021 
	C390.347809,132.333939 389.813629,131.391647 389.145630,130.506317 
z"/>
<path fill="#1955B6" opacity="1.000000" stroke="none" 
	d="
M206.365158,130.484756 
	C208.931061,130.166504 211.582138,130.166504 214.803360,130.166504 
	C214.803360,122.676521 214.803360,115.601768 214.803360,107.949196 
	C225.635773,107.949196 235.907974,107.901329 246.176712,108.067177 
	C246.797958,108.077217 247.391754,109.787521 247.931915,111.093391 
	C240.239792,111.532372 232.604660,111.834473 224.991760,111.547173 
	C220.095398,111.362404 218.430878,113.282410 218.806824,117.935562 
	C219.059708,121.065514 218.864304,124.232582 218.850815,127.382965 
	C218.824722,133.475769 215.855011,135.520981 210.060837,133.274445 
	C208.736954,132.761139 207.647629,131.642853 206.365158,130.484756 
z"/>
<path fill="#265FB6" opacity="1.000000" stroke="none" 
	d="
M433.373627,130.460266 
	C436.045288,130.021378 438.811554,129.897858 441.681946,129.769684 
	C441.681946,113.653847 441.681946,97.830849 441.719055,81.540863 
	C443.122040,83.738022 445.584656,86.368134 445.668488,89.072021 
	C446.085083,102.503830 445.928345,115.955376 445.853149,129.399292 
	C445.830139,133.519226 441.933350,135.233688 437.061127,133.281662 
	C435.740784,132.752655 434.659332,131.627289 433.373627,130.460266 
z"/>
<path fill="#395E81" opacity="1.000000" stroke="none" 
	d="
M325.381592,87.006119 
	C325.704498,101.117737 325.790588,115.020279 325.878479,129.373352 
	C323.664490,134.495605 320.312286,135.357224 314.599854,132.426392 
	C322.110291,131.885849 322.143280,131.885727 322.116516,124.469513 
	C322.066833,110.707848 321.974487,96.946320 321.899902,83.184738 
	C322.981506,84.388840 324.063141,85.592941 325.381592,87.006119 
z"/>
<path fill="#255FBB" opacity="1.000000" stroke="none" 
	d="
M250.935486,130.442993 
	C253.304871,130.145065 255.776917,130.145065 259.170959,130.145065 
	C259.170959,112.519363 259.170959,95.249573 259.258301,77.526154 
	C260.075104,77.625443 260.804565,78.178368 261.759491,79.369171 
	C261.984283,94.268417 261.983948,108.529770 261.982880,122.791130 
	C261.982178,131.866226 261.981689,131.866226 252.984924,132.167526 
	C252.335983,131.692001 251.687057,131.216476 250.935486,130.442993 
z"/>
<path fill="#3C5E7B" opacity="1.000000" stroke="none" 
	d="
M253.163925,132.496262 
	C261.981689,131.866226 261.982178,131.866226 261.982880,122.791130 
	C261.983948,108.529770 261.984283,94.268417 261.990540,79.547173 
	C262.820770,80.551643 263.645355,82.015999 264.632568,83.798462 
	C264.825745,99.062813 264.856293,114.009064 264.906616,129.409988 
	C262.632965,134.512924 259.346344,135.352859 253.163925,132.496262 
z"/>
<path fill="#1955B6" opacity="1.000000" stroke="none" 
	d="
M328.181152,130.504120 
	C330.867340,130.169144 333.630280,130.169144 336.883820,130.169144 
	C336.883820,122.515068 336.883820,115.487488 336.883820,108.494278 
	C340.971527,107.297134 344.119202,107.683022 346.594421,111.295311 
	C342.247833,111.054886 340.335876,112.959702 340.754120,117.571671 
	C341.038727,120.709686 340.814240,123.894562 340.804535,127.058434 
	C340.784882,133.474899 336.774597,135.918930 330.867828,133.029984 
	C329.877563,132.545639 329.121948,131.581528 328.181152,130.504120 
z"/>
<path fill="#385C7D" opacity="1.000000" stroke="none" 
	d="
M386.379822,87.032524 
	C386.678741,92.114838 386.742218,97.037926 386.454956,102.607468 
	C382.480774,109.906151 376.981323,112.882149 369.371277,112.019058 
	C367.600098,111.818184 365.762207,112.205757 363.955017,112.322571 
	C363.344910,111.821022 362.734802,111.319473 362.456299,110.476273 
	C365.759918,110.079514 368.736908,110.114075 371.703064,109.951378 
	C378.756897,109.564461 382.937012,105.262352 383.140442,98.270882 
	C383.270050,93.818153 383.359619,89.364273 383.467133,84.910904 
	C384.359558,85.565033 385.251984,86.219170 386.379822,87.032524 
z"/>
<path fill="#2863C0" opacity="1.000000" stroke="none" 
	d="
M321.669708,82.978775 
	C321.974487,96.946320 322.066833,110.707848 322.116516,124.469513 
	C322.143280,131.885727 322.110291,131.885849 314.420990,132.091339 
	C313.149872,131.649307 312.321442,131.177612 311.416443,130.421051 
	C313.992859,130.136185 316.645813,130.136185 319.667633,130.136185 
	C319.667633,113.825745 319.667633,97.918266 319.707947,81.544662 
	C320.312012,81.643295 320.875763,82.208046 321.669708,82.978775 
z"/>
<path fill="#D7EFEB" opacity="1.000000" stroke="none" 
	d="
M22.671967,100.604828 
	C28.056107,100.723000 33.448639,100.655159 38.798794,101.098595 
	C40.135242,101.209358 41.335167,102.967339 42.597843,103.968231 
	C41.099903,104.652748 39.623489,105.865372 38.100178,105.927467 
	C32.455536,106.157539 26.795431,106.008278 20.689964,106.005028 
	C20.207012,105.506218 20.175232,105.003891 20.731361,104.105423 
	C21.766245,102.681717 22.213217,101.654144 22.660187,100.626572 
	C22.660185,100.626572 22.664684,100.607925 22.671967,100.604828 
z"/>
<path fill="#205CBD" opacity="1.000000" stroke="none" 
	d="
M383.363739,84.571671 
	C383.359619,89.364273 383.270050,93.818153 383.140442,98.270882 
	C382.937012,105.262352 378.756897,109.564461 371.703064,109.951378 
	C368.736908,110.114075 365.759918,110.079514 362.325623,110.206398 
	C361.156525,109.926147 360.449707,109.574127 359.742920,109.222115 
	C359.975647,108.773666 360.208405,108.325226 360.441162,107.876785 
	C363.542633,107.876785 366.649048,107.989708 369.744537,107.853737 
	C376.602753,107.552498 380.915466,103.308075 381.061768,96.459259 
	C381.164673,91.643013 380.827789,86.817375 380.716370,81.527664 
	C381.583771,82.117073 382.422058,83.174759 383.363739,84.571671 
z"/>
<path fill="#2357A5" opacity="1.000000" stroke="none" 
	d="
M219.608749,96.117447 
	C218.260925,96.617714 216.953476,96.680313 214.958115,96.775848 
	C214.958115,90.107994 214.958115,83.689903 215.031342,76.854073 
	C216.624222,78.693733 219.021210,80.792358 219.464981,83.244469 
	C220.193298,87.268875 219.653915,91.522705 219.608749,96.117447 
z"/>
<path fill="#817872" opacity="1.000000" stroke="none" 
	d="
M48.322636,74.743164 
	C47.041008,76.137566 45.164463,77.346848 43.778244,78.973885 
	C42.321186,80.684052 40.136627,83.037331 40.467007,84.663116 
	C40.818916,86.394859 43.604774,88.551453 45.575600,88.841827 
	C49.581604,89.432053 53.754318,88.890800 58.362579,89.178986 
	C58.922859,89.852486 58.978882,90.162865 59.060287,90.563919 
	C59.085674,90.654594 58.984364,90.813362 58.647591,90.878830 
	C58.087109,90.991875 57.863392,91.039452 57.639679,91.087029 
	C54.495270,91.070335 51.350838,91.056381 48.206451,91.036400 
	C41.090328,90.991180 39.177231,89.476997 37.353127,82.357094 
	C40.733028,79.635551 44.338165,77.188629 48.322636,74.743164 
z"/>
<path fill="#385C7D" opacity="1.000000" stroke="none" 
	d="
M386.622864,123.169548 
	C386.705872,125.119125 386.788879,127.068703 386.882080,129.430969 
	C385.917542,132.914520 384.061920,134.518738 380.613831,134.032501 
	C377.215546,133.553284 373.780365,133.335495 370.588928,132.605560 
	C382.768280,131.568634 382.768280,131.568634 383.741882,122.856140 
	C384.913239,122.981552 385.768066,123.075546 386.622864,123.169548 
z"/>
<path fill="#205CBD" opacity="1.000000" stroke="none" 
	d="
M383.425323,122.824715 
	C382.768280,131.568634 382.768280,131.568634 370.354797,132.309601 
	C368.742096,131.767685 367.591064,131.124298 366.238617,130.222595 
	C370.814667,129.964294 375.592163,129.964294 381.188812,129.964294 
	C381.188812,127.124359 381.188812,124.555130 381.552246,121.590691 
	C382.418884,121.738548 382.922119,122.281631 383.425323,122.824715 
z"/>
<path fill="#C4E9E2" opacity="1.000000" stroke="none" 
	d="
M22.370808,100.742462 
	C22.213217,101.654144 21.766245,102.681717 21.043646,103.807304 
	C18.285252,101.630753 21.605265,101.857483 22.370808,100.742462 
z"/>
<path fill="#C1E5DE" opacity="1.000000" stroke="none" 
	d="
M130.837891,115.691261 
	C130.324677,115.418800 129.779724,114.836647 129.181061,113.945084 
	C129.686951,114.217644 130.246552,114.799606 130.837891,115.691261 
z"/>
<path fill="#2761BD" opacity="1.000000" stroke="none" 
	d="
M149.423737,129.309174 
	C149.758118,129.250702 150.254639,129.401550 150.900177,129.775909 
	C150.561417,129.839127 150.073639,129.678802 149.423737,129.309174 
z"/>
<path fill="#2761BD" opacity="1.000000" stroke="none" 
	d="
M197.906799,80.837303 
	C197.696777,80.882309 197.421585,80.681107 197.114960,80.206528 
	C197.336243,80.152466 197.588943,80.371780 197.906799,80.837303 
z"/>
<path fill="#2863C0" opacity="1.000000" stroke="none" 
	d="
M319.812866,80.921814 
	C319.604828,80.976715 319.296204,80.777946 318.932434,80.279556 
	C319.155640,80.209335 319.433960,80.438744 319.812866,80.921814 
z"/>
<path fill="#205CBD" opacity="1.000000" stroke="none" 
	d="
M380.825439,80.939934 
	C380.626373,80.989815 380.323792,80.795601 379.972534,80.308014 
	C380.189911,80.241707 380.455902,80.468773 380.825439,80.939934 
z"/>
<path fill="#265FB6" opacity="1.000000" stroke="none" 
	d="
M441.820770,80.915451 
	C441.615723,80.968437 441.306244,80.770012 440.942749,80.270752 
	C441.164612,80.201286 441.440460,80.432655 441.820770,80.915451 
z"/>
<path fill="#D7F2ED" opacity="1.000000" stroke="none" 
	d="
M133.709015,126.692886 
	C133.454391,126.696930 133.332001,126.470665 133.119354,126.073990 
	C133.289108,126.095711 133.559830,126.282036 133.709015,126.692886 
z"/>
<path fill="#F8F6E9" opacity="1.000000" stroke="none" 
	d="
M111.933258,104.149170 
	C111.494217,104.175613 111.055176,104.202049 109.984459,104.270126 
	C107.455185,104.812897 105.557587,105.314026 103.659996,105.815155 
	C103.659996,105.815155 103.273384,105.737183 103.273384,105.737183 
	C103.273384,105.737183 102.880051,105.766281 102.573883,105.474838 
	C99.837517,104.836952 97.407318,104.490509 94.730515,103.986069 
	C94.012512,103.506935 93.541130,103.185783 93.048752,102.906097 
	C93.027763,102.947556 93.110657,102.989624 93.083237,102.588425 
	C92.124641,98.602493 94.144516,97.018448 97.488708,95.944092 
	C98.320961,91.861084 99.943283,90.874138 104.148468,91.770081 
	C106.546417,92.280991 109.580376,89.797424 112.334061,88.677246 
	C112.463135,88.624741 112.651863,88.718887 112.953506,89.047211 
	C114.201668,94.395454 119.405701,94.303398 122.457443,96.896072 
	C123.675781,97.931145 125.441795,100.088531 125.083641,100.832809 
	C124.404266,102.244583 122.480766,103.621124 120.879028,103.902657 
	C117.972458,104.413536 114.923050,104.111755 111.933258,104.149170 
z"/>
<path fill="#6C4D42" opacity="1.000000" stroke="none" 
	d="
M107.202194,120.658234 
	C106.255608,122.155403 105.309013,123.652565 104.362419,125.149727 
	C103.986992,124.967445 103.611572,124.785164 103.236153,124.602882 
	C103.236153,127.411003 103.048134,130.234818 103.280800,133.023529 
	C103.618690,137.073273 101.778671,138.076614 97.996033,138.148087 
	C94.021347,138.223160 92.510345,136.952332 92.894867,132.980057 
	C93.163353,130.206528 92.946632,127.386017 92.946632,124.279686 
	C82.551331,124.279686 72.515656,124.279686 61.918259,124.279686 
	C61.918259,127.553062 61.745029,130.678802 61.961140,133.777390 
	C62.245392,137.852966 59.709862,137.842224 56.831314,137.842697 
	C54.083042,137.843170 51.807045,137.699615 52.029240,133.963715 
	C52.215580,130.830612 52.067520,127.677635 52.067520,124.303024 
	C50.353230,124.073997 48.941452,123.885391 46.459534,123.553818 
	C47.109573,120.289597 47.715660,117.246086 48.986843,114.366104 
	C51.150646,114.320000 52.649349,114.110382 54.445839,113.921646 
	C55.452923,113.635040 56.162224,113.327560 57.138435,113.367630 
	C62.556351,113.754738 67.707352,113.794304 73.088928,114.049942 
	C73.894043,114.515129 74.468590,114.764252 75.436935,115.014526 
	C77.547661,115.368271 79.264595,115.720863 80.517975,116.137604 
	C71.566139,116.299355 63.072586,116.264526 54.593788,116.601311 
	C52.801796,116.672485 51.063828,118.103645 49.300964,118.908188 
	C50.991055,119.777740 52.651939,121.326569 54.376225,121.400696 
	C62.353962,121.743652 70.350082,121.784264 78.338158,121.727684 
	C86.974800,121.666527 95.609825,121.377472 104.617584,121.138641 
	C105.727142,120.945709 106.464668,120.801971 107.202194,120.658234 
M55.851906,135.380325 
	C57.142834,134.536667 59.489315,133.739380 59.528790,132.840729 
	C59.652256,130.030258 58.904789,127.181534 58.494835,124.347633 
	C57.098545,124.989693 54.559799,125.551208 54.507854,126.288048 
	C54.305454,129.159088 54.891357,132.085709 55.851906,135.380325 
M99.716240,134.446625 
	C99.829544,131.800568 100.183983,129.129486 99.913704,126.523209 
	C99.829262,125.708961 98.058746,125.069565 97.060043,124.350128 
	C96.452415,126.979996 95.447487,129.610153 95.449364,132.239578 
	C95.450027,133.179337 97.886192,134.117340 99.716240,134.446625 
z"/>
<path fill="#D7F2ED" opacity="1.000000" stroke="none" 
	d="
M113.519012,126.948204 
	C110.239388,124.160263 111.698296,123.138573 114.637154,123.062553 
	C119.792648,122.929199 124.954079,123.025330 130.381668,123.025330 
	C131.300598,125.303581 131.385208,127.727013 128.065140,127.830795 
	C123.335403,127.978638 118.583633,127.421654 113.519012,126.948204 
z"/>
<path fill="#9C948D" opacity="1.000000" stroke="none" 
	d="
M112.060837,104.527161 
	C114.923050,104.111755 117.972458,104.413536 120.879028,103.902657 
	C122.480766,103.621124 124.404266,102.244583 125.083641,100.832809 
	C125.441795,100.088531 123.675781,97.931145 122.457443,96.896072 
	C119.405701,94.303398 114.201668,94.395454 113.025879,88.576218 
	C112.997757,87.488968 113.037964,87.175201 113.078171,86.861435 
	C117.225746,89.776520 121.620651,92.410873 125.401588,95.742088 
	C126.957664,97.113068 127.192490,99.983681 127.969315,102.572975 
	C123.197998,107.918022 117.693596,106.414726 112.060837,104.527161 
z"/>
<path fill="#76664E" opacity="1.000000" stroke="none" 
	d="
M54.148056,113.900764 
	C52.649349,114.110382 51.150646,114.320000 49.361454,114.383896 
	C49.242947,113.683418 49.677353,113.049820 49.538738,112.588348 
	C49.083935,111.074226 47.513298,109.168594 47.987026,108.221504 
	C50.821892,102.553932 54.109097,97.112617 57.442146,91.341232 
	C57.863392,91.039452 58.087109,90.991875 58.641457,91.257706 
	C57.263481,94.922676 55.876366,98.496735 53.754772,101.562515 
	C51.682243,104.557396 51.723312,106.903099 54.504578,109.375229 
	C53.331535,109.783562 52.431675,110.096809 51.499737,110.421219 
	C52.426529,111.638901 53.287292,112.769836 54.148056,113.900764 
z"/>
<path fill="#604A4F" opacity="1.000000" stroke="none" 
	d="
M94.977127,104.144058 
	C97.407318,104.490509 99.837517,104.836952 102.403412,105.574188 
	C102.272812,108.383316 102.006508,110.801651 101.755470,113.081383 
	C103.840233,114.015648 105.515678,114.766479 106.935692,115.886368 
	C106.492607,116.219620 106.304955,116.183823 105.845917,115.942917 
	C104.349266,115.845459 103.124001,115.953110 101.550560,116.111481 
	C100.501534,116.127625 99.800667,116.093048 98.835289,115.863663 
	C97.745094,115.442352 96.919426,115.215843 96.083916,114.586945 
	C95.708427,110.837723 95.342781,107.490883 94.977127,104.144058 
z"/>
<path fill="#A36A4B" opacity="1.000000" stroke="none" 
	d="
M106.117294,116.148026 
	C106.304955,116.183823 106.492607,116.219620 106.961151,116.316879 
	C107.308586,117.577766 107.375130,118.777191 107.321930,120.317421 
	C106.464668,120.801971 105.727142,120.945709 104.582733,120.738739 
	C104.064705,119.068932 103.953560,117.749840 104.218155,116.366013 
	C105.101707,116.250191 105.609497,116.199104 106.117294,116.148026 
z"/>
<path fill="#C1E5DE" opacity="1.000000" stroke="none" 
	d="
M103.987549,105.951859 
	C105.557587,105.314026 107.455185,104.812897 109.655167,104.292252 
	C108.076729,104.878014 106.195908,105.483299 103.987549,105.951859 
z"/>
<path fill="#3F565A" opacity="1.000000" stroke="none" 
	d="
M369.871887,88.221115 
	C369.871887,90.848579 369.871887,93.476036 369.871887,96.699081 
	C359.904663,96.699081 350.054169,96.699081 339.742676,96.206711 
	C339.209259,88.151733 339.209259,88.138855 346.890228,88.147934 
	C354.550812,88.156982 362.211334,88.195511 369.871887,88.221115 
z"/>
<path fill="#40534A" opacity="1.000000" stroke="none" 
	d="
M383.741882,122.856140 
	C382.922119,122.281631 382.418884,121.738548 381.635132,121.146576 
	C380.148895,120.377983 378.804718,118.880714 377.760315,119.066742 
	C371.703461,120.145569 367.667877,117.280785 364.098450,112.597618 
	C365.762207,112.205757 367.600098,111.818184 369.371277,112.019058 
	C376.981323,112.882149 382.480774,109.906151 386.363953,103.057434 
	C386.668823,109.307121 386.713928,115.753304 386.690948,122.684525 
	C385.768066,123.075546 384.913239,122.981552 383.741882,122.856140 
z"/>
<path fill="#1B57B7" opacity="1.000000" stroke="none" 
	d="
M369.912537,87.765030 
	C362.211334,88.195511 354.550812,88.156982 346.890228,88.147934 
	C339.209259,88.138855 339.209259,88.151733 339.299927,96.131561 
	C338.529327,95.841072 337.147552,95.199196 337.060303,94.413582 
	C336.772156,91.818535 336.951691,89.171555 336.951691,85.928398 
	C347.779724,85.928398 358.298279,85.913895 368.816284,85.986595 
	C369.198273,85.989243 369.574371,86.848755 369.912537,87.765030 
z"/>
<path fill="#45584E" opacity="1.000000" stroke="none" 
	d="
M308.880920,89.948753 
	C308.880920,92.054779 308.880920,94.160812 308.880920,96.749207 
	C299.671906,96.749207 290.772522,96.749207 281.415619,96.248276 
	C280.256805,90.993523 282.605133,89.739563 286.989929,89.891541 
	C294.278839,90.144157 301.583130,89.953003 308.880920,89.948753 
z"/>
<path fill="#1B57B7" opacity="1.000000" stroke="none" 
	d="
M278.096527,96.537018 
	C277.383057,95.932022 276.109192,95.374100 276.053741,94.713814 
	C275.821960,91.955223 275.956085,89.165894 275.956085,85.887482 
	C286.821320,85.887482 297.221893,85.872665 307.621948,85.938797 
	C308.061615,85.941605 308.496521,86.696091 308.440063,87.539017 
	C299.534088,87.981438 291.120422,88.070740 282.709900,87.946976 
	C279.344238,87.897446 277.765350,89.140800 278.055939,92.579857 
	C278.166687,93.890701 278.088562,95.217499 278.096527,96.537018 
z"/>
<path fill="#305479" opacity="1.000000" stroke="none" 
	d="
M278.447296,96.623032 
	C278.088562,95.217499 278.166687,93.890701 278.055939,92.579857 
	C277.765350,89.140800 279.344238,87.897446 282.709900,87.946976 
	C291.120422,88.070740 299.534088,87.981438 308.406525,87.974792 
	C308.913086,88.412918 308.959595,88.853889 308.943512,89.621811 
	C301.583130,89.953003 294.278839,90.144157 286.989929,89.891541 
	C282.605133,89.739563 280.256805,90.993523 280.951843,96.155685 
	C280.229797,96.612358 279.513916,96.660698 278.447296,96.623032 
z"/>
<path fill="#3F565A" opacity="1.000000" stroke="none" 
	d="
M430.872101,88.222542 
	C430.872101,90.849449 430.872101,93.476357 430.872101,96.699348 
	C420.904785,96.699348 411.054657,96.699348 400.743317,96.206970 
	C400.208771,88.151733 400.208801,88.138664 407.890167,88.147980 
	C415.550842,88.157272 423.211456,88.196465 430.872101,88.222542 
z"/>
<path fill="#1B57B7" opacity="1.000000" stroke="none" 
	d="
M430.912842,87.766289 
	C423.211456,88.196465 415.550842,88.157272 407.890167,88.147980 
	C400.208801,88.138664 400.208771,88.151733 400.300659,96.131813 
	C399.529938,95.841660 398.147430,95.200249 398.060089,94.414833 
	C397.771729,91.821388 397.951385,89.175911 397.951385,85.928253 
	C408.779510,85.928253 419.298920,85.913750 429.817780,85.986496 
	C430.199432,85.989143 430.575134,86.849434 430.912842,87.766289 
z"/>
<path fill="#3E524D" opacity="1.000000" stroke="none" 
	d="
M186.978928,88.340012 
	C186.978928,98.301590 186.978928,108.263176 186.978928,118.873085 
	C177.313110,118.873085 167.728668,118.873085 157.669952,118.360977 
	C157.176590,109.726151 157.283264,101.600319 157.082275,93.482101 
	C156.989914,89.751251 158.052246,88.034897 162.117172,88.163734 
	C170.397964,88.426216 178.690964,88.303825 186.978928,88.340012 
z"/>
<path fill="#205AB4" opacity="1.000000" stroke="none" 
	d="
M187.033539,87.868301 
	C178.690964,88.303825 170.397964,88.426216 162.117172,88.163734 
	C158.052246,88.034897 156.989914,89.751251 157.082275,93.482101 
	C157.283264,101.600319 157.176590,109.726151 157.220093,118.301636 
	C156.192581,117.971443 154.242325,117.207443 154.225342,116.402649 
	C154.015915,106.479057 154.088776,96.549500 154.088776,85.785095 
	C163.121002,85.785095 171.830536,85.679634 180.534241,85.858765 
	C182.728485,85.903915 184.904022,86.859421 187.033539,87.868301 
z"/>
<path fill="#673D3F" opacity="1.000000" stroke="none" 
	d="
M94.730515,103.986069 
	C95.342781,107.490883 95.708427,110.837723 96.058975,114.857239 
	C96.035095,115.710587 96.026321,115.891243 95.552391,116.122238 
	C90.385330,116.139549 85.683426,116.106506 80.981522,116.073463 
	C79.264595,115.720863 77.547661,115.368271 75.472702,114.670364 
	C75.143486,114.096245 75.172310,113.867439 75.568848,113.630417 
	C77.608490,113.622208 79.280418,113.622208 82.264732,113.622208 
	C79.987083,112.021088 79.040680,111.355797 79.125862,111.415680 
	C80.277664,109.332481 81.796967,107.827171 81.854240,106.268135 
	C82.116699,99.125214 82.132309,91.960236 81.823921,84.820999 
	C81.766800,83.498512 79.810944,82.257309 78.729111,80.980553 
	C78.560005,80.780991 78.378471,80.591957 78.196388,80.391106 
	C79.230110,79.835030 80.228928,79.297722 81.227745,78.760422 
	C81.102516,78.314056 80.977287,77.867691 80.852058,77.421326 
	C78.734856,77.795853 76.617653,78.170380 74.281578,78.282295 
	C73.754417,77.684135 73.446129,77.348595 73.137840,77.013054 
	C74.522430,76.383720 75.907021,75.754379 77.601578,74.939774 
	C79.058289,74.811897 80.205032,74.869293 81.879379,74.953102 
	C80.434647,67.207397 85.862526,68.703712 90.224335,68.621773 
	C99.319145,68.450920 92.558342,76.263542 95.435944,78.840988 
	C96.796265,81.052574 101.776138,77.322624 100.078506,82.875320 
	C98.152382,83.059456 96.910355,82.990730 94.163734,82.838745 
	C95.265457,87.702965 96.218315,91.909966 97.171188,96.116974 
	C94.144516,97.018448 92.124641,98.602493 92.785950,102.321426 
	C92.643448,95.354614 92.978783,88.247650 92.776085,81.156067 
	C92.712257,78.923225 91.205360,76.731636 90.232506,74.190979 
	C90.276306,74.166313 91.417000,73.524048 92.557701,72.881775 
	C92.508713,72.383087 92.459732,71.884392 92.410744,71.385704 
	C90.102409,71.260529 87.794067,71.135345 85.303635,71.000290 
	C85.303635,85.386810 85.303635,98.874382 85.303635,113.220985 
	C87.736168,113.018059 89.867790,112.840225 91.999420,112.662399 
	C92.039108,112.211121 92.078796,111.759842 92.118484,111.308556 
	C91.157890,110.684570 90.197296,110.060585 90.460800,110.231750 
	C91.469521,107.383331 92.269638,105.123985 93.069748,102.864632 
	C93.541130,103.185783 94.012512,103.506935 94.730515,103.986069 
z"/>
<path fill="#8A8089" opacity="1.000000" stroke="none" 
	d="
M97.488708,95.944092 
	C96.218315,91.909966 95.265457,87.702965 94.163734,82.838745 
	C96.910355,82.990730 98.152382,83.059456 99.768188,83.131096 
	C101.771057,89.807396 101.727440,89.710564 107.637062,87.048637 
	C109.028984,86.421669 110.823418,86.688316 112.755432,86.702652 
	C113.037964,87.175201 112.997757,87.488968 112.885178,88.273743 
	C112.651863,88.718887 112.463135,88.624741 112.334061,88.677246 
	C109.580376,89.797424 106.546417,92.280991 104.148468,91.770081 
	C99.943283,90.874138 98.320961,91.861084 97.488708,95.944092 
z"/>
<path fill="#EAD658" opacity="1.000000" stroke="none" 
	d="
M54.445839,113.921646 
	C53.287292,112.769836 52.426529,111.638901 51.499737,110.421219 
	C52.431675,110.096809 53.331535,109.783562 54.504578,109.375229 
	C51.723312,106.903099 51.682243,104.557396 53.754772,101.562515 
	C55.876366,98.496735 57.263481,94.922676 58.978226,91.192230 
	C58.984364,90.813362 59.085674,90.654594 59.356266,90.354836 
	C59.858292,89.392548 60.089725,88.730019 60.517639,87.899261 
	C60.767212,87.225639 60.820309,86.720261 60.873405,86.214874 
	C60.873405,86.214874 60.914829,85.725311 61.311562,85.465347 
	C62.751862,84.862823 63.795425,84.520264 64.957176,84.359467 
	C65.184502,84.230446 65.293640,83.919685 65.407860,83.313202 
	C68.257256,79.716942 68.821693,84.109718 71.071968,84.126617 
	C69.801506,86.563217 68.735924,88.428856 67.834869,90.370842 
	C65.752953,94.857895 63.750790,99.381943 61.563156,104.111557 
	C59.897198,107.228111 58.384361,110.124100 56.871525,113.020081 
	C56.162224,113.327560 55.452923,113.635040 54.445839,113.921646 
z"/>
<path fill="#76664E" opacity="1.000000" stroke="none" 
	d="
M61.716274,103.890991 
	C63.750790,99.381943 65.752953,94.857895 67.834869,90.370842 
	C68.735924,88.428856 69.801506,86.563217 71.071968,84.126617 
	C68.821693,84.109718 68.257256,79.716942 65.265877,83.454376 
	C65.118813,83.891266 64.838989,84.177711 64.838989,84.177711 
	C63.795425,84.520264 62.751862,84.862823 61.376595,85.228455 
	C62.172897,78.943710 63.843697,78.021461 69.234840,80.566635 
	C70.062241,80.957260 71.140045,80.817436 72.468445,81.235413 
	C72.523994,84.397781 72.213142,87.247673 71.551498,90.099632 
	C70.162483,91.687637 69.158241,93.297142 68.078789,94.854507 
	C65.980263,97.882133 63.839523,100.880501 61.716274,103.890991 
z"/>
<path fill="#4B312F" opacity="1.000000" stroke="none" 
	d="
M71.902283,90.097572 
	C72.213142,87.247673 72.523994,84.397781 72.839798,81.183029 
	C72.871170,79.795547 72.897606,78.772919 73.030945,77.381668 
	C73.446129,77.348595 73.754417,77.684135 74.319069,78.714241 
	C74.783997,90.818748 74.992569,102.228691 75.201134,113.638634 
	C75.172310,113.867439 75.143486,114.096245 75.078903,114.669212 
	C74.468590,114.764252 73.894043,114.515129 73.098465,113.590286 
	C72.878616,110.460373 72.981735,108.001114 72.859840,105.553047 
	C72.603157,100.398109 72.228516,95.249046 71.902283,90.097572 
z"/>
<path fill="#C6BDB3" opacity="1.000000" stroke="none" 
	d="
M50.751572,79.735031 
	C52.087624,79.106163 53.423679,78.477303 54.759731,77.848434 
	C54.935383,78.338692 55.111034,78.828957 55.286682,79.319214 
	C54.182648,79.601723 53.078613,79.884239 51.490814,80.079712 
	C51.007050,79.992683 50.751572,79.735031 50.751572,79.735031 
z"/>
<path fill="#C6BDB3" opacity="1.000000" stroke="none" 
	d="
M46.742165,82.705429 
	C47.879635,81.795654 49.017105,80.885872 50.453072,79.855560 
	C50.751572,79.735031 51.007050,79.992683 51.139107,80.121132 
	C50.108971,81.157333 48.946774,82.065086 47.351025,82.938614 
	C46.917469,82.904381 46.742165,82.705429 46.742165,82.705429 
z"/>
<path fill="#817872" opacity="1.000000" stroke="none" 
	d="
M60.605007,86.313736 
	C60.820309,86.720261 60.767212,87.225639 60.187859,87.880280 
	C59.441685,88.023705 59.221767,88.017876 59.001846,88.012047 
	C59.446770,87.478905 59.891689,86.945755 60.605007,86.313736 
z"/>
<path fill="#C6BDB3" opacity="1.000000" stroke="none" 
	d="
M47.006905,83.002243 
	C46.680660,83.510124 46.264980,83.920151 45.849304,84.330170 
	C45.991657,83.846062 46.134007,83.361946 46.509262,82.791626 
	C46.742165,82.705429 46.917469,82.904381 47.006905,83.002243 
z"/>
<path fill="#76664E" opacity="1.000000" stroke="none" 
	d="
M58.901600,88.144821 
	C59.221767,88.017876 59.441685,88.023705 59.991383,88.048508 
	C60.089725,88.730019 59.858292,89.392548 59.330879,90.264160 
	C58.978882,90.162865 58.922859,89.852486 58.802948,89.073288 
	C58.739059,88.604462 58.801353,88.277603 58.901600,88.144821 
z"/>
<path fill="#CE875B" opacity="1.000000" stroke="none" 
	d="
M80.517975,116.137604 
	C85.683426,116.106506 90.385330,116.139549 95.934219,116.182098 
	C97.554070,116.147224 98.326935,116.102852 99.099808,116.058472 
	C99.800667,116.093048 100.501534,116.127625 101.871857,116.191772 
	C102.975014,116.291138 103.408714,116.360947 103.842407,116.430756 
	C103.953560,117.749840 104.064705,119.068932 104.210709,120.787918 
	C95.609825,121.377472 86.974800,121.666527 78.338158,121.727684 
	C70.350082,121.784264 62.353962,121.743652 54.376225,121.400696 
	C52.651939,121.326569 50.991055,119.777740 49.300964,118.908188 
	C51.063828,118.103645 52.801796,116.672485 54.593788,116.601311 
	C63.072586,116.264526 71.566139,116.299355 80.517975,116.137604 
M87.489830,120.003647 
	C91.926155,120.003647 96.362480,120.003647 100.798805,120.003647 
	C100.780853,119.562721 100.762901,119.121788 100.744949,118.680862 
	C88.584381,118.680862 76.423820,118.680862 64.263260,118.680862 
	C64.263863,119.121796 64.264473,119.562729 64.265083,120.003662 
	C71.674377,120.003662 79.083672,120.003662 87.489830,120.003647 
z"/>
<path fill="#BFE1DB" opacity="1.000000" stroke="none" 
	d="
M71.551491,90.099632 
	C72.228516,95.249046 72.603157,100.398109 72.859840,105.553047 
	C72.981735,108.001114 72.878616,110.460373 72.867889,113.374222 
	C67.707352,113.794304 62.556351,113.754738 57.138435,113.367630 
	C58.384361,110.124100 59.897198,107.228111 61.563156,104.111557 
	C63.839523,100.880501 65.980263,97.882133 68.078789,94.854507 
	C69.158241,93.297142 70.162483,91.687637 71.551491,90.099632 
z"/>
<path fill="#C38057" opacity="1.000000" stroke="none" 
	d="
M55.517979,135.185989 
	C54.891357,132.085709 54.305454,129.159088 54.507854,126.288048 
	C54.559799,125.551208 57.098545,124.989693 58.494835,124.347633 
	C58.904789,127.181534 59.652256,130.030258 59.528790,132.840729 
	C59.489315,133.739380 57.142834,134.536667 55.517979,135.185989 
z"/>
<path fill="#CB855A" opacity="1.000000" stroke="none" 
	d="
M99.463478,134.751389 
	C97.886192,134.117340 95.450027,133.179337 95.449364,132.239578 
	C95.447487,129.610153 96.452415,126.979996 97.060043,124.350128 
	C98.058746,125.069565 99.829262,125.708961 99.913704,126.523209 
	C100.183983,129.129486 99.829544,131.800568 99.463478,134.751389 
z"/>
<path fill="#6C4D42" opacity="1.000000" stroke="none" 
	d="
M104.218155,116.366013 
	C103.408714,116.360947 102.975014,116.291138 102.220024,116.141052 
	C103.124001,115.953110 104.349266,115.845459 105.845917,115.942917 
	C105.609497,116.199104 105.101707,116.250191 104.218155,116.366013 
z"/>
<path fill="#6C4D42" opacity="1.000000" stroke="none" 
	d="
M98.835289,115.863663 
	C98.326935,116.102852 97.554070,116.147224 96.399368,116.131744 
	C96.026321,115.891243 96.035095,115.710587 96.068817,115.259628 
	C96.919426,115.215843 97.745094,115.442352 98.835289,115.863663 
z"/>
<path fill="#DE4E62" opacity="1.000000" stroke="none" 
	d="
M93.048752,102.906097 
	C92.269638,105.123985 91.469521,107.383331 90.460800,110.231750 
	C90.197296,110.060585 91.157890,110.684570 92.118484,111.308556 
	C92.078796,111.759842 92.039108,112.211121 91.999420,112.662399 
	C89.867790,112.840225 87.736168,113.018059 85.303635,113.220985 
	C85.303635,98.874382 85.303635,85.386810 85.303635,71.000290 
	C87.794067,71.135345 90.102409,71.260529 92.410744,71.385704 
	C92.459732,71.884392 92.508713,72.383087 92.557701,72.881775 
	C91.417000,73.524048 90.276306,74.166313 90.232506,74.190979 
	C91.205360,76.731636 92.712257,78.923225 92.776085,81.156067 
	C92.978783,88.247650 92.643448,95.354614 92.813370,102.722626 
	C93.110657,102.989624 93.027763,102.947556 93.048752,102.906097 
z"/>
<path fill="#73BCC2" opacity="1.000000" stroke="none" 
	d="
M75.568848,113.630417 
	C74.992569,102.228691 74.783997,90.818748 74.537941,78.976860 
	C76.617653,78.170380 78.734856,77.795853 80.852058,77.421326 
	C80.977287,77.867691 81.102516,78.314056 81.227745,78.760422 
	C80.228928,79.297722 79.230110,79.835030 78.196388,80.391106 
	C78.378471,80.591957 78.560005,80.780991 78.729111,80.980553 
	C79.810944,82.257309 81.766800,83.498512 81.823921,84.820999 
	C82.132309,91.960236 82.116699,99.125214 81.854240,106.268135 
	C81.796967,107.827171 80.277664,109.332481 79.125862,111.415680 
	C79.040680,111.355797 79.987083,112.021088 82.264732,113.622208 
	C79.280418,113.622208 77.608490,113.622208 75.568848,113.630417 
z"/>
<path fill="#76664E" opacity="1.000000" stroke="none" 
	d="
M65.260796,83.750092 
	C65.293640,83.919685 65.184502,84.230446 64.957176,84.359467 
	C64.838989,84.177711 65.118813,83.891266 65.260796,83.750092 
z"/>
<path fill="#7C4F3D" opacity="1.000000" stroke="none" 
	d="
M86.991394,120.003654 
	C79.083672,120.003662 71.674377,120.003662 64.265083,120.003662 
	C64.264473,119.562729 64.263863,119.121796 64.263260,118.680862 
	C76.423820,118.680862 88.584381,118.680862 100.744949,118.680862 
	C100.762901,119.121788 100.780853,119.562721 100.798805,120.003647 
	C96.362480,120.003647 91.926155,120.003647 86.991394,120.003654 
z"/>
</svg>