<svg version="1.1" id="Layer_1" xmlns="http://www.w3.org/2000/svg" xmlns:xlink="http://www.w3.org/1999/xlink" x="0px" y="0px"
	 width="100%" viewBox="0 0 500 500" enable-background="new 0 0 500 500" xml:space="preserve">
<path fill="#FEFEFF" opacity="1.000000" stroke="none" 
	d="
M224.000000,501.000000 
	C150.666687,501.000000 77.833313,500.969238 5.000220,501.096313 
	C1.575830,501.102295 0.903037,500.423798 0.905301,497.000000 
	C1.013779,333.000092 1.013772,169.000122 0.905333,5.000234 
	C0.903070,1.576905 1.575833,0.903023 4.999889,0.905288 
	C168.999771,1.013774 332.999725,1.013761 496.999634,0.905352 
	C500.422668,0.903090 501.096985,1.575452 501.094727,4.999770 
	C500.986206,168.999664 500.986237,332.999634 501.094604,496.999542 
	C501.096893,500.422363 500.425293,501.100342 497.000275,501.095795 
	C406.166962,500.975220 315.333466,501.000000 224.000000,501.000000 
z"/>
<path fill="#C8ECE5" opacity="1.000000" stroke="none" 
	d="
M107.748810,175.115921 
	C113.885185,164.989120 123.178970,162.317307 133.952927,162.967285 
	C143.473648,163.541641 151.338974,167.863312 155.347244,176.247940 
	C159.473053,184.878433 162.868042,193.432861 170.210190,200.272675 
	C174.584045,204.347290 175.298294,210.996124 173.056427,217.134750 
	C172.022110,219.966904 171.496674,222.486282 174.123123,224.840424 
	C174.898529,225.535416 175.109665,226.898621 175.492981,227.986069 
	C178.062988,235.276642 177.729614,235.740738 169.908051,235.984360 
	C169.272919,236.004150 168.641113,236.131119 166.588974,236.381180 
	C168.554855,236.769089 169.127548,236.871735 169.695496,236.996109 
	C171.375000,237.363861 173.858521,235.981155 174.611755,238.119781 
	C175.402039,240.363586 173.506134,242.193100 171.859650,243.561066 
	C169.577835,245.456863 167.136948,248.186127 164.188416,247.769241 
	C158.690521,246.991898 155.314163,250.022858 151.572052,252.954498 
	C146.221344,257.146362 138.528427,257.458862 133.087158,253.443314 
	C130.754044,251.721512 129.431412,252.134079 127.577576,253.889709 
	C119.076538,261.940491 109.239357,264.178955 98.254807,259.910004 
	C87.746483,255.826111 81.926117,247.767151 80.139168,236.840714 
	C79.730377,234.341187 79.311455,233.313019 76.526070,232.766785 
	C68.800072,231.251694 64.725426,225.899750 63.288353,218.370514 
	C62.783951,215.727814 65.692963,212.151703 68.430740,212.034103 
	C69.894814,211.971207 71.363800,212.022934 72.898399,211.309174 
	C71.928505,211.196671 70.948982,211.136368 69.990913,210.959717 
	C68.463989,210.678162 66.223206,211.922836 65.565521,209.940186 
	C65.048035,208.380219 66.399231,206.402008 67.837204,205.846741 
	C74.669464,203.208466 77.206573,197.062744 80.579407,191.126465 
	C83.069038,193.534988 82.334175,198.720901 87.979034,198.634903 
	C90.504669,198.726898 92.671928,198.620010 94.830566,198.739517 
	C99.665665,199.007217 100.708122,200.714767 98.542068,205.157196 
	C96.866959,208.592728 94.950493,211.916733 92.943108,215.172729 
	C91.396645,217.681122 91.536903,219.799484 94.082855,221.985046 
	C94.323082,223.440689 93.490417,224.075516 92.704582,225.124695 
	C91.075485,226.909225 91.133598,228.655319 91.888023,230.769806 
	C95.338104,232.314941 96.630089,234.720261 96.385063,238.105057 
	C96.301315,239.261887 96.441063,240.435150 96.391571,241.595810 
	C96.279724,244.219147 97.190689,245.609558 100.114212,245.551788 
	C102.757240,245.499557 103.439568,244.255020 103.628975,241.861160 
	C104.439590,231.616165 104.498093,231.616425 114.902840,231.619370 
	C120.391350,231.620911 125.881844,231.518463 131.367798,231.661316 
	C136.167664,231.786301 137.100967,232.797318 137.350311,237.618820 
	C137.419022,238.947235 137.483124,240.286804 137.394501,241.608231 
	C137.188110,244.686462 138.680130,245.605331 141.586929,245.633911 
	C144.650055,245.664032 145.667450,244.423050 145.648209,241.480179 
	C145.627914,238.375427 145.021759,235.111816 147.245270,231.970551 
	C147.650070,231.471085 147.806870,231.273361 148.201813,230.795624 
	C149.815689,229.222992 149.899826,227.762466 148.812439,225.861755 
	C143.236801,221.930466 142.906158,221.075912 144.866150,214.761108 
	C147.924408,213.046204 150.909744,213.680969 154.231384,213.488480 
	C157.965240,213.722656 161.274521,213.611069 164.961121,213.591156 
	C167.588898,213.476547 169.229340,212.569794 169.512939,210.148758 
	C169.792801,207.759491 168.742172,206.036667 166.718094,204.737000 
	C163.243637,202.506073 158.432022,202.150040 156.282196,197.506866 
	C154.660660,197.172012 153.363480,197.091782 151.757751,197.639099 
	C151.220123,197.867569 151.001633,197.961685 150.444672,198.193298 
	C148.378891,198.936356 146.652039,199.338425 144.673279,198.027573 
	C143.738251,196.526825 143.624603,195.182632 143.646194,193.855759 
	C143.687622,191.309921 143.354507,189.346725 140.071823,189.112869 
	C137.364883,188.920029 136.973419,186.631500 136.634308,184.346146 
	C136.295837,182.065247 138.039413,178.519745 133.499588,178.404617 
	C130.039734,178.316879 126.186890,177.513565 125.850578,182.852463 
	C125.808762,183.516281 125.192772,183.981415 124.253281,184.428650 
	C120.705109,180.908966 116.341011,180.400970 111.634781,179.800415 
	C109.930992,178.398743 108.425598,177.262146 107.748810,175.115921 
z"/>
<path fill="#040508" opacity="1.000000" stroke="none" 
	d="
M186.077698,193.621521 
	C188.389542,186.033203 191.339310,183.726578 198.715424,183.672440 
	C208.694946,183.599197 218.675903,183.595413 228.655365,183.673798 
	C237.371185,183.742264 242.525620,189.060730 242.503769,197.701752 
	C242.478104,207.847885 242.492523,217.994141 242.485489,228.140335 
	C242.479889,236.214859 239.100235,239.614197 230.976746,239.634415 
	C220.664062,239.660065 210.350784,239.703705 200.038696,239.620972 
	C190.568192,239.544998 186.023163,234.922150 186.007629,225.491165 
	C185.990387,215.012390 186.030060,204.533508 186.077698,193.621521 
z"/>
<path fill="#020304" opacity="1.000000" stroke="none" 
	d="
M368.434692,195.419586 
	C368.868896,191.372833 367.674896,186.338165 369.578552,184.484207 
	C372.103638,182.025055 377.120880,183.747696 381.058502,183.703262 
	C391.214874,183.588654 401.374115,183.736221 411.530701,183.633255 
	C415.999023,183.587952 419.683777,184.931366 422.696442,188.747437 
	C423.243317,189.246017 423.506195,189.552185 423.870728,190.149887 
	C423.985321,190.430252 423.969116,190.556580 424.030518,190.573425 
	C426.496399,197.226105 426.152557,204.011475 424.233704,210.553619 
	C422.789948,215.475861 418.408295,217.543976 413.534302,218.259613 
	C410.908966,218.645050 408.244385,218.463074 405.556793,218.367844 
	C406.967224,219.563690 408.418640,220.686569 409.616333,222.061676 
	C412.273621,225.112671 415.500732,226.542969 419.628479,226.681396 
	C424.448303,226.843063 425.525238,228.483337 425.411804,233.895645 
	C425.306305,238.928894 424.220795,240.205643 419.375244,240.382904 
	C416.089264,240.503128 412.726868,240.928635 409.209900,239.195038 
	C402.907623,233.158737 396.988892,227.337402 391.035034,221.552246 
	C389.728973,220.283218 388.429352,218.929153 386.897675,217.986465 
	C383.338684,215.796051 380.740479,217.180527 380.630554,221.336929 
	C380.494354,226.486954 380.420471,231.651413 380.665619,236.793137 
	C380.781433,239.221893 380.269653,240.025345 377.796967,239.659332 
	C375.179413,239.271881 372.514008,239.207611 369.462952,238.967606 
	C367.924805,237.797028 367.647491,236.356644 367.641205,234.839981 
	C367.589722,222.477921 367.484924,210.115677 367.700043,197.754120 
	C367.711578,197.092789 367.925720,196.458313 368.434692,195.419586 
z"/>
<path fill="#020304" opacity="1.000000" stroke="none" 
	d="
M429.429871,196.479797 
	C430.499359,187.071869 434.079071,183.718185 443.106659,183.673370 
	C452.930145,183.624588 462.754730,183.592468 472.577576,183.684616 
	C481.159302,183.765121 485.450104,188.004852 485.521454,196.594193 
	C485.629364,209.580597 485.451538,222.569916 485.626923,235.554855 
	C485.670288,238.763794 484.551392,239.404419 481.593689,239.362579 
	C474.060913,239.255936 474.070129,239.401550 474.054199,232.013428 
	C474.045593,228.018219 473.949738,224.022858 473.973419,220.028061 
	C473.985687,217.952866 473.223053,217.162064 471.018402,217.190872 
	C462.028717,217.308380 453.035950,217.298843 444.045898,217.196869 
	C441.892365,217.172440 441.133911,217.784470 441.202576,220.001862 
	C441.351990,224.825836 440.972351,229.678391 441.333588,234.479813 
	C441.632660,238.455139 440.317749,239.914963 436.411133,239.319611 
	C434.610718,239.045242 432.760742,239.096512 430.469421,238.938004 
	C428.621948,237.635727 428.488037,235.936203 428.471558,234.277893 
	C428.357544,222.784149 428.313232,211.289841 428.491547,199.796173 
	C428.507111,198.793701 428.716583,197.810684 429.429871,196.479797 
z"/>
<path fill="#020304" opacity="1.000000" stroke="none" 
	d="
M307.554382,193.620148 
	C309.954254,186.307007 313.013550,183.765350 319.936157,183.694687 
	C330.252441,183.589386 340.571045,183.722580 350.887756,183.640411 
	C355.181274,183.606216 358.672882,185.039337 361.597534,188.622559 
	C362.180878,189.142792 362.477325,189.484741 362.861786,190.173233 
	C362.982758,190.491226 362.991241,190.506165 362.995911,190.513412 
	C364.425873,192.522064 364.627319,194.812851 364.629089,197.172104 
	C364.637878,208.796341 364.695862,220.421005 364.605835,232.044693 
	C364.543854,240.051895 362.788788,241.363251 354.463684,239.392242 
	C351.305145,239.067230 352.103210,237.009750 352.080872,235.539291 
	C352.007996,230.733841 351.953613,225.925491 352.045746,221.121201 
	C352.099365,218.324066 351.394531,217.049271 348.144287,217.150513 
	C339.699280,217.413574 331.238434,217.348450 322.788727,217.176712 
	C320.009613,217.120224 319.042450,217.867310 319.185730,220.730591 
	C319.417450,225.359955 319.016693,230.024704 319.322327,234.645447 
	C319.559509,238.231339 318.679047,239.952515 314.782501,239.326874 
	C312.832092,239.013702 310.819244,239.089523 308.376221,238.864914 
	C306.622131,237.458679 306.484192,235.779099 306.470795,234.126495 
	C306.371521,221.874802 306.328217,209.622742 306.489075,197.371140 
	C306.504395,196.205429 306.719421,195.065308 307.554382,193.620148 
z"/>
<path fill="#020203" opacity="1.000000" stroke="none" 
	d="
M262.590210,205.436371 
	C271.196716,205.731888 279.472137,205.687744 287.741699,205.886780 
	C290.333557,205.949158 291.216187,205.211349 291.114899,202.569977 
	C290.924713,197.611404 291.272186,192.628082 290.986145,187.678741 
	C290.795197,184.374741 291.868530,183.153549 295.103546,183.652023 
	C297.355896,183.999084 299.720367,183.079590 302.088196,184.645432 
	C303.724335,186.917648 303.589996,189.121094 303.596802,191.260483 
	C303.639893,204.844742 303.674255,218.429367 303.591431,232.013290 
	C303.542419,240.054977 301.810242,241.361557 293.539185,239.384979 
	C290.375061,239.141998 291.095490,237.097473 291.077148,235.594757 
	C291.018188,230.766006 290.946259,225.934555 291.049744,221.107788 
	C291.110901,218.255981 290.335693,217.045456 287.103760,217.147507 
	C278.785004,217.410156 270.445435,217.434616 262.128693,217.141327 
	C258.578094,217.016113 258.052521,218.394928 258.186981,221.414795 
	C258.401642,226.234909 258.118561,231.076172 258.294708,235.899414 
	C258.387817,238.448456 257.704712,239.650574 254.985138,239.313370 
	C253.505783,239.129944 251.979309,239.084000 250.496597,239.220505 
	C247.343933,239.510727 246.745041,238.062332 246.774139,235.138107 
	C246.926620,219.817871 247.043900,204.491165 246.724533,189.176071 
	C246.628555,184.573227 247.917648,182.886917 252.400452,183.652145 
	C254.166641,183.953644 256.067352,183.155182 257.897156,184.703827 
	C260.623810,189.285568 259.107483,193.881927 259.411560,198.271286 
	C259.598206,200.965790 259.416504,203.654160 262.590210,205.436371 
z"/>
<path fill="#B5CBF8" opacity="1.000000" stroke="none" 
	d="
M429.387817,195.954269 
	C429.784882,210.031509 429.868774,223.997192 429.979126,238.419373 
	C429.142517,242.666275 426.623108,243.424210 423.087067,243.053818 
	C418.271423,242.549347 412.944153,244.364914 409.012512,239.296051 
	C411.658020,239.022018 414.476898,239.114807 417.296082,239.124374 
	C424.089386,239.147430 426.182465,236.102509 424.094940,229.552460 
	C423.702484,228.321030 423.085815,227.830414 422.038086,228.070419 
	C412.744293,230.199387 408.498840,223.277802 402.598083,217.041122 
	C406.263336,217.041122 409.129364,217.092697 411.993011,217.031143 
	C419.648468,216.866608 424.103638,212.571716 424.237457,205.039566 
	C424.316956,200.564713 424.093170,196.084457 424.048828,191.098450 
	C427.089813,191.072769 427.269562,194.228638 429.387817,195.954269 
z"/>
<path fill="#8BADF0" opacity="1.000000" stroke="none" 
	d="
M293.211121,239.460175 
	C302.170563,238.863083 302.180145,238.863068 302.168335,229.638336 
	C302.149719,215.084167 302.116730,200.530029 302.175232,185.526917 
	C306.863953,185.686676 306.684174,189.441666 307.566650,192.964325 
	C307.906158,208.108841 307.948914,222.982162 307.954742,238.297943 
	C305.406097,244.258820 299.805756,244.664246 293.211121,239.460175 
z"/>
<path fill="#8BADF0" opacity="1.000000" stroke="none" 
	d="
M354.105835,239.492813 
	C363.173523,238.823227 363.210144,238.823059 363.164459,229.231857 
	C363.104645,216.664734 362.979889,204.097916 362.941803,191.025818 
	C365.316071,191.071838 366.167816,193.065201 367.523651,195.032593 
	C368.849457,196.142761 368.469025,197.377319 368.468201,198.483643 
	C368.458252,211.688934 368.556213,224.894394 368.216614,238.540344 
	C367.403595,242.518860 361.694397,244.484039 357.581268,242.436386 
	C356.329956,241.813431 355.311737,240.722275 354.105835,239.492813 
z"/>
<path fill="#8BADF0" opacity="1.000000" stroke="none" 
	d="
M262.903076,205.235229 
	C259.120331,206.628098 257.621002,205.364334 257.878174,201.264236 
	C258.195435,196.205002 257.909821,191.107971 257.966492,185.580353 
	C261.520142,186.276901 262.849792,188.737320 262.771576,192.307877 
	C262.680450,196.465225 262.834747,200.627975 262.903076,205.235229 
z"/>
<path fill="#9A938C" opacity="1.000000" stroke="none" 
	d="
M88.270370,199.578156 
	C82.651466,199.833527 80.857979,196.614639 80.902229,191.340698 
	C82.546242,185.860947 88.222908,185.463638 91.646667,181.996765 
	C92.148338,182.154236 92.299652,182.333710 92.579437,182.841492 
	C92.690063,185.965591 91.143509,187.684769 88.790344,188.925262 
	C83.304222,191.817337 83.232056,192.744339 88.206825,197.559601 
	C88.549492,198.327591 88.567268,198.800339 88.270370,199.578156 
z"/>
<path fill="#9A938C" opacity="1.000000" stroke="none" 
	d="
M107.415131,174.683273 
	C108.450317,176.287735 110.662674,176.490341 110.643707,178.942490 
	C110.233536,179.568146 110.014191,179.646057 109.448944,179.754044 
	C105.358299,177.930786 101.856735,178.776703 98.112297,180.703964 
	C97.557838,180.568619 97.347206,180.472610 96.941910,180.089081 
	C98.465584,174.702774 102.419594,174.013809 107.415131,174.683273 
z"/>
<path fill="#C8ECE5" opacity="1.000000" stroke="none" 
	d="
M368.267273,238.991028 
	C367.954865,224.691345 367.906799,210.401535 367.828522,195.672180 
	C367.798309,195.232635 368.209717,194.996368 368.446960,194.994049 
	C368.768707,209.332382 368.853241,223.673019 368.997101,238.473343 
	C368.881531,238.955658 368.706604,238.978271 368.267273,238.991028 
z"/>
<path fill="#7C6950" opacity="1.000000" stroke="none" 
	d="
M96.484070,180.040604 
	C97.057518,179.868240 97.367790,179.934921 98.151108,180.054840 
	C99.365921,181.912643 99.597618,183.845993 97.846611,185.021210 
	C96.073433,186.211349 94.437675,184.726288 92.479774,183.758911 
	C92.096924,183.290329 92.075523,183.027328 92.025566,182.369553 
	C93.310730,181.174881 95.568779,182.728043 96.484070,180.040604 
z"/>
<path fill="#B5CBF8" opacity="1.000000" stroke="none" 
	d="
M423.975739,190.095459 
	C423.674927,190.156311 423.364563,189.882370 423.009766,189.280640 
	C423.298950,189.222122 423.632538,189.491394 423.975739,190.095459 
z"/>
<path fill="#8BADF0" opacity="1.000000" stroke="none" 
	d="
M362.974670,190.122528 
	C362.645233,190.181824 362.307739,189.872406 361.910828,189.196228 
	C362.223175,189.137573 362.594879,189.445694 362.974670,190.122528 
z"/>
<path fill="#604546" opacity="1.000000" stroke="none" 
	d="
M122.710922,183.647797 
	C124.480156,184.071609 125.318832,183.632370 125.313271,182.056503 
	C125.284645,173.948517 131.452911,178.195175 134.811310,177.660339 
	C139.223206,176.957764 138.025436,180.930527 137.963150,183.268005 
	C137.872452,186.671951 138.100143,189.255814 142.585251,188.624207 
	C144.195389,188.397461 144.946716,189.485870 144.926193,191.110092 
	C144.900970,193.106720 144.942719,195.104187 144.994812,197.547546 
	C145.387589,198.408691 145.536545,198.886856 145.321243,199.781891 
	C144.737228,200.427826 144.265747,200.570908 143.398651,200.451050 
	C141.454315,198.771851 141.858109,195.891418 139.221191,194.636536 
	C138.789444,194.125366 138.618271,193.807007 138.533279,193.256256 
	C138.497040,193.074799 138.785400,192.860504 138.607239,192.918869 
	C138.501556,193.278473 138.538467,193.584122 138.628021,194.175049 
	C139.284637,196.030594 139.327591,197.829132 140.884399,199.330429 
	C141.172989,199.793625 141.258591,199.995682 141.321777,200.521667 
	C141.171173,201.014496 141.042969,201.183411 140.621918,201.409332 
	C140.023224,201.469971 139.722122,201.507217 139.425766,201.578064 
	C139.580536,202.157227 140.420929,201.641495 140.657211,202.597244 
	C140.770065,205.713943 139.232590,207.021042 136.239243,207.088165 
	C133.571487,202.533966 135.080841,197.793884 134.723526,193.221115 
	C134.505325,190.428711 135.069473,187.519836 132.709885,185.260239 
	C132.134995,184.709686 131.722458,183.950714 132.109009,183.009811 
	C132.447403,182.186188 134.274078,180.975739 131.748581,180.674896 
	C130.362793,180.509781 129.711258,181.413300 129.502441,182.779816 
	C127.658173,194.849060 127.661934,206.921921 129.419128,218.993469 
	C129.638031,220.497330 129.780624,220.476578 132.760071,221.458023 
	C128.774261,216.427231 135.849960,215.569794 136.155304,211.793335 
	C139.784485,211.480179 143.333527,210.514267 145.649078,214.490387 
	C144.937195,218.648209 142.540207,223.106766 149.436890,223.542770 
	C149.738083,223.561798 149.975510,224.589661 149.924225,225.761810 
	C148.992172,226.566116 148.413071,226.457474 147.598358,226.033798 
	C146.652786,225.486771 145.923599,225.403564 144.861694,225.702469 
	C143.938675,225.898468 143.305450,225.907867 142.336243,225.843872 
	C141.077621,225.722992 140.162720,225.774521 138.889313,226.084915 
	C134.231430,226.499710 129.942642,226.424011 125.260010,226.164429 
	C123.123955,225.688507 121.398262,225.038376 119.188805,225.802628 
	C118.009132,226.023682 117.210869,226.031540 116.009705,225.900528 
	C111.052643,225.084991 106.491241,225.123581 101.525650,225.858521 
	C99.462852,226.281876 97.801376,226.390106 95.753937,225.777527 
	C94.869431,225.293701 94.564491,224.845016 94.484070,223.847382 
	C94.694344,222.891434 94.961349,222.402252 95.649139,221.700867 
	C96.749886,221.046951 97.579018,220.902451 98.849258,220.829956 
	C99.829163,220.847458 100.383690,220.910416 101.338638,221.094254 
	C114.547707,222.471756 114.547501,222.471756 114.548698,209.672211 
	C114.548958,206.877670 114.548096,204.083145 114.569382,200.876587 
	C114.865486,197.147995 113.418137,193.849487 114.517380,190.100433 
	C114.576485,186.517715 115.398224,183.881348 119.351715,182.938950 
	C120.688759,182.810379 121.545845,182.961411 122.710922,183.647797 
z"/>
<path fill="#F5F3E7" opacity="1.000000" stroke="none" 
	d="
M142.832565,199.722656 
	C143.487366,199.888199 143.915466,199.875656 144.656403,199.788116 
	C147.021347,199.447433 149.191452,199.475830 150.800476,197.233490 
	C151.054108,196.992538 150.986221,196.980392 150.976501,197.013474 
	C152.201035,196.094208 153.634171,196.676758 155.381912,196.578354 
	C158.164810,200.429947 161.658188,202.717194 165.617126,204.729233 
	C169.701462,206.805038 169.877243,208.766479 167.169525,213.429565 
	C162.999039,214.196259 159.145737,214.398163 154.920746,214.836700 
	C151.836212,214.977493 149.128983,214.945786 146.031555,214.917969 
	C143.383011,211.911606 139.260498,214.500259 136.181946,211.715118 
	C134.951447,210.390930 134.953705,209.289688 135.628052,207.633072 
	C138.284515,206.151474 140.273315,204.940765 140.631744,201.784988 
	C140.604218,201.359299 140.895432,201.281448 140.968750,201.149765 
	C141.258652,200.700729 141.442123,200.365082 141.817230,199.827255 
	C142.226837,199.608719 142.416351,199.576645 142.832565,199.722656 
z"/>
<path fill="#6F4B3E" opacity="1.000000" stroke="none" 
	d="
M148.947220,230.888367 
	C145.333481,234.202682 146.212814,238.453598 146.479218,242.336746 
	C146.757782,246.396912 144.814377,246.942459 141.418732,246.922897 
	C138.071701,246.903595 136.245392,246.417725 136.253433,242.361160 
	C136.272064,232.971863 136.069550,232.971375 126.516747,232.971497 
	C120.537239,232.971588 114.553955,233.097000 108.579887,232.916901 
	C105.806786,232.833267 104.566566,233.628815 104.904251,236.523300 
	C105.076309,237.998032 104.936592,239.509552 104.931892,241.004410 
	C104.914055,246.678558 104.412071,247.030807 98.668922,246.887970 
	C96.195595,246.826462 94.866844,246.136520 95.049187,243.487640 
	C95.117455,242.495956 94.954475,241.483383 95.070312,240.500778 
	C95.568092,236.278442 95.233879,232.595825 89.887451,231.442535 
	C90.117165,230.847839 90.379875,230.662567 91.064064,230.242554 
	C97.605392,228.836716 103.769676,229.579773 109.914368,229.608566 
	C122.233467,229.666275 134.553848,229.397552 147.337662,229.885559 
	C148.086029,230.183411 148.368469,230.342926 148.947220,230.888367 
z"/>
<path fill="#7C6950" opacity="1.000000" stroke="none" 
	d="
M96.260345,220.886292 
	C95.982895,221.679596 95.763435,222.138931 95.263077,222.860931 
	C94.815155,223.211365 94.648132,223.299118 94.272079,223.196075 
	C89.417366,220.502350 89.962944,217.335922 92.512375,213.496368 
	C94.690712,210.215729 96.326790,206.579071 98.285271,203.146973 
	C99.590584,200.859497 99.140587,199.851166 96.399399,199.952698 
	C93.927650,200.044235 91.449203,199.955063 88.520409,199.911530 
	C88.060562,199.504456 88.054031,199.131424 88.062820,198.478378 
	C89.841110,196.076904 92.319542,196.636658 94.513847,196.729507 
	C98.181412,196.884720 100.640602,195.631409 102.602852,192.381744 
	C107.090477,184.949844 107.611267,184.945435 115.575363,189.560913 
	C114.516708,193.018066 116.254761,196.221481 115.821884,199.852325 
	C110.637955,204.939209 108.892784,211.707077 105.216034,217.274643 
	C104.068741,219.011963 103.731140,221.329575 101.235641,222.147827 
	C100.440834,221.951813 99.964294,221.926208 99.132843,221.851944 
	C97.772804,219.640701 99.022675,217.994507 100.060944,216.318939 
	C103.899277,210.124619 107.018456,203.531219 110.658096,197.224808 
	C111.665222,195.479767 113.355820,193.126831 109.084824,192.838104 
	C108.675377,193.185806 108.520226,193.338470 108.141136,193.734375 
	C103.499580,201.067780 98.738380,207.985367 96.705856,216.609589 
	C96.649857,217.154785 96.603241,217.368713 96.419891,217.873627 
	C95.636665,218.970215 96.099060,219.759491 96.260345,220.886292 
z"/>
<path fill="#9A938C" opacity="1.000000" stroke="none" 
	d="
M166.765854,213.224670 
	C169.286514,207.860733 169.139709,206.617432 162.008438,203.852829 
	C158.783432,202.602570 157.458298,200.708237 155.994629,197.910217 
	C155.807190,197.307541 155.655670,197.039871 155.753082,196.383789 
	C159.792343,199.869675 164.835663,201.918060 169.119202,205.033035 
	C172.565628,207.539215 171.713196,211.508286 167.286835,214.830658 
	C166.612000,214.476974 166.486221,214.026306 166.765854,213.224670 
z"/>
<path fill="#9A938C" opacity="1.000000" stroke="none" 
	d="
M122.990005,183.546402 
	C122.357712,183.965607 121.631775,184.050003 120.539886,184.119568 
	C118.573067,182.580780 116.565971,182.619049 114.570557,182.685837 
	C112.915497,182.741226 111.162445,183.127380 110.362213,180.644226 
	C110.410126,180.034103 110.481728,179.795914 110.787872,179.267609 
	C111.022423,178.977493 110.999634,178.999588 110.987427,179.009674 
	C115.056519,180.111099 120.568436,177.133865 122.990005,183.546402 
z"/>
<path fill="#7C6950" opacity="1.000000" stroke="none" 
	d="
M166.558426,213.017883 
	C166.970184,213.359833 166.959976,213.792694 166.939194,214.549957 
	C163.131729,214.943573 159.334808,215.012802 155.040680,215.045624 
	C157.960159,211.645126 162.353027,214.235825 166.558426,213.017883 
z"/>
<path fill="#7C6950" opacity="1.000000" stroke="none" 
	d="
M150.660309,196.911713 
	C149.769943,198.960876 149.461182,202.649887 145.287231,199.897217 
	C144.971985,199.330307 144.974701,198.947525 145.005768,198.279266 
	C147.066422,198.902802 148.579391,197.475098 150.660309,196.911713 
z"/>
<path fill="#FEFEFF" opacity="1.000000" stroke="none" 
	d="
M156.778397,234.024292 
	C156.219742,233.681824 153.973221,233.565231 155.859543,233.228836 
	C159.469315,232.585083 163.275314,233.041748 167.008331,234.027710 
	C163.730103,234.027710 160.451889,234.027710 156.778397,234.024292 
z"/>
<path fill="#FEFEFF" opacity="1.000000" stroke="none" 
	d="
M81.450218,214.983841 
	C78.425247,214.984360 75.812576,214.984360 73.199905,214.984360 
	C73.196297,214.758514 73.192696,214.532669 73.189087,214.306824 
	C76.742538,214.306824 80.295982,214.306824 83.879257,214.306824 
	C83.825737,214.474869 83.822815,214.603546 83.757118,214.664185 
	C83.640358,214.771942 83.491318,214.897217 83.345596,214.911575 
	C82.853653,214.960022 82.357231,214.962967 81.450218,214.983841 
z"/>
<path fill="#604546" opacity="1.000000" stroke="none" 
	d="
M91.560867,230.615997 
	C91.081856,230.886642 90.836967,230.920364 90.223267,230.993591 
	C89.648438,228.595383 88.934822,226.108032 91.025162,223.734894 
	C91.703156,223.716248 91.912758,223.811707 92.283905,224.209610 
	C92.509399,226.498840 94.777969,228.730072 91.560867,230.615997 
z"/>
<path fill="#6F4B3E" opacity="1.000000" stroke="none" 
	d="
M93.770416,223.009125 
	C94.063042,223.005310 94.520935,223.078690 94.751556,223.101135 
	C94.990204,223.536270 94.998238,223.948944 95.010841,224.672089 
	C94.420631,225.605484 93.689026,225.746475 92.536789,225.389877 
	C92.041222,224.950104 91.882042,224.711212 91.608200,224.046539 
	C92.154961,223.418167 92.816376,223.215546 93.770416,223.009125 
z"/>
<path fill="#7C6950" opacity="1.000000" stroke="none" 
	d="
M155.603882,195.875870 
	C155.988770,196.258453 155.975494,196.521576 155.960480,197.179947 
	C154.568054,197.466263 153.177399,197.357315 151.376770,197.147461 
	C151.838394,194.837784 153.663010,195.760178 155.603882,195.875870 
z"/>
<path fill="#604546" opacity="1.000000" stroke="none" 
	d="
M150.040359,225.972412 
	C150.854889,227.337311 150.529312,228.804886 150.206238,230.483246 
	C149.833267,230.527725 149.664413,230.344406 149.332840,229.823196 
	C148.916153,228.474152 148.972260,227.500656 149.758087,226.296875 
	C149.994171,226.006668 150.023926,225.982559 150.040359,225.972412 
z"/>
<path fill="#6F4B3E" opacity="1.000000" stroke="none" 
	d="
M149.806549,230.058350 
	C149.988037,230.397827 150.006546,230.555084 150.004333,230.633057 
	C150.002136,230.711029 149.713425,231.114853 149.478485,231.194550 
	C149.243546,231.274261 149.097504,231.106705 149.024994,231.022491 
	C148.876526,230.366257 149.101868,229.960419 149.806549,230.058350 
z"/>
<path fill="#E1EBFE" opacity="1.000000" stroke="none" 
	d="
M230.314423,211.999908 
	C230.233765,217.472168 232.076279,224.180923 229.566589,226.961609 
	C226.683334,230.156204 219.868729,227.792908 214.767090,227.946594 
	C210.115936,228.086700 205.455368,227.880417 200.799576,227.913773 
	C198.485962,227.930344 197.192703,227.457260 197.252899,224.604675 
	C197.438751,215.793808 197.396652,206.975464 197.271271,198.162460 
	C197.237137,195.763855 197.982605,195.015472 200.372375,195.047150 
	C209.185623,195.164047 218.003448,195.201172 226.814896,195.029648 
	C229.579300,194.975830 230.252365,196.167160 230.241241,198.530823 
	C230.220886,202.853882 230.285355,207.177353 230.314423,211.999908 
z"/>
<path fill="#C7D8F9" opacity="1.000000" stroke="none" 
	d="
M387.085327,194.989639 
	C394.236298,194.989639 400.913513,195.273834 407.551727,194.887665 
	C411.829681,194.638809 413.296814,195.758911 413.279327,200.232040 
	C413.262512,204.529877 412.520264,206.341949 407.671600,206.035995 
	C400.041687,205.554535 392.345520,205.593201 384.705322,205.973221 
	C378.684082,206.272705 380.446472,202.282990 380.046967,199.107224 
	C379.567078,195.292053 381.388763,194.509384 384.598816,194.975967 
	C385.251129,195.070786 385.928955,194.989655 387.085327,194.989639 
z"/>
<path fill="#C7D8F9" opacity="1.000000" stroke="none" 
	d="
M457.999573,205.910889 
	C453.671875,205.903503 449.834869,205.739105 446.016113,205.933426 
	C442.288788,206.123108 440.975189,204.972626 440.922638,200.916504 
	C440.863068,196.318863 441.707397,194.526825 446.786774,194.856689 
	C454.578644,195.362732 462.436157,195.214645 470.249512,194.916122 
	C476.109375,194.692230 473.668793,198.875366 474.065765,201.434235 
	C474.457764,203.960815 474.575378,206.418716 470.476044,205.998459 
	C466.522003,205.593079 462.493835,205.910828 457.999573,205.910889 
z"/>
<path fill="#FEFEFF" opacity="1.000000" stroke="none" 
	d="
M351.525757,198.575867 
	C352.218567,205.829468 352.218567,205.835449 345.468658,205.828033 
	C338.332581,205.820190 331.196503,205.799377 323.608032,205.704071 
	C320.877533,201.090515 321.582550,198.112396 325.605560,197.831024 
	C334.097382,197.237122 342.650970,196.560364 351.525757,198.575867 
z"/>
<path fill="#8BADF0" opacity="1.000000" stroke="none" 
	d="
M352.015869,198.452820 
	C344.275543,198.840714 336.614624,199.053970 328.983612,198.671631 
	C324.193848,198.431625 322.029205,199.801254 323.150269,205.199524 
	C319.825989,206.578857 318.797211,205.249466 318.909729,201.921005 
	C319.206635,193.134476 318.011841,194.969482 325.889984,194.843048 
	C333.483246,194.721191 341.081573,194.904388 348.674347,194.767929 
	C351.160889,194.723236 352.464325,195.351334 352.015869,198.452820 
z"/>
<path fill="#F5F3E7" opacity="1.000000" stroke="none" 
	d="
M110.649704,179.734756 
	C110.939468,182.154297 112.059029,182.307556 113.749809,181.555130 
	C116.309029,180.416229 118.419479,181.001633 120.079422,183.737000 
	C117.084259,184.287247 115.031036,185.391373 115.842491,189.415253 
	C114.911957,190.467758 113.832504,190.332993 113.068039,189.704819 
	C108.390427,185.860901 105.718735,187.877640 104.042068,192.729446 
	C102.524452,197.120987 99.612350,198.904053 94.970154,198.188797 
	C93.021774,197.888596 90.987373,198.146790 88.535110,198.174744 
	C85.744102,196.940094 82.954750,195.889435 83.199562,192.606140 
	C83.433029,189.475113 85.742035,188.278625 88.611046,187.692078 
	C90.375893,187.331284 90.741096,185.275391 92.028671,183.861847 
	C92.905396,183.515747 93.900925,183.149048 94.445679,183.494064 
	C97.960426,185.720215 98.240669,183.461960 98.480728,180.470642 
	C101.775551,176.279022 105.363487,176.242630 109.622162,178.977386 
	C110.158310,179.196396 110.331924,179.321945 110.649704,179.734756 
z"/>
<path fill="#C8ECE5" opacity="1.000000" stroke="none" 
	d="
M110.920647,179.776123 
	C110.513290,179.914169 110.293877,179.732468 110.060165,179.273895 
	C110.155464,179.030975 110.326225,178.991119 110.759705,178.964371 
	C111.030762,179.161743 111.039093,179.345978 110.920647,179.776123 
z"/>
<path fill="#D74D60" opacity="1.000000" stroke="none" 
	d="
M136.011124,211.930115 
	C135.693680,214.674591 137.190872,218.609375 131.654053,217.884811 
	C132.737946,219.928116 136.771881,218.044098 135.566544,221.316681 
	C134.609940,223.913956 131.784760,222.877182 129.777924,222.748642 
	C127.165878,222.581329 128.189133,220.978210 128.041382,219.070969 
	C127.770943,215.579987 127.120087,212.066345 127.168060,208.498535 
	C127.287819,199.591415 127.292671,190.680847 127.577263,181.779144 
	C127.651413,179.459930 129.829910,179.208176 131.744812,179.237671 
	C133.373093,179.262756 135.366730,178.924728 135.744904,181.190796 
	C136.149323,183.614090 133.588409,182.611313 132.350189,183.834106 
	C135.217316,184.801041 136.239899,186.664658 136.067291,189.691483 
	C135.755280,195.163498 135.956741,200.664764 135.982880,206.628250 
	C136.021957,207.102676 135.991837,207.019165 136.031570,206.999374 
	C134.952606,208.395462 135.625793,209.997742 135.834961,211.770386 
	C136.071686,212.013626 135.992889,211.971024 136.011124,211.930115 
z"/>
<path fill="#BB7B54" opacity="1.000000" stroke="none" 
	d="
M150.038467,229.953094 
	C149.988037,230.397827 149.533249,230.237762 149.533249,230.237762 
	C149.533249,230.237762 149.122238,230.489365 149.037354,230.713821 
	C130.035126,230.918549 111.117767,230.898819 91.763580,230.865997 
	C91.629410,229.135620 92.820930,227.521179 92.063698,225.427216 
	C92.903404,225.143448 93.606407,225.097885 94.662415,225.017441 
	C96.723274,224.998260 98.431129,225.013947 100.565750,225.006516 
	C105.686317,223.962555 110.432404,224.730652 115.579407,224.776550 
	C116.753830,224.998489 117.500183,225.013580 118.619263,225.005875 
	C120.340866,224.152298 121.817474,224.626495 123.624924,224.775131 
	C129.024979,224.998734 134.041977,225.014359 139.524704,225.006195 
	C140.388153,224.627533 140.850540,224.490311 141.693512,224.776352 
	C142.755142,224.997955 143.500732,225.013489 144.618668,225.006363 
	C145.714081,224.413620 146.545639,224.518509 147.648834,224.913818 
	C148.417801,225.499176 148.911469,225.771408 149.699677,226.025146 
	C150.025757,227.173904 150.057327,228.341125 150.038467,229.953094 
z"/>
<path fill="#72BAC0" opacity="1.000000" stroke="none" 
	d="
M124.963287,208.955231 
	C124.963150,211.107086 124.804962,212.786636 124.996536,214.425293 
	C125.370796,217.626480 124.403740,219.554504 120.780617,219.198746 
	C121.358406,220.930664 124.327103,219.509933 123.846375,221.875977 
	C123.609863,223.040054 122.219566,222.735825 121.260857,222.774658 
	C119.322807,222.853149 117.980919,222.102570 117.951393,219.983627 
	C117.893532,215.831757 117.913132,211.678757 117.909363,207.526215 
	C117.904541,202.210815 117.903572,196.895416 117.912575,191.580032 
	C117.914261,190.585022 117.885262,189.578430 118.019112,188.597473 
	C118.324722,186.357681 120.027588,186.257721 121.765144,186.309891 
	C122.583092,186.334442 123.712944,186.264694 123.860397,187.219864 
	C124.238594,189.669647 121.301941,188.034653 120.756088,189.812546 
	C124.554108,189.553329 125.238037,191.687790 125.031906,195.014099 
	C124.755035,199.481796 124.963303,203.979553 124.963287,208.955231 
z"/>
<path fill="#EBD858" opacity="1.000000" stroke="none" 
	d="
M108.388634,192.827667 
	C108.524666,191.780701 107.630875,189.532120 109.693069,190.710648 
	C111.142693,191.539078 114.671555,191.614655 113.091568,194.961655 
	C111.607697,198.105011 109.871437,201.130463 108.214851,204.190796 
	C105.155251,209.843048 102.072685,215.482880 98.888809,221.465576 
	C98.124100,221.697723 97.470276,221.592178 96.509399,221.353455 
	C95.803108,219.860229 93.714233,220.087509 93.664612,218.500473 
	C93.660576,218.371170 94.739029,218.208023 95.628120,218.067627 
	C95.941757,218.074646 96.347786,218.202225 96.242203,218.017471 
	C95.111267,215.637878 95.118790,213.755081 96.583138,211.498093 
	C100.403595,205.609665 102.614388,198.763626 107.529747,193.242050 
	C107.853149,193.179291 108.245773,193.369003 108.245773,193.369003 
	C108.245773,193.369003 108.509430,193.008713 108.388634,192.827667 
z"/>
<path fill="#C8ECE5" opacity="1.000000" stroke="none" 
	d="
M101.140251,222.355682 
	C105.072968,216.179443 107.788483,209.566727 111.401962,203.462921 
	C112.270470,201.995865 112.512688,199.760269 115.426224,200.207886 
	C115.774467,206.695358 115.644745,213.112869 115.829727,219.521301 
	C115.911827,222.365768 114.950989,223.335419 112.167183,223.125198 
	C108.576462,222.854034 104.965424,222.851929 101.140251,222.355682 
z"/>
<path fill="#9A938C" opacity="1.000000" stroke="none" 
	d="
M140.868011,219.648041 
	C141.741333,220.623245 143.509018,221.117142 142.127426,222.438812 
	C141.097122,223.424438 139.342529,223.114716 138.739212,221.779068 
	C137.794403,219.687454 137.363144,217.218567 139.056061,215.349182 
	C139.860168,214.461273 141.796753,214.463287 142.573929,215.732437 
	C143.688858,217.553162 142.720078,218.811478 140.868011,219.648041 
z"/>
<path fill="#9A938C" opacity="1.000000" stroke="none" 
	d="
M143.010590,199.499588 
	C143.059280,199.900742 142.724152,200.104141 142.529175,200.083923 
	C142.114990,200.159637 141.895782,200.255569 141.323181,200.288727 
	C137.132629,199.964600 138.440567,197.003433 138.170563,194.476715 
	C138.267273,193.884354 138.355255,193.690109 138.740448,193.614136 
	C142.697708,193.801056 143.366257,196.057434 143.010590,199.499588 
z"/>
<path fill="#6F4B3E" opacity="1.000000" stroke="none" 
	d="
M115.711487,224.691544 
	C111.313095,225.006378 106.618713,225.029343 101.458420,225.017853 
	C105.729340,223.038712 110.586418,224.065033 115.711487,224.691544 
z"/>
<path fill="#7C6950" opacity="1.000000" stroke="none" 
	d="
M139.344223,191.983612 
	C139.082718,190.952957 139.415451,190.066238 140.637253,190.211761 
	C140.975403,190.252045 141.540543,190.729843 141.526306,190.979843 
	C141.464523,192.064972 140.475098,191.849533 139.344223,191.983612 
z"/>
<path fill="#6F4B3E" opacity="1.000000" stroke="none" 
	d="
M123.774048,224.718781 
	C122.614136,225.005905 121.220284,225.028702 119.409210,225.017303 
	C120.360023,223.533569 121.934624,223.861206 123.774048,224.718781 
z"/>
<path fill="#7C6950" opacity="1.000000" stroke="none" 
	d="
M140.255737,201.263794 
	C140.604218,201.359299 140.546387,201.361801 140.561005,201.363998 
	C139.879517,201.945236 139.183411,202.524277 138.487305,203.103317 
	C138.389099,202.826157 138.182236,202.536728 138.211929,202.274033 
	C138.326111,201.264053 139.046387,201.086594 140.255737,201.263794 
z"/>
<path fill="#6F4B3E" opacity="1.000000" stroke="none" 
	d="
M147.796875,224.930908 
	C147.190903,225.169617 146.457672,225.112289 145.357742,225.019318 
	C145.763229,223.940811 146.645996,223.746979 147.796875,224.930908 
z"/>
<path fill="#6F4B3E" opacity="1.000000" stroke="none" 
	d="
M141.860535,224.760071 
	C141.560577,225.003769 141.111572,225.025116 140.326508,225.014435 
	C140.422516,224.286133 140.954620,223.976990 141.860535,224.760071 
z"/>
<path fill="#7C6950" opacity="1.000000" stroke="none" 
	d="
M139.045456,193.459869 
	C139.037659,193.732391 138.615784,193.927109 138.397522,194.002853 
	C138.264862,193.492798 138.350433,192.907013 138.673386,192.129547 
	C138.910751,191.937881 139.007629,192.012207 139.054565,192.053162 
	C139.085434,192.458527 139.069336,192.822937 139.045456,193.459869 
z"/>
<path fill="#7C6950" opacity="1.000000" stroke="none" 
	d="
M140.974121,200.425247 
	C141.193649,200.169312 141.417526,200.112671 141.987793,200.059845 
	C142.093857,200.358063 141.853516,200.652420 141.327606,200.982437 
	C141.042053,201.018082 140.978439,200.624527 140.974121,200.425247 
z"/>
<path fill="#604546" opacity="1.000000" stroke="none" 
	d="
M136.059814,211.593658 
	C134.423737,210.659805 135.009811,209.017212 135.772675,207.184967 
	C136.063522,208.377609 136.055740,209.775650 136.059814,211.593658 
z"/>
<path fill="#BB7B54" opacity="1.000000" stroke="none" 
	d="
M138.174072,239.784119 
	C138.230682,237.686325 138.023376,235.967270 138.411102,234.394958 
	C138.896729,232.425705 140.789734,233.070694 142.189484,233.012421 
	C143.729538,232.948288 144.730682,233.608719 144.730576,235.319778 
	C144.730484,236.978180 144.750031,238.636566 144.759750,240.294968 
	C144.772766,242.515381 144.897034,244.760239 141.685623,244.874664 
	C138.229980,244.997803 138.080353,242.730240 138.174072,239.784119 
z"/>
<path fill="#BB7B54" opacity="1.000000" stroke="none" 
	d="
M99.150017,243.987305 
	C95.630890,241.225098 96.960289,237.643707 97.368912,234.619263 
	C97.726120,231.975342 100.633797,232.577499 102.165245,233.588409 
	C104.584343,235.185287 102.526993,242.957779 99.150017,243.987305 
z"/>
<path fill="#C8ECE5" opacity="1.000000" stroke="none" 
	d="
M99.420418,187.802582 
	C97.706749,189.568726 95.123138,188.745636 93.748695,190.990128 
	C92.772430,192.584366 90.133492,192.105362 88.599274,194.273102 
	C89.230408,189.252090 95.768799,185.648163 99.420418,187.802582 
z"/>
<path fill="#6F4B3E" opacity="1.000000" stroke="none" 
	d="
M114.150879,227.061279 
	C124.208817,227.061340 133.786331,227.061340 143.363846,227.061340 
	C143.369492,227.460770 143.375137,227.860184 143.380783,228.259613 
	C131.470917,228.259613 119.561043,228.259613 107.274811,228.259613 
	C109.263710,226.231628 111.637917,227.411514 114.150879,227.061279 
z"/>
<path fill="#7C6950" opacity="1.000000" stroke="none" 
	d="
M108.166855,192.781876 
	C108.994759,192.916809 110.451149,192.413757 110.190727,193.728226 
	C110.022057,194.579575 108.919434,194.076126 108.049362,193.441559 
	C107.853149,193.179291 108.065880,192.917145 108.166855,192.781876 
z"/>
<path fill="#7C6950" opacity="1.000000" stroke="none" 
	d="
M96.088142,217.893402 
	C96.687302,217.863525 97.384697,217.627594 97.444008,218.551804 
	C97.033844,218.555206 96.623672,218.558609 96.077637,218.318329 
	C95.941757,218.074646 96.039673,217.954071 96.088142,217.893402 
z"/>
</svg>